<svg xmlns="http://www.w3.org/2000/svg" width="512" height="512" fill="none"><g filter="url(#a)"><path fill="url(#b)" fill-rule="evenodd" d="M281.269 80.3978c-6.595-1.3417-13.093 2.9034-14.514 9.4817L236.616 229.397c-1.421 6.578 2.773 12.999 9.368 14.341l75.709 15.403c45.219 9.2 89.775-19.907 99.519-65.012 9.744-45.105-19.014-89.128-64.233-98.3279l-75.71-15.4033Zm55.363 38.5292c-1.501-2.723-5.42-2.774-7.052-.091l-15.834 26.033c-.601.988-1.593 1.681-2.728 1.905l-29.912 5.895c-3.083.608-4.384 4.303-2.341 6.648l19.822 22.759c.752.864 1.097 2.009.948 3.151l-3.922 30.072c-.404 3.099 2.711 5.434 5.606 4.2l28.084-11.967c1.066-.455 2.271-.439 3.315.043l27.487 12.69c2.833 1.307 6.06-.945 5.806-4.052l-2.465-30.156c-.094-1.144.306-2.28 1.1-3.124l20.91-22.229c2.155-2.291 1.034-6.018-2.017-6.705l-29.608-6.669c-1.124-.253-2.082-.971-2.635-1.974l-14.564-26.429Z" clip-rule="evenodd"/></g><g filter="url(#c)"><path fill="url(#d)" d="M193.417 88.907c13.126-3.8541 62.173-17.3978 62.114-11.3941-.058 6.0037-11.978 59.1461-16.781 79.8441-28.083 121.011-43.13 206.209-53.207 214.111-10.077 7.902-89.5797 64.626-89.5004 56.5.0757-7.752 60.5974-199.519 63.0004-211.5 2.402-11.981-72.0783-64.02-70.0003-72 2.078-7.98 46.5003-38.567 104.3743-55.561Z"/></g><g filter="url(#e)"><path fill="url(#f)" d="m319.465 276.882 98.412 150.833c.11.169.207.337.26.531.614 2.242 1.745 16.9-81.531-.06-.676-.138-1.264-.377-1.753-.863-14.982-14.866-82.922-130.869-100.922-161.798-1.729-2.969.885-6.52 4.257-5.857l78.699 15.475c1.058.208 1.988.835 2.578 1.739Z"/></g><defs><linearGradient id="b" x1="354.091" x2="320.778" y1="95.214" y2="258.955" gradientUnits="userSpaceOnUse"><stop stop-color="#696969"/><stop offset="1" stop-color="#A9A9A9"/></linearGradient><linearGradient id="d" x1="182.638" x2="110.884" y1="62.353" y2="431.492" gradientUnits="userSpaceOnUse"><stop stop-color="#696969"/><stop offset="1" stop-color="#A9A9A9"/></linearGradient><linearGradient id="f" x1="324.043" x2="324.043" y1="253.468" y2="438.135" gradientUnits="userSpaceOnUse"><stop stop-color="#C2C2C2"/><stop offset="1" stop-color="#424242"/></linearGradient><filter id="a" width="206.77" height="200.688" x="219.339" y="77.15" color-interpolation-filters="sRGB" filterUnits="userSpaceOnUse"><feFlood flood-opacity="0" result="BackgroundImageFix"/><feColorMatrix in="SourceAlpha" result="hardAlpha" values="0 0 0 0 0 0 0 0 0 0 0 0 0 0 0 0 0 0 127 0"/><feOffset dx="-7" dy="7"/><feGaussianBlur stdDeviation="5"/><feComposite in2="hardAlpha" operator="out"/><feColorMatrix values="0 0 0 0 0 0 0 0 0 0 0 0 0 0 0 0 0 0 0.25 0"/><feBlend in2="BackgroundImageFix" result="effect1_dropShadow_4_21"/><feBlend in="SourceGraphic" in2="effect1_dropShadow_4_21" result="shape"/><feColorMatrix in="SourceAlpha" result="hardAlpha" values="0 0 0 0 0 0 0 0 0 0 0 0 0 0 0 0 0 0 127 0"/><feOffset dx="-5" dy="5"/><feGaussianBlur stdDeviation="3.5"/><feComposite in2="hardAlpha" k2="-1" k3="1" operator="arithmetic"/><feColorMatrix values="0 0 0 0 0 0 0 0 0 0 0 0 0 0 0 0 0 0 0.25 0"/><feBlend in2="shape" result="effect2_innerShadow_4_21"/></filter><filter id="c" width="186.531" height="372.762" x="72" y="73" color-interpolation-filters="sRGB" filterUnits="userSpaceOnUse"><feFlood flood-opacity="0" result="BackgroundImageFix"/><feColorMatrix in="SourceAlpha" result="hardAlpha" values="0 0 0 0 0 0 0 0 0 0 0 0 0 0 0 0 0 0 127 0"/><feOffset dx="-7" dy="7"/><feGaussianBlur stdDeviation="5"/><feComposite in2="hardAlpha" operator="out"/><feColorMatrix values="0 0 0 0 0 0 0 0 0 0 0 0 0 0 0 0 0 0 0.25 0"/><feBlend in2="BackgroundImageFix" result="effect1_dropShadow_4_21"/><feBlend in="SourceGraphic" in2="effect1_dropShadow_4_21" result="shape"/><feColorMatrix in="SourceAlpha" result="hardAlpha" values="0 0 0 0 0 0 0 0 0 0 0 0 0 0 0 0 0 0 127 0"/><feOffset dx="-5" dy="5"/><feGaussianBlur stdDeviation="3.5"/><feComposite in2="hardAlpha" k2="-1" k3="1" operator="arithmetic"/><feColorMatrix values="0 0 0 0 0 0 0 0 0 0 0 0 0 0 0 0 0 0 0.25 0"/><feBlend in2="shape" result="effect2_innerShadow_4_21"/></filter><filter id="e" width="204.871" height="196.677" x="216.382" y="256.588" color-interpolation-filters="sRGB" filterUnits="userSpaceOnUse"><feFlood flood-opacity="0" result="BackgroundImageFix"/><feColorMatrix in="SourceAlpha" result="hardAlpha" values="0 0 0 0 0 0 0 0 0 0 0 0 0 0 0 0 0 0 127 0"/><feOffset dx="-7" dy="7"/><feGaussianBlur stdDeviation="5"/><feComposite in2="hardAlpha" operator="out"/><feColorMatrix values="0 0 0 0 0 0 0 0 0 0 0 0 0 0 0 0 0 0 0.25 0"/><feBlend in2="BackgroundImageFix" result="effect1_dropShadow_4_21"/><feBlend in="SourceGraphic" in2="effect1_dropShadow_4_21" result="shape"/><feColorMatrix in="SourceAlpha" result="hardAlpha" values="0 0 0 0 0 0 0 0 0 0 0 0 0 0 0 0 0 0 127 0"/><feOffset dx="-4" dy="4"/><feGaussianBlur stdDeviation="3.5"/><feComposite in2="hardAlpha" k2="-1" k3="1" operator="arithmetic"/><feColorMatrix values="0 0 0 0 0 0 0 0 0 0 0 0 0 0 0 0 0 0 0.25 0"/><feBlend in2="shape" result="effect2_innerShadow_4_21"/></filter></defs></svg>