<svg xmlns="http://www.w3.org/2000/svg" width="128" height="128" fill="none"><defs><radialGradient id="a" cx="64" cy="61.6" r="42.1" gradientUnits="userSpaceOnUse"><stop offset="0" stop-color="#ab0000"/><stop offset="1" stop-color="#450000"/></radialGradient><radialGradient id="b" cx="64.04" cy="94.58" r="20.5" gradientUnits="userSpaceOnUse"><stop offset="0" stop-color="#cd0000"/><stop offset="1" stop-color="#6c0000"/></radialGradient></defs><path fill="url(#a)" d="M50.4 78.5a75.1 75.1 0 0 0-28.5 6.9l24.2-65.7c.7-2 1.9-3.2 3.4-3.2h29c1.5 0 2.7 1.2 3.4 3.2l24.2 65.7s-11.6-7-28.5-7L67 45.5c-.4-1.7-1.6-2.8-2.9-2.8-1.3 0-2.5 1.1-2.9 2.7L50.4 78.5Zm-1.1 28.2Z" paint-order="fill"/><path fill="url(#b)" d="m65.42 75.86 4.6 10.49A2.4 2.4 0 0 0 72 87.78l11.2 1a1.54 1.54 0 0 1 .86 2.64l-8.44 7.09a2.4 2.4 0 0 0-.81 2.35l2.45 11.48a1.54 1.54 0 0 1-2.24 1.63l-9.78-5.73a2.4 2.4 0 0 0-2.43 0l-9.78 5.72a1.55 1.55 0 0 1-2.24-1.62l2.45-11.49a2.41 2.41 0 0 0-.8-2.34L44 91.42c-.91-.89-.4-2.45.86-2.63l11.2-1a2.4 2.4 0 0 0 1.99-1.44l4.6-10.49a1.55 1.55 0 0 1 2.77 0Z"/></svg>