<svg xmlns="http://www.w3.org/2000/svg" width="2762.6667" height="2146.6667" version="1.0" viewBox="0 0 2072 1610">
  <path d="M1 2.9C-.4 5.6-.4 1570.4 1 1573.1c1.1 1.9 13.5 1.9 1011.8 1.9 784.9 0 1011.1-.3 1012-1.2 1.8-1.8 1.8-1569.8 0-1571.6-.9-.9-227.1-1.2-1012-1.2C14.5 1 2.1 1 1 2.9zM2000 788v761l-986.8-.2-986.7-.3-.3-760.8L26 27h1974v761z"/>
  <path d="M80 204.5V329h1867V80H80v124.5zm204.5-33.1c3.7 1.6 5.8 4.6 5.3 7.9-.5 3.3-3.6 3.4-4.9 0-1.3-3.5-2.5-4.3-6.8-4.3-4.7 0-7.1 2.4-7.1 7.2 0 3.7.1 3.8 3.8 3.8 5.6 0 8.2 1 8.2 3.1 0 1.7-.8 1.9-6 1.9h-6v15.2c0 15.7-.6 18.6-3.4 17.5-1.4-.6-1.6-2.9-1.6-16.7v-16h-4c-3.3 0-4-.3-4-2 0-1.6.7-2 3.4-2 3.3 0 3.4-.1 4-5.2.9-6.7 2.1-8.7 5.9-10.3 4.2-1.8 8.9-1.9 13.2-.1zm250.5.5c1.2 2.4 1.4 49 .1 51-1.1 1.7-4.1.7-4.1-1.3 0-1.3-.7-1.2-4.2.4-5.7 2.6-11.4 2.5-16.8-.3-6-3-7-5.3-7-17 0-11.3 1.3-14.7 6.6-17.2 4.6-2.2 13.1-1.9 17.7.5l3.7 2v-9.3c0-5.2.3-9.7.7-10 1.1-1.2 2.2-.8 3.3 1.2zm242.5-.9c.3.5-1.7 3.7-4.4 7.1-6.7 8.3-8.6 14-8.5 25.4.1 10.6 2.3 16.9 9.1 25.2 4.7 5.8 5.1 6.8 2.7 7.7-1.2.5-3.1-.8-6.2-4-7.9-8.3-11.8-19.9-11-33.4.6-9.4 3.8-17 10.4-24 4.6-4.9 6.7-6 7.9-4zm69.3 3.6c13.9 14.6 14.6 39.3 1.5 55.9-2.9 3.8-7.6 6.9-8.7 5.8-1.3-1.4-.4-3.4 3.6-8 5.2-6 7.5-11.2 8.7-19.4 1.7-12.6-1.2-23-9-31.4-7.3-7.9-3.6-10.7 3.9-2.9zM445.1 173c5.1 1.4 9.1 6 9.3 10.7.1 3.1-.2 3.8-1.8 3.8-1.3 0-2.3-1.1-3.1-3.4-1.6-4.8-4.9-7.1-10.2-7.1-6.3 0-10 2.2-11.2 6.8-1.6 5.6-1.4 24.6.3 28.7 2.5 5.9 9.9 8.1 17.1 5.1 2.7-1.2 3.6-2.3 4.5-5.6.8-3 1.6-4 2.8-3.8 2.8.6 2 7.3-1.3 10.8-6.9 7.2-23.7 5.4-28.1-3.1-1.9-3.8-2-30.5 0-35.2 3.1-7.4 11.8-10.5 21.7-7.7zm167.6 1.3c5.3 2.8 8.3 12.7 4.1 13.5-1.1.2-2-.8-2.8-3.2-1.6-5-5.3-7.6-10.6-7.6-5.4 0-8.8 1.5-10.5 4.8-1.6 2.8-2 25.6-.6 30.5 1.6 5.7 10 8.3 17.2 5.3 2.7-1.2 3.6-2.3 4.5-5.6 1.4-5.1 4.3-5.3 4.8-.3.7 7.5-10.1 13.6-20.4 11.3-10.8-2.4-12.4-5.7-12.4-25 0-18 1.5-21.9 9.5-24.9 3.9-1.4 13.4-.7 17.2 1.2zm202.4 11.5c2.2 4.4 2.8 11.8 1.5 15.9-1 3 1.8 3.2 3.6.3 1.8-2.8 2.4-2.6 4.7 2.3 3.9 8.1 2.1 17.7-4.4 23.7l-2.8 2.5 1.7-3.3c2.7-5.2 1.8-7.6-2.8-8.3-5.5-.9-6.9-3.1-6.1-10.1.6-5.5-.1-10.8-1.4-10.8-.6 0-3.7 5-9.4 15.4-2.4 4.3-2.8 6-2.5 10.9l.3 5.8-3.2-3.4c-3.8-4.2-5.8-10.2-4.9-15 .3-1.9 3-7.2 5.8-11.8 6.3-10.4 9.7-18.3 9.8-22.9v-3.4l4 3.9c2.2 2.2 5 5.9 6.1 8.3zM653 187.9c3.7 2.7 4.9 7.3 4.9 19.3.1 9.7.3 10.8 2.1 11.8 1.1.6 2 1.7 2 2.5 0 1.9-3.7 1.9-7.3 0-2.5-1.3-3.1-1.3-5 0-3.9 2.5-10.3 2.9-15.2 1-5.5-2.1-7.5-4.7-7.5-10.1 0-4.6 3-8.7 7.5-10.4 3.3-1.3 10-1.3 14.3-.1l3.2 1v-4.3c0-5.3-1.9-7.2-8-8-6.6-.8-11.2 1.1-12.2 5.2-1.1 4.1-4.1 4.1-4.6 0-.6-4.8 3-8.4 10.3-10.2 3.8-.9 13 .4 15.5 2.3zm-341.2-.1c1.7 1.7 1.9 1.7 4.7 0 6.5-3.9 14.5-.6 14.5 6 0 4.6-2.8 4.9-4.6.7-1.2-3-1.9-3.5-4.7-3.5-2.3 0-4.1.8-6 2.8-2.6 2.7-2.7 3.3-2.7 13.5V218h4.3c4.9 0 8.9 2.2 7.1 4-.7.7-5.4 1-13.5.8-10.9-.3-12.4-.5-12.7-2.1-.3-1.4.4-1.7 4.7-1.7h5.1v-28h-4.4c-2.5 0-4.8-.5-5.2-1.2-2.2-3.5 10.1-5.3 13.4-2zm53.1 0c4.6 2.5 7.2 7.5 6.9 13.2l-.3 4.5-13.7.3-13.8.3v3.3c0 1.9.3 4.2.6 5.1 1.9 4.9 14.1 6.1 21.3 2 7.1-4.1 9.8-2.4 4.4 2.7-5.3 5-17.9 6.1-25.3 2.3-4.4-2.3-6-6.8-6-17.2 0-10.2 1.6-13.9 7.1-16.6 4.7-2.3 14.5-2.2 18.8.1zm41.1 0c4.5 2.2 7.1 7.3 6.8 13.2l-.3 4.5-13.7.3-13.8.3v3.9c0 4.5 2.3 7.5 6.5 8.6 4.6 1.1 13-.1 16.2-2.4 5.8-4.1 8.8-1.5 3.7 3.3-5 4.7-18.2 5.7-25.4 2-4.4-2.3-6-6.8-6-17 0-10.6 1.5-13.9 7.3-16.6 5.4-2.4 14-2.5 18.7-.1zm82.5-.4c5.8 2.4 7 5.5 7 17.6 0 11.8-1.2 14.8-6.8 17.1-4.7 2-16.4 1.7-20.5-.5-5.1-2.6-6.5-7.1-6-18.8.4-10.6 1.5-12.8 7.3-15.4 4-1.8 14.7-1.8 19 0zm81.5.4c4.5 2.2 7.1 7.3 6.8 13.2l-.3 4.5-13.7.3-13.8.3v3.9c0 4.5 2.3 7.5 6.5 8.6 4.6 1.1 13-.1 16.2-2.4 5.8-4.1 8.8-1.5 3.7 3.3-5.2 4.8-18.9 5.7-25.7 1.7-4.1-2.3-5.6-6.7-5.6-16.5-.1-10.1 1.7-14.3 7.3-16.8 5.3-2.4 14-2.5 18.6-.1zm100.8-.2c.8 1.4 1 1.4 2.1 0 1.7-2 7-2 9.9 0 2 1.4 2.4 1.4 4.4 0 3.1-2.2 9.1-2 11.9.3 2.3 1.9 2.4 2.5 2.7 17.8.2 16-.3 19.1-3.2 18-1.4-.5-1.6-2.8-1.6-15.1 0-7.9-.3-15.1-.6-16-.7-1.9-6.4-2.2-8.2-.4-.8.8-1.2 5.7-1.2 15.2 0 14.5-.6 17.3-3.4 16.3-1.4-.5-1.6-2.8-1.6-15.5 0-15.6-.4-17.2-4.5-17.2-4.6 0-5.4 2.5-5.7 18-.3 13.7-.4 14.5-2.3 14.5s-2-.8-2.3-17.5c-.1-9.6 0-18 .2-18.7.7-1.8 2.3-1.6 3.4.3zm42.2-.1c0 1.9.5 1.9 6.4-.1 3.1-1.1 6.7-1.5 10.3-1.2 4.8.4 6.1 1 8.5 3.7 2.7 3 2.8 3.5 2.8 14.2 0 13.4-1 16-7.5 18.4-5.1 2-11.4 1.7-16.4-.8l-3.1-1.5v8.2c0 8.6-1.2 11.5-3.7 9.5-1-.9-1.3-6.6-1.3-25.9 0-13.5.3-25 .7-25.3 1.2-1.3 3.3-.7 3.3.8zm837 17c0 11-.3 13.5-1.4 13.5-.8 0-1.6-.6-1.9-1.3-.4-1-.7-1-1.8 0-2 1.9-6.7 1.5-8.9-.7-2.9-2.9-2.8-10.8.2-14.5 1.9-2.4 2.6-2.7 6.5-2.2l4.3.5v-4.4c0-3.2.4-4.4 1.5-4.4 1.3 0 1.5 2.2 1.5 13.5zm52 0c0 12.8-.1 13.5-2 13.5s-2-.7-2-13.5.1-13.5 2-13.5 2 .7 2 13.5zm-142 .5c0 12.3-.1 13-2 13s-2-.7-2-13 .1-13 2-13 2 .7 2 13zm112-2.3c0 9.6-.2 10.9-2.2 13-2.9 3.1-9.8 3.3-9.8.4 0-1.5.8-2.1 3.3-2.3l3.2-.3.3-10.8c.3-10.6.3-10.7 2.7-10.7h2.5v10.7zm73 .3v11h2.5c1.8 0 2.5.5 2.5 2 0 1.8-.7 2-7.5 2s-7.5-.2-7.5-2c0-1.5.7-2 2.5-2 2.4 0 2.5-.2 2.5-7.5 0-7.2-.1-7.5-1.9-6.3-1.5.9-2.3.9-3.5-.1-1.4-1.1-1-1.7 2.5-4.7 2.3-1.9 4.9-3.4 6-3.4 1.8 0 1.9.8 1.9 11zm22.8-9.4c2.4 1.7 3.1 7.1 1 9.2-.9.9-.8 1.6.5 3 4.4 4.8-.1 12.2-7.3 12.2-5.9 0-11.7-6-7.4-7.7 1.1-.4 2.3.2 3.3 1.6 2.6 3.4 7.5 2.6 7.9-1.2.3-2.4-.2-3-2.8-4-3.5-1.3-3.7-4-.3-4.5 2.3-.3 3.9-3.4 2.8-5.2-1-1.7-5.1-1.1-6.9.9-1.8 2-4.6 1.8-4.6-.2 0-.6 1-2.1 2.2-3.4 2.6-2.7 8.2-3.1 11.6-.7zm35.7.9c4.2 4.1 3.2 8-3.8 15.2l-4.1 4.3h5.2c4.5 0 5.2.3 5.2 2 0 1.9-.7 2-9 2-6.4 0-9-.3-9-1.2 0-.7 2.7-4 6.1-7.4 4.8-4.9 6.1-6.8 6.2-9.5.2-3-.1-3.4-2.5-3.7-1.9-.2-3.1.3-4 1.7-1.6 2.7-4.8 2.8-4.8.2 0-2.8 4.7-6.1 8.7-6.1 2.3 0 4.2.8 5.8 2.5zm20.6.4c2.7 2.7 2.9 3.5 2.9 10.1s-.2 7.4-2.9 10.1c-5 4.9-12.1 3.7-14.7-2.6-2.7-6.6-1-16.9 3.3-19.4 3.5-2 8.3-1.3 11.4 1.8zm20.6-.7c3.9 3.7 3.1 7.7-2.8 14.2l-5 5.5 5.3.3c4.1.2 5.4.7 5.6 2 .3 1.6-.6 1.8-9.2 1.8-6 0-9.6-.4-9.6-1s3-4.2 6.6-8.1c5.2-5.6 6.5-7.5 6.2-9.7-.4-3.5-5.1-4.4-6.8-1.3-1.3 2.4-5 2.8-5 .6 0-.9 1.1-2.7 2.5-4 3.2-3.3 8.9-3.4 12.2-.3zm21 0c2.7 2.5 3 5.4.7 7.9-1.5 1.7-1.5 1.9 0 3.4.9.9 1.6 3.2 1.6 5 0 6.9-10.3 10.3-15.5 5-2.9-2.9-3.1-4-.8-5 1.2-.4 2.4.1 3.5 1.4.9 1.2 2.8 2.1 4.2 2.1 4.7 0 5.6-6.5 1-7.6-3.1-.8-3.2-4.1-.1-4.6 1.6-.2 2.2-1 2.2-2.8 0-3.3-4.3-4-6.9-1.1-1 1.1-2.4 1.7-3.2 1.4-4.1-1.5 1.8-7.3 7.4-7.3 2.3 0 4.4.8 5.9 2.2zm-289.7 6.3c1.3 1.6 1.2 1.7-3.9 1.9-5.1.2-4.9 2.3.3 4.6 4.2 1.8 4.6 2.2 4.6 5.4 0 2.5-.6 3.8-1.9 4.6-2.8 1.4-7.4 1.2-9.7-.5-2.1-1.6-1.7-1.8 4.1-1.9 3.2-.1 4-.5 4-2 0-1.3-1-2.3-3-2.9-1.6-.5-3.6-1.4-4.2-2-1.8-1.3-1.6-5.2.3-7.1 2-2 7.8-2.1 9.4-.1zm15.1-.4c3 1.6 1.3 2.8-3.1 2.2-3.5-.5-4-.3-4 1.3 0 1.3 1.4 2.6 4.3 3.9 4.8 2.3 6 5.5 3.1 8.6-2.8 3.1-11.4 2.2-11.4-1.3 0-.5 1.8-.5 4.1-.2 2.9.5 4.3.3 4.9-.7 1.2-1.9.4-2.8-4.1-4.6-2.6-1-4.1-2.3-4.5-4-1.3-4.8 5.3-8.1 10.7-5.2zm8.9 6.4c0 8.2.7 9.3 5.5 8.1 2.4-.6 2.5-1 2.5-8.1 0-6.8.2-7.5 2-7.5 1.9 0 2 .7 2 9.5 0 7.5-.3 9.5-1.4 9.5-.8 0-1.6-.6-1.9-1.3-.4-1-.7-1-1.8 0-1.7 1.7-6.1 1.6-8.4-.1-1.6-1.2-2-2.9-2.3-9.5-.4-7.7-.3-8.1 1.7-8.1 1.9 0 2.1.5 2.1 7.5zm28-6.5c1.9 1 4.3 6.7 3.4 8.1-.3.5-3.2.9-6.5.9-6.3 0-7.2.9-4.5 4.5 1.1 1.5 2.1 1.7 6 1.2 4.8-.7 6.1.4 2.7 2.3-5.6 2.9-12.1-.1-13.6-6.3-2-7.9 5.5-14.4 12.5-10.7zm53 5.2c0 7.4.9 9.1 4.1 8.6 2.2-.3 2.4-.8 2.7-7.6.3-6.9.4-7.2 2.7-7.2 2.5 0 2.5.1 2.5 9.5 0 8.8-.1 9.5-2 9.5-1.1 0-2-.5-2-1 0-.7-.6-.7-1.9 0-2.9 1.5-6.2 1.2-8.3-.7-1.4-1.3-1.8-3.1-1.8-9.5 0-7.1.2-7.8 2-7.8s2 .7 2 6.2zm29.9-4c.5 1.3 1.5 3.9 2.3 5.8l1.5 3.5 2-5.5c1.7-4.5 2.5-5.6 4.6-5.8l2.6-.3-5.1 12.5c-4.5 11-5.5 12.6-7.5 12.6-2.7 0-2.7 0-.7-4.2 1.5-3.2 1.4-3.6-2-11.6-2-4.6-3.6-8.6-3.6-8.8 0-.2 1.1-.4 2.5-.4 1.7 0 2.8.7 3.4 2.2zm67.6 13.8c.6 1.9-1.9 8-3.4 8-1.6 0-2.1-1.3-1-2.7.9-1 .8-1.7-.1-2.8-.7-.8-1-2.2-.6-3 .8-2.2 4.4-1.9 5.1.5z"/>
  <path d="M512.5 192.2c-3.8 2.1-4.5 3.9-4.5 12.9 0 11.4 1.2 13.1 9.9 13.7 5.2.4 6.6.1 9.6-1.9l3.5-2.4V195.2l-3.4-2.1c-3.7-2.3-11.7-2.8-15.1-.9zM635.5 207.2c-2.7 1.5-3.5 2.8-3.5 6 0 9 19.9 7.1 20.8-2 .3-2.7-.1-3.4-2.3-4.2-3.5-1.3-12.5-1.2-15 .2zM346.5 193.5c-1.4 1.3-2.5 3.6-2.5 5v2.5h11.5c11.4 0 11.5 0 11.5-2.4 0-1.2-1.1-3.5-2.5-5-2.1-2.3-3.2-2.6-9-2.6-5.7 0-6.9.3-9 2.5zM387.5 193.5c-1.4 1.3-2.5 3.6-2.5 5v2.5h23v-2.5c0-1.4-1.1-3.7-2.5-5-2.1-2.2-3.3-2.5-9-2.5s-6.9.3-9 2.5zM474 191c-5.7 1.4-7 4-7 13.7 0 4.6.4 9.3 1 10.3 2.6 4.8 18.3 5.3 21.2.7.4-.7.8-5.8.8-11.4 0-9.6-.2-10.4-2.2-11.7-3-1.9-9.5-2.6-13.8-1.6zM551.6 193.5c-1.5 1.4-2.6 3.5-2.6 5v2.5h23v-2.5c0-1.4-1.1-3.7-2.5-5-2-2.1-3.3-2.5-8.8-2.5-5.4 0-6.8.4-9.1 2.5zM716.6 193.1c-2.5 2-2.6 2.4-2.6 12v10l4.3 1.9c5.1 2.4 10.8 2.5 14.7.5l3-1.6V205c0-10.1-.2-11-2.2-12.4-3.5-2.5-13.8-2.1-17.2.5zM1538.4 204.6c-1.4 2-1.5 3.3-.8 6.2.8 3.1 1.4 3.8 3.9 4 1.9.3 3.3-.2 4.2-1.4 1.6-2.2 1.7-8.6.1-10.2-2-2-5.6-1.4-7.4 1.4zM1714 198.6c-.6 1.4-1 4.3-1 6.4 0 5.9 1.5 9 4.4 9 3.3 0 4.8-3 4.8-9s-1.5-9-4.8-9c-1.7 0-2.7.8-3.4 2.6zM1520.2 203.2c-2.1 2.1-1.3 2.8 3.4 2.8 3.8 0 4.5-.3 4.2-1.8-.4-2.1-5.7-2.9-7.6-1zM1039 454c-1.1 1.1-2 3.3-2 5 0 2.8-.3 3-3.5 3-2.4 0-3.5.5-3.5 1.5s1.1 1.5 3.5 1.5h3.5v10.5c0 9.8.1 10.5 2 10.5s2-.7 2-10.5V465h4c2.9 0 4-.4 4-1.5s-1.1-1.5-4.1-1.5c-3.8 0-4-.1-3.7-2.8.3-2.3.8-2.7 4.1-3 2.9-.3 3.7-.7 3.7-2.3 0-2.7-7.2-2.7-10 .1zM790 469.5c0 15.8.1 16.5 2 16.5 1.8 0 2-.7 2-7.8 0-8.6 1.6-12.2 5.3-12.2 4.5 0 5.2 1.4 5.5 11 .4 8.3.6 9 2.4 9 2 0 2-.4 1.6-10.2-.5-9-.8-10.4-2.8-12-3-2.4-6.9-2.3-9.7.4l-2.3 2.1v-6.6c0-6-.2-6.7-2-6.7-1.9 0-2 .7-2 16.5zM823 455.5c0 2 .5 2.5 2.5 2.5s2.5-.5 2.5-2.5-.5-2.5-2.5-2.5-2.5.5-2.5 2.5zM1011 455.5c0 1.8.5 2.5 2 2.5s2-.7 2-2.5-.5-2.5-2-2.5-2 .7-2 2.5zM1064 455.5c0 1.8.5 2.5 2 2.5s2-.7 2-2.5-.5-2.5-2-2.5-2 .7-2 2.5zM1192 469.5c0 13.5.3 16.5 1.4 16.5 1.1 0 1.5-2.1 1.7-8.6.4-9.2 1.7-11.4 6.6-11.4 3.3 0 4.3 2.9 4.3 11.9 0 7.6.1 8.1 2.1 8.1s2.1-.4 1.7-9.9c-.2-8-.7-10.3-2.2-12-2.2-2.4-6.4-2.7-9.2-.6-3.1 2.3-3.4 1.9-3.4-4.5 0-4.7-.3-6-1.5-6-1.3 0-1.5 2.5-1.5 16.5zM760 456c0 1.7.7 2 5 2h5v28h5v-28h5c4.3 0 5-.3 5-2 0-1.9-.7-2-12.5-2s-12.5.1-12.5 2zM984.3 454.7c-.7.3-1.3 2-1.3 3.9 0 3.2-.2 3.4-3.5 3.4-2.4 0-3.5.5-3.5 1.5s1.1 1.5 3.5 1.5h3.5v8.9c0 8.2.2 9.1 2.2 10.5 1.2.9 3.9 1.6 6 1.6 3.1 0 3.8-.4 3.8-2s-.7-2-3.5-2c-4.4 0-5.5-2-5.5-10.4V465h4.5c3.3 0 4.5-.4 4.5-1.5s-1.2-1.5-4.4-1.5c-4.5 0-4.5 0-4.8-3.8-.2-2.6-.7-3.7-1.5-3.5zM1171.8 454.8c-1.3.3-1.8 1.3-1.8 3.8 0 3.2-.2 3.4-3.5 3.4-2.4 0-3.5.5-3.5 1.5s1.1 1.5 3.5 1.5h3.5v8.5c0 10.4 1.4 12.5 8.5 12.5 3.8 0 4.5-.3 4.5-1.9 0-1.6-.8-2-4.2-2.3l-4.3-.3-.3-8.3-.3-8.2h4.6c3.3 0 4.5-.4 4.5-1.5s-1.2-1.5-4.4-1.5c-4.5 0-4.5 0-4.8-3.8-.2-2.9-.7-3.7-2-3.4zM1251.8 455.1c-1.1.6-1.8 2.2-1.8 3.9 0 2.7-.3 3-3 3-2 0-3 .5-3 1.5s1 1.5 3 1.5h3v8.5c0 10.4 1.4 12.5 8.5 12.5 3.8 0 4.5-.3 4.5-2 0-1.6-.7-2-3.3-2-4.8 0-5.7-1.5-5.7-9.7V465h4.5c3.3 0 4.5-.4 4.5-1.5s-1.2-1.5-4.4-1.5h-4.5l-.3-3.9c-.3-3.5-.5-3.8-2-3zM819 463.5c0 .9.9 1.5 2.5 1.5 2.5 0 2.5.1 2.5 8.3 0 7.4.3 8.6 2.3 10.5 3.2 3 9.7 3.1 9.7.2 0-1.5-.7-2-2.8-2-4.5 0-5.2-1.6-5.2-11.2V462h-4.5c-3.3 0-4.5.4-4.5 1.5zM846.5 464.5c-4.6 4.5-2.2 9.7 5.2 10.8 2.2.4 4.6 1.4 5.4 2.3 2.7 3.3-4.5 5.7-10.5 3.4-2.3-.8-2.6-.7-2.6 1 0 3.5 8.1 5.3 13.4 2.9 1.3-.7 3-2.4 3.7-4 1.7-4.3-.7-7.4-7.1-8.9-5.7-1.4-6.7-2.4-4.9-4.7 1-1.2 2.5-1.4 6.1-1 4.2.5 4.8.4 4.8-1.2 0-3.8-9.9-4.3-13.5-.6zM902.1 463.4c-3.3 1.8-5 5.3-5.1 10.4 0 7.7 4 12.2 11.1 12.2 4.1 0 6.9-1.7 6.9-4.1 0-1.6-.3-1.8-1.9-.9-6 3.2-12.1-.3-12.1-7s6.1-10.2 12.1-7c1.6.9 1.9.7 1.9-.9 0-3.9-7.9-5.5-12.9-2.7zM928.1 463.4c-3.4 1.9-5 5.4-5.1 10.9 0 5.8 1.1 8.2 5 10.2 5.4 2.8 15 1.1 15-2.7 0-1.5-.4-1.8-1.7-1.3-1 .4-3.7 1-6 1.2-3.5.5-4.5.1-6.7-2-1.4-1.4-2.6-3.1-2.6-3.7 0-.6 3.4-1 9-1h9l-.6-3.3c-.3-1.7-1-4.2-1.6-5.3-2-4.1-8.9-5.6-13.7-3zm10.3 4.8c.9 1.2 1.6 2.6 1.6 3 0 .5-2.9.8-6.5.8-7.1 0-8.5-1.5-4.3-4.4 3.3-2.3 7.4-2 9.2.6zM953 474c0 11.3.1 12 2 12 1.8 0 2-.7 2-7.4 0-6 .4-7.8 2.2-10.1 1.9-2.4 2.6-2.7 6.5-2.2 3.6.4 4.3.2 4.3-1.3 0-3.7-7-4.1-10.5-.5l-2.5 2.4v-2.4c0-1.8-.5-2.5-2-2.5-1.9 0-2 .7-2 12zM1006 463.5c0 .9.9 1.5 2.5 1.5 2.5 0 2.5.1 2.5 8 0 7.3.3 8.3 2.5 10.5 3.2 3.3 9.5 3.6 9.5.5 0-1.5-.7-2-2.8-2-4.5 0-5.2-1.6-5.2-11.2V462h-4.5c-3.3 0-4.5.4-4.5 1.5zM1059 463.5c0 1 1 1.5 3 1.5h3v8.5c0 10.2 1.5 12.5 8 12.5 3.3 0 4-.3 4-2 0-1.6-.7-2-3.5-2-4.5 0-5.5-2.3-5.5-12.6V462h-4.5c-3.3 0-4.5.4-4.5 1.5zM1087.8 464c-5.5 4.3-6.3 14-1.5 18.8 4.5 4.4 16.7 3.9 16.7-.8 0-1.7-.3-1.8-2.6-1-6.1 2.4-13.4-.1-13.4-4.5 0-1.2 1.6-1.5 8.6-1.5h8.7l-.6-4.2c-1.1-7.9-9.8-11.6-15.9-6.8zm10.6 3.6c3.3 3.2 2 4.4-4.9 4.4s-7.8-.7-4.5-4c2.4-2.4 7.2-2.6 9.4-.4zM1115.5 463.2c-2.7 1.5-3.5 2.8-3.5 6s2.7 5.3 8.3 6.4c4.2.7 5.6 2.6 3.7 4.9-1.4 1.7-5.7 1.9-9.4.5-2.3-.9-2.6-.7-2.6 1.5 0 2.1.6 2.5 4.4 3 8.2 1.3 13.8-2.8 12.2-8.8-.5-2.3-1.6-3-6.7-4.4-5.1-1.4-5.9-2-5.7-3.7.3-1.9.9-2.1 6.1-2 4.1.1 5.7-.2 5.7-1.2 0-3.1-8.4-4.6-12.5-2.2zM1221.3 463c-1.3.5-2.3 1.6-2.3 2.4 0 1.2 1 1.4 4.8.9 5.2-.6 9.2.8 9.2 3.1 0 .9-1.8 1.5-6 1.8-6.9.5-10 2.6-10 7 0 6.2 8.5 10.1 13.6 6.3 2.5-1.9 3.4-1.9 3.4 0 0 .8.8 1.5 1.9 1.5 1.7 0 1.8-.7 1.4-7.3-.7-12-1.1-13.5-4.3-15.2-3.2-1.7-8.3-1.9-11.7-.5zm11.7 13c0 2.9-3.5 6-6.8 6-3.2 0-5.2-1.6-5.2-4.2 0-2.4 2.7-3.7 7.8-3.8 3.5 0 4.2.3 4.2 2zM880.4 525.8c-8 3.8-11.8 11.8-11.8 24.7 0 8.9 1.4 14.4 5.2 19.4 4.7 6.3 15.8 9 23.7 5.7 3.3-1.4 3.5-1.7 3.5-6.5 0-2.8-.2-5.1-.5-5.1-.2 0-1.9.9-3.7 2-11.2 6.8-19.5-3.2-17.3-20.6 1.3-10.6 9.2-15.3 17.3-10.4 1.8 1.1 3.5 2 3.7 2 .3 0 .5-2.2.5-4.9 0-6.2-1.3-7.3-9.8-7.8-5.2-.3-7.6.1-10.8 1.5zM911 550v26.2l10.3-.4c13-.5 17.8-2.7 21.6-10.3 2.3-4.4 2.6-6.1 2.6-15.5s-.3-11.1-2.6-15.5c-3.8-7.6-8.6-9.8-21.6-10.3l-10.3-.4V550zm18.9-15.4c3.4 2.4 5.1 7.5 5.1 15.4 0 11.3-3.6 17-10.7 17H921v-34h3.3c1.8 0 4.3.7 5.6 1.6zM1088.8 537.6c-4.9 2.6-7.3 8.7-7.3 18.4 0 9.9 2 15.1 6.9 18.2 3.8 2.4 11.6 2 14.6-.7 2-1.8 2-1.7 2 1.7 0 1.9-.6 4.2-1.3 5.2-1.8 2.5-9.2 3.1-14.4 1.3l-4.3-1.5v4.4c0 2.3.5 4.6 1.1 4.9.6.4 4.5.9 8.8 1.2 6.3.5 8.5.2 12.2-1.4 7.6-3.4 8.3-5.9 8.7-31.1l.4-21.2h-5.1c-4.4 0-5.1.3-5.1 2 0 1.8-.2 1.8-3.6-.5-4.2-2.9-9.5-3.2-13.6-.9zm11.7 7c2.6 1 4.5 5.9 4.5 11.4 0 7.5-2.8 12-7.5 12-2.4 0-5.3-4-6-8.1-1.7-10 2.8-17.6 9-15.3zM955 541v4h20.1l-10.5 11.7c-9.6 10.5-10.6 12-10.6 15.5v3.8h33v-8h-10c-5.5 0-10-.3-10-.6s4.5-5.5 10-11.5c9.1-10.1 10-11.4 10-15V537h-32v4zM997 549.5c0 15.8 1.2 21.6 5.2 25 4.1 3.4 9.6 3.4 13.7-.1 3-2.5 3.1-2.5 3.1-.5 0 1.9.6 2.1 5 2.1h5v-39h-11v14.3c0 12.7-.2 14.6-1.8 16-2.3 2.1-4.6 2.2-6.6.1-1.3-1.3-1.6-4.2-1.6-16V537h-11v12.5zM1041 556.5V576h10v-13.5c0-12.3.2-13.7 2.1-15.6 1.1-1.1 3-1.9 4.2-1.7 3.7.5 4.7 4.3 4.7 18V576h10.2l-.4-15.9c-.3-14.3-.5-16.2-2.4-18.8-3.6-4.9-12.1-5.6-16.3-1.4-2.1 2.1-3.1 1.8-3.1-1.1 0-1.5-.8-1.8-4.5-1.8h-4.5v19.5zM1124 537.5c0 .4 2.7 4.4 6 9s6 8.6 6 9c0 .5-3.1 5.2-7 10.7l-7 9.9 6.2-.3 6.2-.3 3.7-6.3 3.6-6.4 3.7 6.6 3.7 6.6h12l-5.7-8.3c-3.2-4.5-6.4-9-7.2-10-1.6-1.8-1.8-1.5 8.6-16l3.4-4.7h-12.1l-3.1 5.6c-1.8 3-3.5 5.2-3.8 4.9-.4-.3-1.8-2.7-3.2-5.3-2.5-4.7-2.5-4.7-8.2-5-3.2-.2-5.8 0-5.8.3zM691 624c-1.1 1.1-2 3.3-2 5 0 2.8-.3 3-3.5 3-2.4 0-3.5.5-3.5 1.5s1.1 1.5 3.5 1.5h3.5v10.5c0 9.8.1 10.5 2 10.5s2-.7 2-10.5V635h4c2.9 0 4-.4 4-1.5s-1.1-1.5-4.1-1.5c-3.8 0-4-.1-3.7-2.8.3-2.3.8-2.7 4.1-3 2.9-.3 3.7-.7 3.7-2.3 0-2.7-7.2-2.7-10 .1zM1226 624c-1.1 1.1-2 3.3-2 5 0 2.7-.3 3-3 3-2 0-3 .5-3 1.5s1 1.5 3 1.5h3v10.5c0 9.8.1 10.5 2 10.5s2-.7 2-10.5V635h4c2.9 0 4-.4 4-1.5s-1.1-1.5-4.1-1.5c-3.8 0-4-.1-3.7-2.8.3-2.3.8-2.7 4.1-3 2.9-.3 3.7-.7 3.7-2.3 0-2.7-7.2-2.7-10 .1zM389 639.5c0 15.8.1 16.5 2 16.5 1.8 0 2-.7 2-8.3 0-9 1.3-11.7 5.6-11.7 3.6 0 4.4 2 4.4 11.2 0 8.1.2 8.8 2 8.8 1.9 0 2-.7 2-9.1 0-8.6-.9-12.5-3.4-14.1-1.9-1.3-6-.9-8.4.8l-2.2 1.5v-6c0-5.4-.2-6.1-2-6.1-1.9 0-2 .7-2 16.5zM737 624.5c0 1 1 1.5 3 1.5h3v13c0 11.7.2 13.2 2 15 1.3 1.3 3.3 2 6 2 3.3 0 4-.3 4-2 0-1.5-.7-2-2.8-2-4.8 0-5.2-1.3-5.2-15.7V623h-5c-3.8 0-5 .4-5 1.5zM763 624.5c0 1 1.1 1.5 3.5 1.5h3.5v13c0 11.7.2 13.2 2 15 1.3 1.3 3.3 2 6 2 3.3 0 4-.3 4-2 0-1.6-.7-2-3.5-2-4.8 0-5.5-2.2-5.5-17.1V623h-5c-3.8 0-5 .4-5 1.5zM951 624.5c0 1 1 1.5 3 1.5h3v13c0 11.7.2 13.2 2 15 1.3 1.3 3.3 2 6 2 3.3 0 4-.3 4-2 0-1.5-.7-2-2.8-2-4.8 0-5.2-1.3-5.2-15.7V623h-5c-3.8 0-5 .4-5 1.5zM1072 629.5v6.5l-2-2c-2.4-2.4-6.7-2.6-9.7-.5-5 3.5-5.4 15.5-.8 20.1 3 3 7.8 3.1 10.5.4l2-2v2c0 1.3.7 2 2 2 1.9 0 2-.7 2-16.5s-.1-16.5-2-16.5c-1.8 0-2 .7-2 6.5zm-1.6 8.7c3.7 5.2.9 13.8-4.3 13.8-3.9 0-5.6-2.4-5.6-8 0-2.6.6-5.4 1.4-6.3 2-2.5 6.7-2.1 8.5.5zM1138 639.5c0 15.8.1 16.5 2 16.5 1.8 0 2-.7 2-7.8 0-9.1 1.6-12.5 5.8-12 3.7.4 5.2 4 5.2 12.5 0 5.8.3 7.3 1.5 7.3s1.5-1.8 1.5-10c0-11.3-1.4-14-7-14-1.7 0-3.9.9-5 2l-2 2v-6.5c0-5.8-.2-6.5-2-6.5-1.9 0-2 .7-2 16.5zM1393 629.5v6.5l-2-2c-2.4-2.4-6.7-2.6-9.7-.5-5 3.5-5.4 15.5-.8 20.1 3 3 7.8 3.1 10.5.4l2-2v2c0 1.3.7 2 2 2 1.9 0 2-.7 2-16.5s-.1-16.5-2-16.5c-1.8 0-2 .7-2 6.5zm-1.6 8.7c3.7 5.2.9 13.8-4.3 13.8-3.9 0-5.6-2.4-5.6-8 0-2.6.6-5.4 1.4-6.3 2-2.5 6.7-2.1 8.5.5zM1010.8 625.1c-1.1.6-1.8 2.2-1.8 3.9 0 2.7-.3 3-3 3-2 0-3 .5-3 1.5s1 1.5 3 1.5h3v7.6c0 10.9 1.6 13.4 8.8 13.4 3.5 0 4.2-.3 4.2-2 0-1.6-.7-2-3.3-2-4.8 0-5.7-1.5-5.7-9.7V635h4.5c3.3 0 4.5-.4 4.5-1.5s-1.2-1.5-4.4-1.5h-4.5l-.3-3.9c-.3-3.5-.5-3.8-2-3zM1117.8 625.1c-1.1.6-1.8 2.2-1.8 3.9 0 2.7-.3 3-3 3-2 0-3 .5-3 1.5s1 1.5 3 1.5h3v7.6c0 10.9 1.6 13.4 8.8 13.4 3.5 0 4.2-.3 4.2-2 0-1.6-.7-2-3.3-2-4.8 0-5.7-1.5-5.7-9.7V635h4.5c3.3 0 4.5-.4 4.5-1.5s-1.2-1.5-4.4-1.5h-4.5l-.3-3.9c-.3-3.5-.5-3.8-2-3zM1330.4 625.9c-4.4 2.7-6.9 9.4-6.1 16.5.6 6.2 2.8 10.1 6.8 12.2 5.3 2.7 12.9 1.2 12.9-2.5 0-1.7-.4-1.8-3.4-.9-7.6 2.4-11.9-1.7-11.9-11.2s4.3-13.6 11.9-11.2c3 .9 3.4.8 3.4-.9 0-4-8.3-5.3-13.6-2zM1437.4 625.9c-4.4 2.7-6.9 9.4-6.1 16.5.6 6.2 2.8 10.1 6.8 12.2 5.3 2.7 12.9 1.2 12.9-2.5 0-1.7-.4-1.8-3.4-.9-7.6 2.4-11.9-1.7-11.9-11.2s4.3-13.6 11.9-11.2c3 .9 3.4.8 3.4-.9 0-4-8.3-5.3-13.6-2zM418.3 633c-1.3.5-2.3 1.8-2.3 2.9 0 1.8.3 1.9 2.6 1.1 5.5-2.1 11.4-.7 11.4 2.7 0 .9-1.5 1.3-4.5 1.3-10.1 0-14.9 6.7-9 12.5 2.8 2.9 7.2 3.2 11.5 1 2.7-1.4 3-1.4 3 0 0 .8.9 1.5 1.9 1.5 1.8 0 1.9-.6 1.4-8.3-.2-4.5-.6-9.2-.9-10.4-.8-4.3-9.3-6.6-15.1-4.3zm11.7 13c0 2.9-3.5 6-6.8 6-3.2 0-5.2-1.6-5.2-4.2 0-2.4 2.7-3.7 7.8-3.8 3.5 0 4.2.3 4.2 2zM446.5 633.2c-2.7 1.5-3.5 2.8-3.5 6s2.7 5.3 8.3 6.4c4.2.7 5.6 2.6 3.7 4.9-1.4 1.7-5.7 1.9-9.4.5-2.3-.9-2.6-.7-2.6 1.5 0 2.1.6 2.5 4.4 3 8.2 1.3 13.8-2.8 12.2-8.8-.5-2.3-1.6-3-6.7-4.4-5.1-1.4-5.9-2-5.7-3.7.3-1.9.9-2.1 6.1-2 4.1.1 5.7-.2 5.7-1.2 0-3.1-8.4-4.6-12.5-2.2zM498.5 634.5c-4.6 4.5-2.2 9.7 5.2 10.8 2.2.4 4.6 1.4 5.4 2.3 2.7 3.3-4.5 5.7-10.5 3.4-2.3-.8-2.6-.7-2.6 1 0 3.5 8.1 5.3 13.4 2.9 1.3-.7 3-2.4 3.7-4 1.7-4.3-.7-7.4-7.1-8.9-5.7-1.4-6.7-2.4-4.9-4.7 1-1.2 2.5-1.4 6.1-1 4.2.5 4.8.4 4.8-1.2 0-3.8-9.9-4.3-13.5-.6zM523 642c0 8.7.3 10.3 2 12 2.6 2.6 7 2.6 9.8 0l2.2-2.1v2.1c0 1.3.7 2 2 2 1.9 0 2-.7 2-12s-.1-12-2-12c-1.8 0-2 .7-2 7.8 0 8.7-1.6 12.2-5.5 12.2s-5.5-3.5-5.5-12.2c0-6.3-.3-7.8-1.5-7.8s-1.5 1.8-1.5 10zM554.1 633.4c-3.3 1.8-5 5.3-5.1 10.4 0 7.7 4 12.2 11.1 12.2 4.1 0 6.9-1.7 6.9-4.1 0-1.6-.3-1.8-1.9-.9-6 3.2-12.1-.3-12.1-7s6.1-10.2 12.1-7c1.6.9 1.9.7 1.9-.9 0-3.9-7.9-5.5-12.9-2.7zM580.3 634c-4.1 2.5-5.9 8.2-4.3 14 1.8 6.5 8.6 9.6 15.4 7 1.6-.6 2.6-1.7 2.6-3 0-1.7-.3-1.9-1.9-1-3 1.6-7.6 1.2-10.2-.9-1.8-1.4-2.4-2.9-2.4-6.1 0-3.2.6-4.7 2.4-6.1 2.6-2.1 7.2-2.5 10.2-.9 1.6.9 1.9.7 1.9-1 0-4-8.4-5.3-13.7-2zM607.4 633c-7.6 3-8.2 16.7-1 21.1 5.3 3.2 14.6 2 14.6-2.1 0-1.7-.3-1.8-2.6-1-4.4 1.7-8.3 1.2-10.9-1.5-4-3.9-3.2-4.5 6-4.5h8.5v-3.6c0-7-7.5-11.3-14.6-8.4zm8.7 4c1 .6 1.9 2 1.9 3 0 1.8-.7 2-6.6 2-6.8 0-7-.3-3.6-4.3 1.7-1.9 5.3-2.2 8.3-.7zM632.6 634.1c-2.9 2.3-3.5 6.9-1.2 8.8.8.7 3.6 1.8 6.3 2.4 3.7.9 4.9 1.7 5.1 3.4.4 2.9-3.6 4-9 2.6-3.4-.9-3.8-.8-3.8.9 0 4 10 5.2 14.4 1.7 2.2-1.7 2.7-2.8 2.4-5.8-.3-3.4-.6-3.7-6.3-5.7-6.6-2.3-8.3-4.9-4.1-6 1.5-.3 4.2-.3 6.1 0 3 .6 3.5.4 3.5-1.2 0-3.6-9.2-4.4-13.4-1.1zM660.5 633.2c-2.7 1.5-3.5 2.8-3.5 6s2.7 5.3 8.3 6.4c4.2.7 5.6 2.6 3.7 4.9-1.4 1.7-5.7 1.9-9.4.5-2.3-.9-2.6-.7-2.6 1.5 0 2.1.6 2.5 4.4 3 8.2 1.3 13.8-2.8 12.2-8.8-.5-2.3-1.6-3-6.7-4.4-5.1-1.4-5.9-2-5.7-3.7.3-1.9.9-2.1 6.1-2 4.1.1 5.7-.2 5.7-1.2 0-3.1-8.4-4.6-12.5-2.2zM710 641.4c0 7.9.3 9.7 2.1 12 2.5 3.2 6.6 3.4 10.3.5l2.6-2v2c0 1.2.6 2.1 1.5 2.1 1.3 0 1.5-2 1.5-12s-.2-12-1.5-12c-1.2 0-1.5 1.4-1.5 6.4 0 8.3-1.5 12.4-4.8 13.3-4.7 1.1-5.7-.5-6-10.6-.2-8.3-.5-9.1-2.2-9.1-1.8 0-2 .7-2 9.4zM792.6 642.6c2.4 5.8 4.4 11.6 4.4 12.8 0 2.6-2.9 5.6-5.3 5.6-1 0-1.7.8-1.7 2 0 2.6 5 2.7 7.4.2.9-1.1 4.3-8.5 7.5-16.5 5.7-14 5.8-14.7 3.7-14.7-1.8 0-2.7 1.4-5.5 9-1.8 4.9-3.4 9-3.6 9-.1 0-1.7-4.1-3.6-9-2.8-7.6-3.7-9-5.5-9-2.2 0-2.2.3 2.2 10.6zM849.3 633c-1.3.5-3.2 2.4-4.3 4.2-5.1 8.3.3 18.8 9.5 18.8 3.6 0 7.5-2.1 7.5-4 0-1.5-.5-1.6-4.1-.6-4.9 1.3-8.9-.5-10.3-4.7-1.3-3.6.2-7.7 3.6-9.6 2.2-1.2 3.5-1.3 6.7-.5 3.6 1 4.1.9 4.1-.6 0-3.2-7.6-5-12.7-3zM874.4 633.2c-3.1 1.5-4.9 5.4-4.9 10.8 0 7.7 3.6 12 10 12s10-4.3 10-12c0-2.6-.6-5.8-1.4-7.2-2.3-4.4-8.7-6-13.7-3.6zm8 3.4c4.6 1.8 3.9 13.8-.9 15-5.9 1.5-9.8-4.2-7.5-11 1.4-4.3 4.2-5.6 8.4-4zM895 644c0 11.3.1 12 2 12s2-.7 2-9.5c0-8 .3-9.7 1.6-10.2 3-1.1 4.4 2.5 4.4 11.4 0 6.7.3 8.3 1.5 8.3s1.5-1.6 1.5-8.4c0-9.7.5-11.6 3-11.6s3 1.9 3 11.6c0 6.8.3 8.4 1.5 8.4 2.3 0 2.2-20.2-.1-22.4-2-2-4.8-2-6.4-.1-1.2 1.4-1.5 1.4-3 0-2-1.8-4.2-1.9-5.8-.3-.9.9-1.2.9-1.2 0 0-.7-.9-1.2-2-1.2-1.9 0-2 .7-2 12zM924 648.5c0 15.8.1 16.5 2 16.5 1.8 0 2-.7 2-6.1v-6l2.2 1.5c3.4 2.4 6.6 1.9 9.9-1.3 2.6-2.6 2.9-3.6 2.9-9.1s-.3-6.5-2.9-9.1c-3.3-3.2-6.5-3.7-9.9-1.3-2 1.4-2.3 1.4-2.8 0-.3-.9-1.2-1.6-2-1.6-1.1 0-1.4 3.1-1.4 16.5zm12.8-11.7c2 1.3 3.2 6.8 2.1 10.4-2.3 8.1-10.9 5.6-10.9-3.2 0-6.2 4.5-9.9 8.8-7.2zM980.8 634c-5.5 4.3-6.3 14-1.5 18.8 4.5 4.4 16.7 3.9 16.7-.8 0-1.7-.3-1.8-2.6-1-6.1 2.4-13.4-.1-13.4-4.5 0-1.2 1.6-1.5 8.6-1.5h8.7l-.6-4.2c-1.1-7.9-9.8-11.6-15.9-6.8zm10.6 3.6c3.3 3.2 2 4.4-4.9 4.4s-7.8-.7-4.5-4c2.4-2.4 7.2-2.6 9.4-.4zM1035.1 633.4c-3.4 1.9-5 5.4-5.1 10.9 0 5.8 1.1 8.2 5 10.2 5.4 2.8 15 1.1 15-2.7 0-1.5-.4-1.8-1.7-1.3-1 .4-3.7 1-6 1.2-3.5.5-4.5.1-6.7-2-1.4-1.4-2.6-3.1-2.6-3.7 0-.6 3.4-1 9-1h9l-.6-3.3c-.3-1.7-1-4.2-1.6-5.3-2-4.1-8.9-5.6-13.7-3zm10.3 4.8c.9 1.2 1.6 2.6 1.6 3 0 .5-2.9.8-6.5.8-7.1 0-8.5-1.5-4.3-4.4 3.3-2.3 7.4-2 9.2.6zM1169.4 633c-7.6 3-8.2 16.7-1 21.1 5.3 3.2 14.6 2 14.6-2.1 0-1.7-.3-1.8-2.6-1-4.4 1.7-8.3 1.2-10.9-1.5-4-3.9-3.2-4.5 6-4.5h8.5v-3.6c0-7-7.5-11.3-14.6-8.4zm8.7 4c1 .6 1.9 2 1.9 3 0 1.8-.7 2-6.6 2-6.8 0-7-.3-3.6-4.3 1.7-1.9 5.3-2.2 8.3-.7zM1247 644c0 11.1.1 12 1.9 12 1.7 0 1.9-.9 2.3-8.1.3-7.2.6-8.3 2.8-10.1 1.9-1.5 3.4-1.9 6.3-1.5 3.5.5 3.8.3 3.5-1.6-.5-3.4-7-3.6-10.3-.3l-2.5 2.5v-2.4c0-1.8-.5-2.5-2-2.5-1.9 0-2 .7-2 12zM1276.4 633c-7.6 3-8.2 16.7-1 21.1 5.3 3.2 14.6 2 14.6-2.1 0-1.7-.3-1.8-2.6-1-4.4 1.7-8.3 1.2-10.9-1.5-4-3.9-3.2-4.5 6-4.5h8.5v-3.6c0-7-7.5-11.3-14.6-8.4zm8.7 4c1 .6 1.9 2 1.9 3 0 1.8-.7 2-6.6 2-6.8 0-7-.3-3.6-4.3 1.7-1.9 5.3-2.2 8.3-.7zM1301.8 634c-5.5 4.3-6.3 14-1.5 18.8 4.5 4.4 16.7 3.9 16.7-.8 0-1.7-.3-1.8-2.6-1-6.1 2.4-13.4-.1-13.4-4.5 0-1.2 1.6-1.5 8.6-1.5h8.7l-.6-4.2c-1.1-7.9-9.8-11.6-15.9-6.8zm10.6 3.6c3.3 3.2 2 4.4-4.9 4.4s-7.8-.7-4.5-4c2.4-2.4 7.2-2.6 9.4-.4zM1353.9 634.9c-2.6 2.6-2.9 3.6-2.9 9.1s.3 6.5 2.9 9.1c2.3 2.3 3.8 2.9 7.1 2.9s4.8-.6 7.1-2.9c2.6-2.6 2.9-3.6 2.9-9.1s-.3-6.5-2.9-9.1c-2.3-2.3-3.8-2.9-7.1-2.9s-4.8.6-7.1 2.9zm11.5 3.3c.9 1.2 1.6 3.8 1.6 5.8 0 4.8-2.4 8-6 8s-6-3.2-6-8 2.4-8 6-8c1.8 0 3.4.8 4.4 2.2zM1408.8 634c-5.5 4.3-6.3 14-1.5 18.8 4.5 4.4 16.7 3.9 16.7-.8 0-1.7-.3-1.8-2.6-1-6.1 2.4-13.4-.1-13.4-4.5 0-1.2 1.6-1.5 8.6-1.5h8.7l-.6-4.2c-1.1-7.9-9.8-11.6-15.9-6.8zm10.6 3.6c3.3 3.2 2 4.4-4.9 4.4s-7.8-.7-4.5-4c2.4-2.4 7.2-2.6 9.4-.4zM1462.3 633c-1.3.5-2.3 1.6-2.3 2.4 0 1.2 1.1 1.3 5.3.9 4.2-.4 5.7-.2 7 1.2 2.7 2.7 2.1 3.2-4.3 3.7-7 .5-10 2.6-10 7.2 0 3.7.7 4.9 3.7 6.5 2.9 1.5 6.2 1.4 9.6-.4 2.4-1.2 2.9-1.2 3.4 0 .3.8 1.3 1.5 2.2 1.5 1.4 0 1.5-1.1 1-9.6-.5-7.7-1-10-2.6-11.6-2.4-2.3-9.6-3.3-13-1.8zm11.7 12.4c0 2.4-4.1 6.6-6.5 6.6-3.8 0-5.5-1.1-5.5-3.6 0-3 2.4-4.3 7.8-4.4 2.9 0 4.2.4 4.2 1.4zM1484 644c0 9.6.3 12 1.4 12 1.1 0 1.5-2.1 1.8-9 .3-9.1 1.4-11.8 4.2-10.7 1.3.5 1.6 2.4 1.6 10.2 0 8.8.1 9.5 2 9.5 1.8 0 2-.8 2.2-9.8.3-8.9.5-9.7 2.3-9.7 1.8 0 2 .8 2.3 9.7.2 9 .4 9.8 2.2 9.8 1.8 0 2-.7 2-9.3 0-5.4-.6-10.2-1.3-11.7-1.5-2.9-4.9-3.8-6.9-1.7-1.1 1.3-1.5 1.3-3.1-.1-1.5-1.3-2.3-1.4-4.8-.5-1.6.6-2.9.7-2.9.2 0-.5-.7-.9-1.5-.9-1.2 0-1.5 2-1.5 12zM1512 648.5c0 15.8.1 16.5 2 16.5 1.8 0 2-.7 2-6.5V652l2 2c5.6 5.6 14-.3 14-10s-8.4-15.6-14-10l-2 2v-2c0-1.3-.7-2-2-2-1.9 0-2 .7-2 16.5zm14.4-10.3c3.5 4.9.9 13.8-3.9 13.8-4.3 0-7.4-5.3-6.1-10.4 1.4-5.6 7.2-7.5 10-3.4zM1567.9 634.9c-2.6 2.6-2.9 3.6-2.9 9.1s.3 6.5 2.9 9.1c2.3 2.3 3.8 2.9 7.1 2.9s4.8-.6 7.1-2.9c2.6-2.6 2.9-3.6 2.9-9.1s-.3-6.5-2.9-9.1c-2.3-2.3-3.8-2.9-7.1-2.9s-4.8.6-7.1 2.9zm11.5 3.3c.9 1.2 1.6 3.8 1.6 5.8 0 4.8-2.4 8-6 8s-6-3.2-6-8 2.4-8 6-8c1.8 0 3.4.8 4.4 2.2zM1595 644c0 11.3.1 12 2 12 1.8 0 2-.7 2-7.4 0-6 .4-7.8 2.2-10.1 1.9-2.4 2.6-2.7 6.5-2.2 3.6.4 4.3.2 4.3-1.3 0-3.7-7-4.1-10.5-.5l-2.5 2.4v-2.4c0-1.8-.5-2.5-2-2.5-1.9 0-2 .7-2 12zM1621.9 634.9c-2.6 2.6-2.9 3.6-2.9 9.1s.3 6.5 2.9 9.1c3.3 3.2 6.5 3.7 9.9 1.3 2.1-1.4 2.2-1.4 2.2 1 0 4.1-2.7 5.9-8.2 5.4-4.1-.4-4.8-.2-4.8 1.2 0 2.9 7.6 4 12.3 1.9 3.9-1.8 4.7-5 4.7-18.4 0-10.1-.3-12.5-1.4-12.5-.8 0-1.6.5-1.8 1.2-.3.8-1.1.7-2.8-.5-3.6-2.5-6.8-2.1-10.1 1.2zm10.3 2.8c2.4 2.1 2.5 9.9.1 12.5-3.9 4.4-9.3.9-9.3-6 0-7.2 4.7-10.6 9.2-6.5zM1545.4 650.4c-1.1 2.8.1 5.1 2.5 5.1 3.2 0 4.9-2.8 3.2-4.9-1.7-2-5-2.1-5.7-.2zM878 696v6h10v-12h-10v6zM1349 696v6h10v-12h-10v6zM1125 718v27h5c4.8 0 5-.1 5-2.8v-2.7l1.8 2.1c6.8 8.4 18.4 4.5 21.8-7.4 4.1-13.9-2.3-28.2-12.6-28.2-3.5 0-8.6 2.3-9.3 4.2-.3.7-.6-3.3-.6-9l-.1-10.2h-11v27zm21.9-1.4c1.7 2.1 2.1 4.1 2.1 9.4 0 7.7-2.3 12-6.5 12s-6.5-4.3-6.5-12 2.3-12 6.5-12c1.4 0 3.2 1.1 4.4 2.6zM568 719v26h11v-10c0-9.8 0-10 2.3-10 3.3 0 6 3.2 10.2 12.2l3.7 7.8h5.4c3 0 5.4-.3 5.4-.8 0-.4-2.7-5.9-6.1-12.2-3.9-7.6-5.5-11.6-4.7-11.9 2.6-.9 5.7-5 6.3-8.5 1.6-8.1-2.5-15.7-9.3-17.6-2-.5-8.3-1-13.9-1H568v26zm20.8-15.4c1.6 1.1 2.2 2.5 2.2 5.4 0 4.7-2.7 7-8.2 7H579v-14h3.8c2.1 0 4.8.7 6 1.6zM1035 694.7c0 1 1.4 12.4 3 25.3s3 23.8 3 24.2c0 .5 2.2.8 4.9.8h4.8l2.3-11.8c1.3-6.4 2.6-12.1 3-12.5.3-.4 1.7 4.3 3 10.5s2.5 11.9 2.8 12.5c.2.8 2.3 1.3 5.3 1.3 4.4 0 4.9-.2 4.9-2.3.1-1.2 1.3-12.9 2.9-26l2.7-23.7h-9.3l-1.4 18.7-1.4 18.8-2.5-11.8-2.4-11.7h-4.3c-4.8 0-4.4-.7-6.9 13-.9 5.2-1.8 9-2 8.5-.3-1-3.4-32.4-3.4-34.4 0-.6-1.8-1.1-4.5-1.1-3.6 0-4.5.3-4.5 1.7zM1211 719v26h8.3c10.1 0 14.8-1.2 19.2-5.1 4.9-4.3 7-10.6 7-20.9 0-10.3-2.1-16.6-7-20.9-4.4-3.9-9.1-5.1-19.2-5.1h-8.3v26zm20-14.2c2.1 2.2 3 4.2 3.5 8.5 1.7 13.8-2.1 22.7-9.9 22.7h-3.6v-34h3.6c2.6 0 4.3.8 6.4 2.8zM1388.3 707c-4.7 2.8-6.6 7.3-7.1 16.6-.4 6.6-.1 8.9 1.6 12.7 3.6 8 11.9 11 19 6.7l3.2-2v3.4c0 6.6-7.3 9.4-16.3 6.2l-3.8-1.4.3 4.6c.3 4.3.5 4.6 3.8 5.5 5.8 1.5 16.5.4 19.7-1.9 5.8-4.2 6.3-6.8 6.3-30.2V706h-4.4c-3.7 0-4.6.4-5.1 2.1-.4 1.2-1 1.7-1.4 1.2-3-4.4-10.6-5.5-15.8-2.3zm13.2 7.7c3.8 3.7 4.7 12.1 1.9 17.9-2.6 5.5-8.1 5.7-10.9.4-2.9-5.6-1.2-17.8 2.7-19.3 2.5-1 4.7-.7 6.3 1zM619.4 707.9c-7.9 3.6-11.8 13.3-9.5 23.6 2.8 12.3 14.8 17.5 29.9 13l5.2-1.6v-4.5c0-4-.2-4.5-1.7-3.9-9.1 3.9-14.6 4.4-19.2 2-2.8-1.4-4.1-3.3-4.1-6.1 0-1.1 2.5-1.4 13.1-1.4h13.2l-.6-6c-.3-3.5-1.4-7.4-2.6-9.4-4.3-6.9-15.3-9.5-23.7-5.7zm14.5 8.7c1.2 1.5 2.1 3.1 2.1 3.5 0 .5-3.6.9-8 .9-8.9 0-10.2-1.2-5.4-4.9 3.8-3 8.7-2.8 11.3.5zM662.3 707.9c-4.8 2.2-6.5 4.9-6.7 10.4-.1 5.1 4 8.9 11.5 10.7 6.3 1.4 9.9 3.4 9.9 5.5 0 3.5-8.3 4.6-15.5 2-5.5-2-5.5-2-5.5 2.8v4.4l5.1 1.1c10.9 2.5 20.1.9 23.5-4.2 2.4-3.7 2.3-9.9-.2-13.2-1.9-2.6-4-3.6-14.2-6.3-2.4-.7-4.6-1.9-4.9-2.8-1.5-3.9 7.5-5.7 14.4-2.8 1.9.8 3.7 1.5 3.9 1.5.2 0 .4-2 .4-4.3 0-4.2-.1-4.4-3.9-5.5-5.6-1.7-13-1.4-17.8.7zM697 733v27h11v-18l3.3 2c9.4 5.8 18.9-1.1 20.3-14.7 1.7-16.1-8.6-27.5-19.6-21.8-1.6.8-3.4 2.3-3.9 3.2-.9 1.5-1 1.2-1.1-1.5 0-3.2 0-3.2-5-3.2h-5v27zm21.9-16.4c1.7 2.1 2.1 4.1 2.1 9.4 0 7.7-2.3 12-6.5 12s-6.5-4.3-6.5-12 2.3-12 6.5-12c1.4 0 3.2 1.1 4.4 2.6zM748.4 707.9c-7.7 3.5-11.8 13.4-9.6 23.2 1.6 6.7 4.5 10.7 9.6 13 8.9 4 19 1 23.3-7.1 3.2-6 3.2-15.8.1-22-4.1-8-14.4-11.2-23.4-7.1zM760 715c5.9 3.2 4.9 21-1.4 22.6-5.9 1.5-9.6-2.9-9.6-11.6 0-9.5 4.8-14.3 11-11zM784 725.5V745h10v-13.5c0-12.3.2-13.7 2.1-15.6 1.1-1.1 3-1.9 4.2-1.7 3.7.5 4.7 4.3 4.7 18V745h10.2l-.4-15.9c-.3-14.3-.5-16.2-2.4-18.8-3.6-4.9-12.1-5.6-16.3-1.4-2.1 2.1-3.1 1.8-3.1-1.1 0-1.5-.8-1.8-4.5-1.8H784v19.5zM833.5 707.9c-4.5 2-6.5 5.3-6.5 10.7 0 5.2 4.1 8.9 11.6 10.4 7.4 1.5 9.4 2.6 9.4 5 0 4-7.8 5.2-15.5 2.5-5.5-2-5.5-2-5.5 2.5 0 3.5.4 4.2 2.8 5.1 4.4 1.7 15.5 2.3 19.4 1 5.7-1.9 8.3-5.4 8.3-11.3 0-4.3-.4-5.3-3.1-7.7-2-1.8-5.2-3.2-9.2-4.1-3.4-.7-6.8-2-7.7-3-3.8-4.2 5.5-6.7 13.2-3.5 1.9.8 3.7 1.5 3.9 1.5.2 0 .4-2 .4-4.5 0-4.2-.1-4.4-3.7-5.4-5.7-1.6-13.3-1.3-17.8.8zM870 710v4h8v10c0 10.8 1.2 15.1 5 18.5 1.8 1.6 3.9 2.1 11.1 2.3l8.9.4V737h-5.3c-8.8 0-9.1-.5-9.5-16.9l-.4-14.1H870v4zM910.4 710.2c.7 2.4 3.5 11.2 6.1 19.5l4.8 15.3h12.5l2.1-6.3c2.1-6.6 8.4-26.7 9.6-30.5.6-2.1.4-2.2-4.4-2.2h-5l-1.5 5.2c-4.9 17.2-6.6 23.1-6.9 23.5-.4.4-6.1-19.6-7.3-25.5-.6-3.1-.8-3.2-6-3.2h-5.3l1.3 4.2zM963.5 707.1c-3.8 1.1-8.9 6.4-10.4 10.8-1.6 5-1.3 13.1.8 17.7 3.5 7.7 10.3 11 21 10.1 3.6-.2 7.8-1 9.4-1.6 2.4-.9 2.7-1.6 2.7-5.4v-4.4l-5.7 2c-7.7 2.5-13.9 1.9-17-1.8-4.4-5.1-3.6-5.5 11.2-5.5H989v-2.8c0-8.4-5-16.7-11.3-19.1-3.3-1.3-9.9-1.3-14.2 0zm12.3 8.5c1.2.8 2.2 2.4 2.2 3.5 0 1.7-.7 1.9-7.9 1.9-7.5 0-7.9-.1-7.4-2 1.2-4.6 8.6-6.6 13.1-3.4zM1090.4 707.9c-7.9 3.6-11.8 13.3-9.5 23.6 2.8 12.3 14.8 17.5 29.9 13l5.2-1.6v-4.5c0-4-.2-4.5-1.7-3.9-9.1 3.9-14.6 4.4-19.2 2-2.8-1.4-4.1-3.3-4.1-6.1 0-1.1 2.5-1.4 13.1-1.4h13.2l-.6-6c-.3-3.5-1.4-7.4-2.6-9.4-4.3-6.9-15.3-9.5-23.7-5.7zm14.5 8.7c1.2 1.5 2.1 3.1 2.1 3.5 0 .5-3.6.9-8 .9-8.9 0-10.2-1.2-5.4-4.9 3.8-3 8.7-2.8 11.3.5zM1261.1 708.2c-6.1 3.3-9.1 9-9.1 17.4 0 3.4.5 7.5 1.1 9.1 1.6 4.5 6.7 9 11.5 10.3 4.8 1.4 15.1.9 19.7-.9 2.4-.9 2.7-1.6 2.7-5.7 0-4-.2-4.5-1.7-3.9-9.1 3.9-14.6 4.4-19.2 2-2.8-1.4-4.1-3.3-4.1-6.1 0-1.1 2.4-1.4 13-1.4h13v-4.8c-.1-6.1-2.9-12.3-7.1-15.3-5-3.5-14-3.8-19.8-.7zm14.9 7.8c4 4 2.7 5-6 5s-9.5-.6-5.5-4.5c3.1-3.2 8.6-3.4 11.5-.5zM1304.3 707.9c-4.8 2.2-6.5 4.9-6.7 10.4-.1 5.1 4 8.9 11.5 10.7 6.3 1.4 9.9 3.4 9.9 5.5 0 3.5-8.3 4.6-15.5 2-5.5-2-5.5-2-5.5 2.8v4.4l5.1 1.1c10.9 2.5 20.1.9 23.5-4.2 2.4-3.7 2.3-9.9-.2-13.2-1.9-2.6-4-3.6-14.2-6.3-2.4-.7-4.6-1.9-4.9-2.8-1.5-3.9 7.5-5.7 14.4-2.8 1.9.8 3.7 1.5 3.9 1.5.2 0 .4-2 .4-4.3 0-4.2-.1-4.4-3.9-5.5-5.6-1.7-13-1.4-17.8.7zM1341 710v4h8v10c0 10.8 1.2 15.1 5 18.5 1.8 1.6 3.9 2.1 11.1 2.3l8.9.4V737h-5.3c-8.8 0-9.1-.5-9.5-16.9l-.4-14.1H1341v4zM1426 725.5V745h10v-12.6c0-14.6 1.3-18.3 6.2-18.4 4.1 0 4.8 2.5 4.8 17.1V745h10v-14.5c0-15.7-.9-19.9-5.1-22.9-3.6-2.5-9.2-2.1-12.8 1l-3 2.5-.7-2.5c-.5-2.3-1.1-2.6-5-2.6h-4.4v19.5zM418 814.5c0 .9.9 1.5 2.5 1.5h2.5v10.8c0 12.2.9 14.2 6.8 14.2 4.4 0 4.3-2.8 0-3.2l-3.3-.3-.3-12.3-.3-12.2H422c-2.9 0-4 .4-4 1.5zM659.7 814.8c-1 1-1.7 2.8-1.7 4 0 1.7-.6 2.2-2.5 2.2-1.6 0-2.5.6-2.5 1.5s.9 1.5 2.5 1.5c2.5 0 2.5.1 2.5 8.5 0 6.9.3 8.5 1.5 8.5s1.5-1.6 1.5-8.5V824h3.5c2.4 0 3.5-.5 3.5-1.5 0-1.1-1.1-1.5-3.6-1.5-3.1 0-3.5-.3-3.2-2.3.2-1.7 1.1-2.3 3.6-2.5 2-.2 3.2-.9 3.2-1.8 0-2.1-6.3-1.8-8.3.4zM1380 814.5c0 .9.9 1.5 2.5 1.5 2.5 0 2.5.1 2.5 8.3 0 8.8 1.2 14.6 3.2 15.9 2.3 1.4 6.8.9 6.8-.7 0-.9-.9-1.5-2.5-1.5-3.6 0-4.5-3.2-4.5-15.1V813h-4c-2.9 0-4 .4-4 1.5zM1686.6 814.6c-.9.8-1.6 2.6-1.6 4 0 1.9-.5 2.4-2.5 2.4-1.6 0-2.5.6-2.5 1.5s.9 1.5 2.5 1.5c2.5 0 2.5.1 2.5 8.5 0 6.9.3 8.5 1.5 8.5s1.5-1.6 1.5-8.5V824h3.5c2.4 0 3.5-.5 3.5-1.5 0-1.1-1.1-1.5-3.6-1.5-3.1 0-3.5-.3-3.2-2.3.2-1.7 1.1-2.3 3.6-2.5 2-.2 3.2-.9 3.2-1.8 0-2-6.4-1.9-8.4.2zM331 827.5V841h4.5c8.7 0 12.5-3.9 12.5-12.9 0-10.1-3.6-14.1-12.5-14.1H331v13.5zm10.9-8.6c2.5 2.5 3.4 8.2 2.1 13.1-1.1 4.1-3.3 6-6.9 6-2 0-2.1-.6-2.1-10.5V817h2.5c1.4 0 3.3.8 4.4 1.9zM549.7 816.1c-5.6 4.3-6 16.8-.7 22.1 3.7 3.7 12 3.9 12 .3 0-.9-1.1-1.2-3.8-.8-5.4.7-8.2-2.8-8.2-10.2 0-7.4 2.8-10.9 8.2-10.2 2.7.4 3.8.1 3.8-.8 0-3.1-7.6-3.4-11.3-.4zM637 816c0 1.1.7 2 1.5 2s1.5-.9 1.5-2-.7-2-1.5-2-1.5.9-1.5 2zM680 816c0 1.1.7 2 1.5 2s1.5-.9 1.5-2-.7-2-1.5-2-1.5.9-1.5 2zM744.3 814.7c-.7.3-1.3 1.8-1.3 3.4 0 2.4-.4 2.9-2.5 2.9-1.6 0-2.5.6-2.5 1.5s.9 1.5 2.5 1.5c2.4 0 2.5.2 2.5 6.9 0 8.1 1.3 10.1 6.6 10.1 4.6 0 4.7-2.7.2-3.2l-3.3-.3-.3-6.8-.3-6.7h3.6c2.4 0 3.5-.4 3.5-1.5 0-1-1-1.5-3.4-1.5-3.2 0-3.5-.3-3.8-3.3-.2-2.2-.7-3.2-1.5-3zM765 816c0 1.3.7 2 2 2s2-.7 2-2-.7-2-2-2-2 .7-2 2zM1065 816c0 1.1.7 2 1.5 2s1.5-.9 1.5-2-.7-2-1.5-2-1.5.9-1.5 2zM1279 816c0 1.1.7 2 1.5 2s1.5-.9 1.5-2-.7-2-1.5-2-1.5.9-1.5 2zM1343.3 814.7c-.7.3-1.3 1.8-1.3 3.4 0 2.4-.4 2.9-2.5 2.9-1.6 0-2.5.6-2.5 1.5s.9 1.5 2.5 1.5c2.4 0 2.5.2 2.5 6.9 0 8.1 1.3 10.1 6.6 10.1 4.6 0 4.7-2.7.2-3.2l-3.3-.3-.3-6.8-.3-6.7h3.6c2.4 0 3.5-.4 3.5-1.5 0-1-1-1.5-3.4-1.5-3.2 0-3.5-.3-3.8-3.3-.2-2.2-.7-3.2-1.5-3zM1447.3 814.7c-1.3.2-2.3 1.1-2.3 2 0 1.2.7 1.4 3.5.9 4.9-.9 7.5 0 7.5 2.8s-1.8 4.6-4.7 4.6c-1.4 0-2.3.6-2.3 1.5s.9 1.5 2.4 1.5c2.9 0 5.6 2.4 5.6 5 0 4.2-6.3 6.5-11.1 4-1.6-.9-1.9-.7-1.9.8 0 3.6 9.2 4.4 13.4 1.1 3.3-2.6 3.6-7.9.6-10.7-1.9-1.8-1.9-1.8 0-3.5 2.7-2.3 2.5-5.3-.5-8.2-2.3-2.4-4.8-2.8-10.2-1.8zM1468.3 816.4c-2.7 2.3-2.8 2.8-2.8 11.1s.1 8.8 2.8 11.1c5.6 4.8 12 1.5 13.2-6.9 2-13.3-5.4-22-13.2-15.3zm7.6 2c.9 1.1.4 2.6-2.6 7-2.1 3-4.2 5.5-4.7 5.6-1.1 0-.1-9.3 1.4-12 1.2-2.3 4.2-2.6 5.9-.6zm.6 17.2c-1.7 2.6-5.2 3.2-6.1 1-.3-.8 1.2-4 3.3-7.2l3.8-5.8.3 4.8c.2 3.1-.2 5.6-1.3 7.2zM1491.2 814.7c-2.5 1-4.2 6.2-4.2 12.8 0 7.7 1.9 12.2 5.5 13.1 7 1.7 10.5-2.7 10.5-13.1 0-6.9-1.7-11.8-4.5-12.9-1.9-.7-5.4-.7-7.3.1zm6.5 3.9c.3.9-1 3.8-3.3 7.2l-3.9 5.6-.3-4.8c-.2-3.1.2-5.6 1.3-7.2 1.7-2.7 5.3-3.2 6.2-.8zm1.1 16.1c-1.5 3.1-4.9 4.1-6.6 2-.9-1.1-.3-2.6 3.1-7.3l4.2-5.9.3 4.2c.2 2.4-.3 5.5-1 7zM1530 827.5c0 11.3.2 13.5 1.5 13.5 1.2 0 1.5-1.4 1.5-6.3 0-6.7 1.8-10.7 4.9-10.7 3.2 0 4.1 2.2 4.1 9.7 0 5.8.3 7.3 1.5 7.3s1.5-1.6 1.5-8.3c0-11.2-2.4-13.5-10.2-10.2-1.6.6-1.8.1-1.8-3.9 0-3.4-.4-4.6-1.5-4.6-1.3 0-1.5 2.2-1.5 13.5zM614.7 815.7c-.4.3-.7 1.7-.7 3 0 1.8-.5 2.3-2.5 2.3-1.6 0-2.5.6-2.5 1.5s.9 1.5 2.5 1.5c2.4 0 2.5.3 2.5 5.7 0 8.3 1.5 10.7 6.8 11.1 3.3.2 4.2 0 4.2-1.2 0-1.1-.9-1.6-3-1.6-3.7 0-5-2.3-5-8.9V824h4c2.9 0 4-.4 4-1.5s-1.1-1.5-4-1.5c-3.8 0-4-.2-4-3 0-2.9-.9-3.8-2.3-2.3zM1042.7 815.7c-.4.3-.7 1.7-.7 3 0 1.8-.5 2.3-2.5 2.3-1.6 0-2.5.6-2.5 1.5s.9 1.5 2.5 1.5c2.4 0 2.5.3 2.5 5.7 0 8.3 1.5 10.7 6.8 11.1 3.3.2 4.2 0 4.2-1.2 0-1.1-.9-1.6-3-1.6-3.7 0-5-2.3-5-8.9V824h4c2.9 0 4-.4 4-1.5s-1.1-1.5-4-1.5c-3.8 0-4-.2-4-3 0-2.9-.9-3.8-2.3-2.3zM355.5 823.5c-2 1.9-2.5 3.4-2.5 7.2 0 5.8 1.9 8.9 6.1 9.8 4.2.9 9.9-.2 9.9-2 0-1.2-1-1.3-4.5-.8-3.6.4-5 .2-6.5-1.2-3.8-3.4-2.6-4.5 5-4.5 6.4 0 7-.2 7-2 0-2.9-2.6-7.6-4.5-8.4-3.5-1.3-7.6-.6-10 1.9zm9.1 1.3c.6.4 1.3 1.5 1.7 2.4.6 1.6 0 1.8-4.8 1.8-5.9 0-6.4-.4-3.8-3.2 1.6-1.8 5-2.3 6.9-1zM374.9 825.7c1 2.7 2.6 7.2 3.5 10 1.4 4.3 2.2 5.3 4 5.3 1.9 0 2.6-1.3 5.1-8.8 3.9-11.5 3.9-11.2 2.2-11.2-.9 0-2.6 3.1-4.4 8.2l-3 8.1-2.9-8.1c-2.1-6-3.3-8.2-4.6-8.2-1.7 0-1.7.3.1 4.7zM399.3 822.5c-2.7 1.9-4.6 7.7-3.8 11.5 1.3 5.7 9.1 8.9 14.6 6 3.3-1.8 2.1-3-2.5-2.4-4.9.7-8.1-.6-8.9-3.6-.5-1.9-.1-2 6.4-2h6.9v-3.4c0-6.1-7.5-9.7-12.7-6.1zm8.5 2.7c2.6 2.6 1.3 3.8-3.8 3.8-3.7 0-5-.4-5-1.5 0-2.9 6.4-4.7 8.8-2.3zM441.3 823c-2.6 2.3-3.7 6.9-2.8 11 1.4 6.3 8.6 9.2 13.4 5.2 2.4-1.9 3.7-7.7 2.7-11.7-1.5-6.1-8.9-8.6-13.3-4.5zm8.8 2.6c.7.9 1.4 3.3 1.4 5.4 0 2.1-.7 4.5-1.4 5.4-1.6 1.9-5.2 2.1-6.9.4-1.6-1.6-1.6-10 0-11.6 1.7-1.7 5.3-1.5 6.9.4zM461 834.5c0 11.3.2 13.5 1.5 13.5 1.1 0 1.5-1.2 1.5-4.4v-4.4l2.9 1.1c6.7 2.5 11.8-4.8 9.2-13.3-1.5-5-4.8-6.9-9.2-5.3-1.6.6-2.9.7-2.9.2 0-.5-.7-.9-1.5-.9-1.3 0-1.5 2.2-1.5 13.5zm10.8-9.3c1.6 1.6 1.6 10 0 11.6-1.8 1.8-5.6 1.4-6.8-.7-.5-1.1-1-3.4-1-5.1 0-1.7.5-4 1-5.1 1.2-2.1 5-2.5 6.8-.7zM485.4 822.2c-2.8 1.3-4.4 4.9-4.4 9.7 0 4.2 2.6 7.7 6.5 8.7 3.6.9 9.5-.4 9.5-2.1 0-1.2-1-1.3-4.5-.8-3.6.4-5 .2-6.5-1.2-3.8-3.4-2.6-4.5 5-4.5h7v-3c0-6.1-6.7-9.7-12.6-6.8zm8.6 3.9c1.5 2.8 1.1 3.1-4.9 2.7-5.1-.3-5.1-.3-3.6-2.6 2.1-2.9 7-3 8.5-.1zM505 831c0 7.8.3 10 1.4 10 1 0 1.5-1.8 1.8-6.4.5-8 2.6-11 7.6-10.4 2.5.3 3.2.1 3-1.1-.4-2.2-6.1-2.6-7.8-.7-1.6 2-3 2-3 .1 0-.8-.7-1.5-1.5-1.5-1.2 0-1.5 1.8-1.5 10zM570.3 822.5c-2.7 1.9-4.6 7.7-3.8 11.5 1.3 5.7 9.1 8.9 14.6 6 3.3-1.8 2.1-3-2.5-2.4-4.9.7-8.1-.6-8.9-3.6-.5-1.9-.1-2 6.4-2h6.9v-3.4c0-6.1-7.5-9.7-12.7-6.1zm8.5 2.7c2.6 2.6 1.3 3.8-3.8 3.8-3.7 0-5-.4-5-1.5 0-2.9 6.4-4.7 8.8-2.3zM591 831c0 8.2.3 10 1.5 10s1.5-1.4 1.5-6.3c0-8.5 1.8-11.1 7.2-10.4 3.3.4 3.9.3 3.6-1.1-.5-2.6-6.2-2.8-8.7-.3-2.1 2.1-2.1 2.1-2.1.1 0-1.1-.7-2-1.5-2-1.2 0-1.5 1.8-1.5 10zM633 822.5c0 .8.8 1.5 1.9 1.5 1.6 0 1.9 1 2.3 7.1.3 5.5.8 7.4 2.3 8.5 2.6 1.9 7.5 1.8 7.5-.1 0-.9-.9-1.5-2.5-1.5-3.3 0-4.5-2.7-4.5-10.4V821h-3.5c-2.4 0-3.5.5-3.5 1.5zM676 822.5c0 .8.9 1.5 2 1.5 1.8 0 2 .7 2 6.5 0 5.2.4 6.9 2 8.5 2.4 2.4 8 2.7 8 .5 0-.9-.9-1.5-2.3-1.5-3.8 0-4.7-1.9-4.7-9.7V821h-3.5c-2.4 0-3.5.5-3.5 1.5zM698.5 823.5c-2 1.9-2.5 3.4-2.5 7.5s.5 5.6 2.5 7.5c3.3 3.4 11.5 3.3 11.5 0 0-1-1-1.2-3.5-.8-4.8.8-7.5-1.7-7.5-6.7s2.7-7.5 7.5-6.7c2.5.4 3.5.2 3.5-.8 0-3.3-8.2-3.4-11.5 0zM719.8 821.7c-1 .2-1.8 1.1-1.8 1.8 0 1.1.8 1.3 3 .9 3.9-.8 8 .3 8 2.1 0 1-1.1 1.5-3.5 1.5-7.3 0-11.1 4.2-8.7 9.5 1.4 3 5.6 4.2 9.6 2.6 2-.7 3.2-.8 3.4-.1.2.5 1 1 1.8 1 1.1 0 1.2-1.6.8-8.3-.5-6.5-1-8.6-2.6-10-1.9-1.6-6.1-2-10-1zm9.2 11c0 4.1-6 6.9-8.8 4.1-1.6-1.6-1.5-2.3.4-4.2 2.2-2.2 8.4-2.1 8.4.1zM761 822.5c0 .9.9 1.5 2.5 1.5 2.4 0 2.5.2 2.5 6.9 0 8.1 1.3 10.1 6.6 10.1 4.6 0 4.7-2.7.2-3.2l-3.3-.3-.3-8.3-.3-8.2H765c-2.9 0-4 .4-4 1.5zM783.6 823.1c-2.3 1.8-2.6 2.8-2.6 7.9 0 5.1.3 6.1 2.6 7.9 3.6 2.8 7.9 2.7 10.9-.4 2-1.9 2.5-3.4 2.5-7.5s-.5-5.6-2.5-7.5c-3-3.1-7.3-3.2-10.9-.4zm8.8 3.1c4.4 6.3-1.7 15.4-6.8 10.2-.9-.9-1.6-3.2-1.6-5.4 0-6.4 5.2-9.4 8.4-4.8zM803 831c0 8.2.3 10 1.5 10s1.5-1.4 1.5-6.9c0-7.4 1.4-10.1 5-10.1 2.8 0 4 3.1 4 10.4 0 5.2.3 6.6 1.5 6.6 2.2 0 2.1-14.7-.1-17.8-1.8-2.6-6-2.9-8.6-.5-1.7 1.5-1.8 1.5-1.8 0 0-1-.7-1.7-1.5-1.7-1.2 0-1.5 1.8-1.5 10zM869 831c0 8.2.3 10 1.5 10s1.5-1.4 1.5-6.3c0-8.5 1.8-11.1 7.2-10.4 3.3.4 3.9.3 3.6-1.1-.5-2.6-6.2-2.8-8.7-.3-2.1 2.1-2.1 2.1-2.1.1 0-1.1-.7-2-1.5-2-1.2 0-1.5 1.8-1.5 10zM891.3 822.5c-2.7 1.9-4.6 7.7-3.8 11.5 1.3 5.7 9.1 8.9 14.6 6 3.3-1.8 2.1-3-2.5-2.4-4.9.7-8.1-.6-8.9-3.6-.5-1.9-.1-2 6.4-2h6.9v-3.4c0-6.1-7.5-9.7-12.7-6.1zm8.5 2.7c2.6 2.6 1.3 3.8-3.8 3.8-3.7 0-5-.4-5-1.5 0-2.9 6.4-4.7 8.8-2.3zM910 834.5c0 11.3.2 13.5 1.5 13.5 1.1 0 1.5-1.2 1.5-4.4v-4.4l2.9 1.1c4.4 1.6 7.7-.3 9.2-5.3 2.6-8.5-2.5-15.8-9.2-13.3-1.6.6-2.9.7-2.9.2 0-.5-.7-.9-1.5-.9-1.3 0-1.5 2.2-1.5 13.5zm10.8-9.3c.7.7 1.2 3.3 1.2 5.8 0 5.1-1.3 7-4.7 7-2.6 0-4.3-2.7-4.3-7 0-1.7.5-4 1-5.1 1.2-2.1 5-2.5 6.8-.7zM933 831c0 7.9.3 10 1.4 10 1 0 1.5-1.9 1.8-7.1.4-8.3 2.1-10.4 7.6-9.5 2.7.4 3.3.2 3-1.2-.5-2.6-6.2-2.8-8.7-.3-2.1 2.1-2.1 2.1-2.1.1 0-1.1-.7-2-1.5-2-1.2 0-1.5 1.8-1.5 10zM954.5 823.5c-2 1.9-2.5 3.4-2.5 7.2 0 5.8 1.9 8.9 6.1 9.8 4.2.9 9.9-.2 9.9-2 0-1.2-1-1.3-4.5-.8-3.6.4-5 .2-6.5-1.2-3.8-3.4-2.6-4.5 5-4.5 6.4 0 7-.2 7-2 0-2.9-2.6-7.6-4.5-8.4-3.5-1.3-7.6-.6-10 1.9zm9.1 1.3c.6.4 1.3 1.5 1.7 2.4.6 1.6 0 1.8-4.8 1.8-5.9 0-6.4-.4-3.8-3.2 1.6-1.8 5-2.3 6.9-1zM976.8 822.2c-2.3 1.8-3 5.1-1.6 7.1.7.9 3.1 2.2 5.3 2.9 2.9 1 4 1.9 4 3.3 0 1.8-.6 2-5.2 1.9-3.7-.1-5.3.2-5.3 1.1 0 .7 1 1.5 2.3 1.9 6.5 1.7 11.7-.6 11.7-5.3 0-3.5-1.4-4.7-6.2-5.6-6.7-1.3-5.1-6.3 1.7-5.2 2.5.4 3.5.2 3.5-.8 0-2.6-7.3-3.5-10.2-1.3zM998.3 822.5c-2.7 1.9-4.6 7.7-3.8 11.5 1.3 5.7 9.1 8.9 14.6 6 3.3-1.8 2.1-3-2.5-2.4-4.9.7-8.1-.6-8.9-3.6-.5-1.9-.1-2 6.4-2h6.9v-3.4c0-6.1-7.5-9.7-12.7-6.1zm8.5 2.7c2.6 2.6 1.3 3.8-3.8 3.8-3.7 0-5-.4-5-1.5 0-2.9 6.4-4.7 8.8-2.3zM1017 831c0 8.2.3 10 1.5 10s1.5-1.4 1.5-6.6c0-7.8 1.2-10.4 4.6-10.4 3.1 0 4.4 3.1 4.4 11.1 0 4.7.3 5.9 1.6 5.9 1.4 0 1.6-1.2 1.3-8.6-.3-7.1-.7-8.8-2.3-10-2.6-1.8-6.1-1.8-8 .2-1.5 1.4-1.6 1.4-1.6 0 0-.9-.7-1.6-1.5-1.6-1.2 0-1.5 1.8-1.5 10zM1061 822.5c0 .8.9 1.5 2 1.5 1.8 0 2 .7 2 6.5 0 5.2.4 6.9 2 8.5 2.4 2.4 8 2.7 8 .5 0-.9-.9-1.5-2.3-1.5-3.8 0-4.7-1.9-4.7-9.7V821h-3.5c-2.4 0-3.5.5-3.5 1.5zM1081 831c0 8.2.3 10 1.5 10s1.5-1.4 1.5-6.9c0-7.4 1.4-10.1 5-10.1 2.8 0 4 3.1 4 10.4 0 5.2.3 6.6 1.5 6.6 2.2 0 2.1-14.7-.1-17.8-1.8-2.6-6-2.9-8.6-.5-1.7 1.5-1.8 1.5-1.8 0 0-1-.7-1.7-1.5-1.7-1.2 0-1.5 1.8-1.5 10zM1104.5 823.5c-2 1.9-2.5 3.4-2.5 7.5s.5 5.6 2.5 7.5c2.6 2.7 6.4 3.2 8.3 1.3 2-2 2.7.1 1.1 3-1.3 2.3-2.2 2.7-5.7 2.6-2.7 0-4.2.4-4.2 1.2 0 2.9 7.7 3.3 11.1.5 2.2-1.8 2.4-2.7 2.7-13.5.3-10.1.2-11.6-1.2-11.6-.9 0-1.6.5-1.6 1.2 0 .6-.7.4-1.8-.5-2.6-2.4-5.9-2.1-8.7.8zm8.6 2.1c.7.9 1.4 3.3 1.4 5.4 0 6.5-4.7 9.3-7.9 4.8-4.3-6.1 1.9-15.7 6.5-10.2zM1147.8 821.7c-1 .2-1.8 1.1-1.8 1.8 0 1.1.8 1.3 3 .9 3.9-.8 8 .3 8 2.1 0 1-1.1 1.5-3.5 1.5-7.3 0-11.1 4.2-8.7 9.5 1.4 3 5.6 4.2 9.6 2.6 2-.7 3.2-.8 3.4-.1.2.5 1 1 1.8 1 1.1 0 1.2-1.6.8-8.3-.5-6.5-1-8.6-2.6-10-1.9-1.6-6.1-2-10-1zm9.2 11c0 4.1-6 6.9-8.8 4.1-1.6-1.6-1.5-2.3.4-4.2 2.2-2.2 8.4-2.1 8.4.1zM1166 834.5c0 12.8.1 13.5 2 13.5 1.7 0 2-.7 2-4.7 0-3.7.3-4.4 1.2-3.5 2.1 2.1 6.5 1.4 8.7-1.4 3.1-3.9 2.9-12.3-.2-15.2-2.6-2.4-6.6-2.9-8.6-1-1.1 1-1.4 1-1.8 0-.3-.6-1.1-1.2-1.9-1.2-1.1 0-1.4 2.5-1.4 13.5zm12-8.6c.5 1.1 1 3.4 1 5.1 0 4.3-1.7 7-4.3 7-3.4 0-4.7-1.9-4.7-7 0-2.5.5-5.1 1.2-5.8 1.8-1.8 5.6-1.4 6.8.7zM1188 834.5c0 11.3.2 13.5 1.5 13.5 1.1 0 1.5-1.2 1.5-4.5 0-4.4.1-4.4 2.4-3.4 6.1 2.8 11.2-2.7 10.3-11-.8-6.9-7-10.6-11.1-6.5-1.5 1.4-1.6 1.4-1.6 0 0-.9-.7-1.6-1.5-1.6-1.3 0-1.5 2.2-1.5 13.5zm11.4-8.3c3 4.3.9 11.8-3.4 11.8-2.4 0-5-3.7-5-7s2.6-7 5-7c1 0 2.6 1 3.4 2.2zM1211 831c0 7.9.3 10 1.4 10 1 0 1.5-1.9 1.8-7.1.4-8.3 2.1-10.4 7.6-9.5 2.7.4 3.3.2 3-1.2-.5-2.6-6.2-2.8-8.7-.3-2.1 2.1-2.1 2.1-2.1.1 0-1.1-.7-2-1.5-2-1.2 0-1.5 1.8-1.5 10zM1232.5 823.5c-2 1.9-2.5 3.4-2.5 7.5s.5 5.6 2.5 7.5c3 3.1 7.3 3.2 10.9.4 2.3-1.8 2.6-2.8 2.6-7.9 0-5.1-.3-6.1-2.6-7.9-3.6-2.8-7.9-2.7-10.9.4zm8.9 2.1c.9.9 1.6 3.2 1.6 5.4 0 6.4-5.2 9.4-8.4 4.8-4.4-6.3 1.7-15.4 6.8-10.2zM1254.3 825.8l3.6 4.8-4 5.2c-3.5 4.6-3.8 5.2-2 5.2 1.3 0 3.1-1.5 4.7-4 1.5-2.2 2.8-4 2.9-4 .1 0 1.5 1.8 3 4 1.6 2.3 3.6 4 4.7 4 1.6 0 1.4-.6-1.7-4.6-1.9-2.6-3.5-5.2-3.5-5.8 0-.6 1.4-2.9 3.1-5.1 2.6-3.4 2.8-4.1 1.3-4.4-.9-.1-2.1.3-2.5 1.1-.5.8-1.6 2.5-2.7 3.7l-1.8 2.3-2.4-3.6c-1.4-2-3.3-3.6-4.3-3.6-1.6 0-1.3.8 1.6 4.8zM1275 822.5c0 .8.9 1.5 2 1.5 1.8 0 2 .7 2 6.5 0 5.2.4 6.9 2 8.5 2.4 2.4 8 2.7 8 .5 0-.9-.9-1.5-2.3-1.5-3.8 0-4.7-1.9-4.7-9.7V821h-3.5c-2.4 0-3.5.5-3.5 1.5zM1294 831c0 11.9 1.6 13.4 2.1 2.1.4-8.4.9-9.7 3.4-8.8 1.2.5 1.5 2.4 1.5 8.7 0 6.4.3 8 1.5 8s1.5-1.6 1.5-8c0-6.5.3-8.2 1.6-8.7 2.5-.9 3.4 1.6 3.4 9.4 0 5.8.3 7.3 1.5 7.3s1.5-1.4 1.4-6.8c-.1-3.7-.4-7.8-.8-9.1-.9-3.3-3.6-4.9-5.9-3.5-1.2.8-2.2.8-3.5 0-1.2-.8-2.2-.8-3.7.2-1.2.7-2 .8-2 .2 0-.5-.4-1-1-1s-1 4-1 10zM1318.8 821.7c-1 .2-1.8 1.1-1.8 1.8 0 1.1.8 1.3 3 .9 3.9-.8 8 .3 8 2.1 0 1-1.1 1.5-3.5 1.5-7.3 0-11.1 4.2-8.7 9.5 1.4 3 5.6 4.2 9.6 2.6 2-.7 3.2-.8 3.4-.1.2.5 1 1 1.8 1 1.1 0 1.2-1.6.8-8.3-.5-6.5-1-8.6-2.6-10-1.9-1.6-6.1-2-10-1zm9.2 11c0 4.1-6 6.9-8.8 4.1-1.6-1.6-1.5-2.3.4-4.2 2.2-2.2 8.4-2.1 8.4.1zM1362.4 822.2c-2.8 1.3-4.4 4.9-4.4 9.7 0 4.2 2.6 7.7 6.5 8.7 3.6.9 9.5-.4 9.5-2.1 0-1.2-1-1.3-4.5-.8-3.6.4-5 .2-6.5-1.2-3.8-3.4-2.6-4.5 5-4.5h7v-3c0-6.1-6.7-9.7-12.6-6.8zm8.6 3.9c1.5 2.8 1.1 3.1-4.9 2.7-5.1-.3-5.1-.3-3.6-2.6 2.1-2.9 7-3 8.5-.1zM1401 821.8c0 .4 1.6 4.7 3.5 9.5 3 7.4 3.3 9 2.3 11.2-.6 1.4-1.9 2.5-3 2.5-1 0-1.8.7-1.8 1.5 0 1.9 4.3 2 5.9.1.6-.7 3.4-6.8 6.1-13.5 4.2-10.5 4.6-12.1 3.1-12.1-1.3 0-2.5 1.7-4.1 6.2-1.2 3.5-2.6 6.7-3 7.1-.4.5-2-2.3-3.5-6.2-1.6-3.9-3.4-7.1-4.2-7.1-.7 0-1.3.4-1.3.8zM1553.5 823.5c-2 1.9-2.5 3.4-2.5 7.5s.5 5.6 2.5 7.5c3 3.1 7.3 3.2 10.9.4 2.3-1.8 2.6-2.8 2.6-7.9 0-5.1-.3-6.1-2.6-7.9-3.6-2.8-7.9-2.7-10.9.4zm8.9 2.1c.9.9 1.6 3.2 1.6 5.4 0 6.4-5.2 9.4-8.4 4.8-4.4-6.3 1.7-15.4 6.8-10.2zM1573 828.8c0 5.4.5 8.4 1.6 10 1.8 2.6 6 2.9 8.6.5 1.7-1.5 1.8-1.5 1.8 0 0 1 .7 1.7 1.5 1.7 1.2 0 1.5-1.8 1.5-10s-.3-10-1.5-10-1.5 1.4-1.5 6.3c0 6.8-1.8 10.7-5 10.7-2.8 0-4-3.1-4-10.4 0-5.2-.3-6.6-1.5-6.6s-1.5 1.5-1.5 7.8zM1596 831c0 7.8.3 10 1.4 10 1 0 1.5-1.8 1.8-6.4.5-8 2.6-11 7.6-10.4 2.5.3 3.2.1 3-1.1-.4-2.2-6.1-2.6-7.8-.7-1.6 2-3 2-3 .1 0-.8-.7-1.5-1.5-1.5-1.2 0-1.5 1.8-1.5 10zM1618 823c-3.8 3.8-1.7 8.1 4.8 9.5 3.7.8 5.3 3.2 3.1 4.6-.8.6-3.3.8-5.6.5-3.2-.4-4.3-.2-4.3.8 0 2.8 8.3 3.5 11.8 1 1.7-1.2 2.2-2.4 2-4.7-.3-2.8-.9-3.4-5-4.8-5.9-1.9-6.4-2.4-4.7-4.5.9-1.2 2.4-1.5 5.1-1.1 2.7.4 3.8.1 3.8-.8 0-3-8.1-3.4-11-.5zM1660.6 823.1c-2.3 1.8-2.6 2.8-2.6 7.9 0 5.1.3 6.1 2.6 7.9 3.6 2.8 7.9 2.7 10.9-.4 2-1.9 2.5-3.4 2.5-7.5s-.5-5.6-2.5-7.5c-3-3.1-7.3-3.2-10.9-.4zm8.8 3.1c4.4 6.3-1.7 15.4-6.8 10.2-.9-.9-1.6-3.2-1.6-5.4 0-6.4 5.2-9.4 8.4-4.8zM829.3 836.6c-.4 1 .1 2.2 1 2.9 2.2 1.6 2.1 2.4-.5 5.2-1.7 1.9-1.9 2.3-.5 2.3 2.1 0 5.7-4.7 5.7-7.4 0-4-4.4-6.3-5.7-3zM1092 866.5c0 11.3.2 13.5 1.5 13.5 1.1 0 1.5-1.1 1.5-3.9 0-2.2.6-4.4 1.5-5.1.9-.7 1.7-1.1 1.9-.9.1.2 1.8 2.5 3.6 5.1 2 2.9 4.1 4.8 5.3 4.8 1.6 0 1.2-1-2.7-6.4l-4.5-6.3 3.5-3.4c5-4.9 2.3-4.8-3.6.1l-5 4.2v-7.6c0-6.1-.3-7.6-1.5-7.6-1.3 0-1.5 2.2-1.5 13.5zM903.5 861.2c-3.3 1.9-4.4 4.1-4.5 8.9 0 7.1 5.6 11.5 11.8 9.3 4.6-1.6 3.9-3.5-1.1-2.8-3.9.6-4.6.3-6.1-1.7-.9-1.3-1.6-3.5-1.6-4.9 0-1.4.7-3.6 1.6-4.9 1.5-2 2.2-2.3 6-1.7 4.6.6 5.8-.6 2.5-2.4-2.5-1.3-6.1-1.2-8.6.2zM922.6 862.1c-2.3 1.8-2.6 2.8-2.6 7.9 0 5.1.3 6.1 2.6 7.9 3.6 2.8 7.9 2.7 10.9-.4 2-1.9 2.5-3.4 2.5-7.5s-.5-5.6-2.5-7.5c-3-3.1-7.3-3.2-10.9-.4zm8.8 3.1c4.4 6.3-1.7 15.4-6.8 10.2-.9-.9-1.6-3.2-1.6-5.4 0-6.4 5.2-9.4 8.4-4.8zM942 867.8c0 5.4.5 8.4 1.6 10 1.8 2.6 6 2.9 8.6.5 1.7-1.5 1.8-1.5 1.8 0 0 1 .7 1.7 1.5 1.7 1.2 0 1.5-1.8 1.5-10s-.3-10-1.5-10-1.5 1.4-1.5 6.3c0 6.8-1.8 10.7-5 10.7-2.8 0-4-3.1-4-10.4 0-5.2-.3-6.6-1.5-6.6s-1.5 1.5-1.5 7.8zM965 870c0 7.9.3 10 1.4 10 1 0 1.5-1.9 1.8-7.1.4-8.3 2.1-10.4 7.6-9.5 2.7.4 3.3.2 3-1.2-.5-2.6-6.2-2.8-8.7-.3-2.1 2.1-2.1 2.1-2.1.1 0-1.1-.7-2-1.5-2-1.2 0-1.5 1.8-1.5 10zM987 862c-3.8 3.8-1.7 8.1 4.8 9.5 3.7.8 5.3 3.2 3.1 4.6-.8.6-3.3.8-5.6.5-3.2-.4-4.3-.2-4.3.8 0 2.8 8.3 3.5 11.8 1 1.7-1.2 2.2-2.4 2-4.7-.3-2.8-.9-3.4-5-4.8-5.9-1.9-6.4-2.4-4.7-4.5.9-1.2 2.4-1.5 5.1-1.1 2.7.4 3.8.1 3.8-.8 0-3-8.1-3.4-11-.5zM1007.9 862.9c-2.3 2.3-2.9 3.8-2.9 7.1 0 5.1 4.2 10 8.7 10 4.3 0 7.3-1.1 7.3-2.6 0-1-1.1-1.2-4.4-.8-3.6.5-4.7.3-6.5-1.5-3.4-3.4-2.6-4.1 4.9-4.1h7v-3c0-4.1-3.9-8-8-8-2.1 0-4.1.9-6.1 2.9zm10.5 2.3c1.5 2.4.5 3-5.3 2.6l-5.2-.3 1.7-2.3c1.9-2.7 7.1-2.7 8.8 0zM1024.5 862.2c.3 1.3 1.4 5.7 2.3 9.8 2.2 9.5 4.4 10.5 6.3 3 1.4-5.6 2-5.5 3.8.7 1.3 4.7 3.7 5.7 4.6 2 4.2-17.2 4.3-17.7 2.5-17.7-1.3 0-2 1.6-3 7-.7 3.8-1.7 7-2.1 7-.4 0-1.1-1.7-1.6-3.7-1.3-5.6-3.6-5.4-5.2.4l-1.4 4.8-.9-4c-2.5-10.3-2.9-11.5-4.4-11.5-1 0-1.3.7-.9 2.2zM1051 862c-2.5 2.5-3.4 6.1-2.7 10.8 1.6 9.5 14.1 9.7 16.2.2.9-4.1-.2-8.7-2.8-11-2.7-2.6-8.1-2.6-10.7 0zm8.8 2.2c.7.7 1.2 3.3 1.2 5.8 0 5.1-1.3 7-4.6 7-3 0-4.9-2.6-4.9-7 0-2.1.7-4.5 1.4-5.4 1.6-1.9 5.2-2.1 6.9-.4zM1072 870c0 7.9.3 10 1.4 10 1 0 1.5-1.9 1.8-7.1.4-8.3 2.1-10.4 7.6-9.5 2.7.4 3.3.2 3-1.2-.5-2.6-6.2-2.8-8.7-.3-2.1 2.1-2.1 2.1-2.1.1 0-1.1-.7-2-1.5-2-1.2 0-1.5 1.8-1.5 10zM1118.4 875.4c-.8 2.2.3 4.9 1.9 4.3.6-.2 1.2-1.4 1.2-2.7 0-2.7-2.2-3.9-3.1-1.6zM1173.6 1007.2c-.9 1.2-1.6 2.8-1.6 3.6 0 .7-.9 3.8-1.9 7-2 5.9-11 46.3-13.1 58.7-4.5 26.5-11.5 59.4-13.6 64.2-.8 1.7-1.4 3.7-1.4 4.5 0 3.4-6.2 18.1-9.4 22.2-1.8 2.3-3.1 1.5-5.4-3.2-4.7-9.5-7-28.9-6.8-57.1.1-21.6 0-22.4-2-23.7-1.7-1.2-2.3-1.2-3.9 0-1.5 1.1-2.1 3.7-3.1 13.7-.7 6.8-1.4 15.3-1.5 18.9l-.1 6.5-.9-6c-1-7.1-4.6-11.8-7.3-9.5-1.2.9-1.6 3.2-1.6 8.6 0 6.3-.3 7.4-1.7 7.4-1 0-4.1 2.5-6.9 5.6-4.8 5.1-5.4 5.5-7.5 4.3-1.6-.8-5.2-1-12.1-.6-5.4.3-9.8.2-9.8-.2 0-2.5 18.2-11.3 26.2-12.8 3.8-.7 5.2-2.6 3.8-5.2-1.3-2.6-5.2-3.6-7.8-2.2-2.9 1.5-6.2 1.4-11.3-.5-2.5-.9-7.7-1.6-11.9-1.6-6.5-.1-8.4.4-13.6 3-6.7 3.4-14.4 11.4-21.3 22.2l-4.2 6.5.7-8.6c1.1-14.2-2-16.4-11.1-7.8l-5.4 5.1-1.7-4.1c-2.2-5.6-6.6-9.1-11.3-9.1-3.3 0-4.4.7-8.2 4.8-2.4 2.7-5.2 5.8-6.1 7-1.1 1.4-2.9 2.2-4.7 2.2-7 0-23.9 17-31.1 31.4-1.5 2.9-1.5 2.9-1.8-3.5-.4-6.8 1.2-39.9 2.8-60.9.6-6.9 1.1-17.7 1.3-24 .2-10.9.1-11.5-1.8-11.5-1.7 0-2.1.9-2.7 5.5-1.2 8.7-4.8 67.5-5.5 89.2l-.6 19.8h-25.8l-6.1-4.3c-3.3-2.3-7.5-5.2-9.3-6.4-3.5-2.3-8.5-7.9-8.5-9.4 0-.6 1.1-2.9 2.4-5.2 5.3-9.2 11.6-28.4 13.7-41.7 1.9-12.6-.5-29.1-6.4-43.2-3.9-9.3-16.2-23.5-22.4-25.9-3.3-1.2-6.6 0-8.2 3-1.3 2.4.2 3.7 1.9 1.6 2.6-3.1 6.3-1.8 12.1 4.2 7.9 8.1 11.6 14 15.1 24.1 2.7 7.7 3.1 10.3 3.5 22.7.5 15.2-.5 21.8-5.3 35-3 8-8.2 18.7-9.8 19.7-1.5 1-1.9.5-7.9-8.6-10.9-16.5-17.7-32.6-17.7-42 0-11.8 11.1-34.4 18.5-37.8 1.8-.8 3-.5 6.3 1.7 6.1 4 8.7 1.3 3.5-3.7-7-6.7-11.6-5.4-18.9 5.3-4.5 6.5-6.7 11.1-11.4 23.3-.6 1.6-1.3 2.7-1.6 2.4-1.5-1.6-7.9-29.6-6.9-30.6.2-.3 1.1.1 2 .8 2.5 2 3-1.5.7-4.7-1.1-1.5-3.1-5.1-4.6-8-2.9-5.8-3.6-6.5-5.5-5.4-1.8 1.1.5 14.5 6.8 40.1 4.7 19 4.7 19.5 3.5 25.4-2 9.3-2.8 30-1.5 38.3 3.5 22.5 16.7 30.4 30.4 18.4l3.6-3.2 7.9 6.8 7.9 6.8-69.4.3c-45 .1-69.3.6-69.3 1.2 0 .7 25 1 71.9 1 64 0 72 .2 73.2 1.6.7.8 2.6 2.2 4.3 3.1 1.7.9 4.7 2.9 6.8 4.4 2 1.6 5.4 3.6 7.7 4.4 3.6 1.2 4.6 1.2 8.5-.1 3.8-1.3 4.9-2.3 6.7-6.2 1.3-2.6 2.8-5.3 3.5-6 1.8-1.7 101.5-1.8 104.4 0 1.5 1 2.9 1 6.5 0 5.5-1.5 29.1-1.6 30-.2.3.5 2.4 1 4.5 1s4.2-.5 4.5-1c.4-.7 31-1 88.5-1s88.1-.3 88.5-1c.4-.7-21.8-1-65.9-1-36.6 0-66.6-.3-66.6-.6s1.1-2 2.4-3.7c3.5-4.7 7.1-12.4 9-19.2.9-3.3 2.5-8.9 3.6-12.5 1-3.6 2.4-9 3-12 .6-3 1.8-8.4 2.6-12 1.5-6.9 4.6-24.6 7-39.5.8-5 1.9-11.3 2.4-14 .6-2.8 1.7-8.4 2.5-12.5 2.9-15.4 8.9-38.6 11.2-43.3 1.3-2.6 1.2-2.7-1.1-2.7-1.4 0-3.1.9-4 2.2zm-316.1 116.6c4.5 10.8 9.7 19.9 15.7 27.8 2.1 2.8 3.8 5.6 3.8 6.1 0 .6-1.6 2.5-3.5 4.2-4.9 4.3-11.4 4.4-15.5.3-4.6-4.7-7.2-15-7.4-29.5-.1-11.7.9-20.5 2.1-19.3.3.3 2.5 5 4.8 10.4zm210.5-4.9c0 .6-2.6 2.8-5.7 5-6.7 4.7-10.8 10.1-9.9 12.9 1.1 3.4 5.8 4.6 12.3 3.3 8-1.6 15.8-1.4 17.3.4 2.5 3-1.7 13-8.2 19.2-4.6 4.4-19.3 13.1-24.2 14.3-2.3.6-4.9 1.5-5.8 2-1.1.6-20.9 1-51.2 1h-49.5l2.5-6.3c4.6-11.7 16-25.9 24.4-30.2l3.3-1.7-.7 2.9c-2.8 12.3-3 15.2-1.3 20.7 1.8 5.6 4.6 8.6 8 8.6 2.4 0 10-5.3 12.5-8.7 1.9-2.6 2.3-2.7 5.1-1.7 2.3.9 3.4.9 5-.2 1.9-1.4 4.1-8.8 4.1-14 0-3.6 2.5-8.5 6.6-13.1 3.1-3.5 3.4-3.6 3-1.3-2 10.5-2.8 23.2-1.8 25.5 1.1 2.4 1.3 2.5 4.4 1.2 2.5-1 4-2.8 6.3-7.3 8.3-16.4 18.8-29.3 26.1-31.9 4.4-1.6 17.4-2 17.4-.6zm-72.5 4.7c4.6 1.8 6 13.2 2.4 19-1.1 1.9-2.4 3.4-2.9 3.4s-1.9-1.5-3.1-3.3c-1.2-1.7-3.8-4.8-5.7-6.9l-3.4-3.6 4.6-4.6c4.7-4.7 5.3-5 8.1-4zm115.2 10.1c-.3 1-.5.4-.5-1.2 0-1.7.2-2.4.5-1.8.2.7.2 2.1 0 3zm-10.1-.1c.4 1.4.4 6.4.1 10.9-.4 7.1-1.1 9.6-4.5 16.7-2.2 4.6-5.2 9.4-6.7 10.8-2.6 2.5-2.7 2.5-4.2.5-1.8-2.5-1.2-11.6 1.3-17.2.9-2.1 2.4-6.9 3.4-10.6 1.9-7 6-13.7 8.5-13.7.8 0 1.8 1.2 2.1 2.6zm12.6 4.2c.3-.7.8 1.4 1.2 4.7 1.9 16.2 5.3 28.1 9.4 32.7 1.4 1.7.7 1.8-14.2 1.8h-15.7l2.3-3c1.2-1.7 3.4-3.3 4.8-3.7 3.2-.7 7-4.1 7-6.3 0-.8 1.1-4.9 2.5-9 3.1-9.4 3.2-13 .5-13.7-1.3-.4-2-1.4-2-3.1 0-2.4.1-2.4 1.9-.8 1.5 1.3 2 1.4 2.3.4zm-127.2 9.1c1.6 2.6 3 5.6 3 6.5 0 2.6-3.7 7.4-7.1 9.1-2.8 1.5-3 1.5-4-1.2-1.3-3.2-.6-15.2 1.1-18.2 1.4-2.8 3.4-1.8 7 3.8zm91.2 22.8c.3 2.1.8 4.6 1.2 5.5.7 1.6 0 1.8-8 1.7-7.3 0-8.6-.2-7-1.2 1.1-.7 4.2-3.1 7-5.4 2.8-2.3 5.4-4.2 5.7-4.2.4-.1.9 1.6 1.1 3.6zM934 1180c0 1.9-4.8 6-7 6-1.9 0-9.2-3.4-13-5.9-1.1-.8 1.6-1.1 9.3-1.1 6.8 0 10.7.4 10.7 1zM1613 1137.5v24.5h48v-49h-48v24.5zm41 0v17.5h-34v-35h34v17.5z"/>
  <path d="M1627 1137.5v10.5h20v-21h-20v10.5z"/>
  <path d="M1682 1116.5c0 3.3-.2 3.5-3.5 3.5s-3.5.2-3.5 3.5-.2 3.5-3.5 3.5-3.5.2-3.5 3.5.2 3.5 3.5 3.5h3.5v14h7v14h3.5c3.3 0 3.5.2 3.5 3.5 0 3.2.2 3.5 3 3.5 2.7 0 3 .3 3 3s-.3 3-3 3c-2.8 0-3 .3-3 3.5 0 3.3-.2 3.5-3.5 3.5s-3.5-.2-3.5-3.5-.2-3.5-3.5-3.5h-3.5v-20h-7v14h-28v3c0 2.8-.3 3-3.5 3s-3.5-.2-3.5-3v-3h-20v3c0 2.8.3 3 3.5 3h3.5v14h-3.5c-3.3 0-3.5.2-3.5 3.5v3.5h14v-3.5c0-3.2.2-3.5 3-3.5s3 .3 3 3.5c0 3.3.2 3.5 3.5 3.5h3.5v14h3.5c3.3 0 3.5.2 3.5 3.5v3.5h14v7h-14v20h-7v-13h-3.5c-3.3 0-3.5-.2-3.5-3.5s.2-3.5 3.5-3.5 3.5-.2 3.5-3.5-.2-3.5-3.5-3.5-3.5-.2-3.5-3.5c0-3.2-.2-3.5-3-3.5s-3-.3-3-3.5v-3.5h-14v14h14v14h-14v7h14v6h-14v14h3.5c3.3 0 3.5.2 3.5 3.5s-.2 3.5-3.5 3.5-3.5.2-3.5 3.5.2 3.5 3.5 3.5 3.5.2 3.5 3.5-.2 3.5-3.5 3.5-3.5.2-3.5 3.5.2 3.5 3.5 3.5 3.5-.2 3.5-3.5.2-3.5 3.5-3.5 3.5.2 3.5 3.5v3.5h20v-3.5c0-3.3.2-3.5 3.5-3.5s3.5.2 3.5 3.5v3.5h14v27h3.5c3.3 0 3.5.2 3.5 3.5s-.2 3.5-3.5 3.5h-3.5v21h3.5c3.3 0 3.5-.2 3.5-3.5s.2-3.5 3.5-3.5 3.5.2 3.5 3.5v3.5h27v-3.5c0-3.3.2-3.5 3.5-3.5s3.5.2 3.5 3.5v3.5h21v-14h7v14h20v-14h-3c-2.8 0-3 .3-3 3.5 0 3.3-.2 3.5-3.5 3.5s-3.5-.2-3.5-3.5-.2-3.5-3.5-3.5h-3.5v-14h3.5c3.3 0 3.5.2 3.5 3.5v3.5h20v14h3.5c3.3 0 3.5.2 3.5 3.5s.2 3.5 3.5 3.5 3.5-.2 3.5-3.5.2-3.5 3.5-3.5 3.5.2 3.5 3.5v3.5h21v-7h-21v-14h-3.5c-3.3 0-3.5-.2-3.5-3.5v-3.5h14v14h14v-3.5c0-3.3.2-3.5 3.5-3.5h3.5v-13h-7v-28h-28v-3.5c0-3.3.2-3.5 3.5-3.5s3.5-.2 3.5-3.5.2-3.5 3.5-3.5 3.5.2 3.5 3.5v3.5h21v-3.5c0-3.2.2-3.5 3-3.5h3v14h3.5c3.3 0 3.5-.2 3.5-3.5s.2-3.5 3.5-3.5h3.5v-21h-3.5c-3.3 0-3.5-.2-3.5-3.5s.2-3.5 3.5-3.5h3.5v-20h-3.5c-3.3 0-3.5-.2-3.5-3.5s.2-3.5 3.5-3.5h3.5v-21h-3.5c-3.3 0-3.5-.2-3.5-3.5s.2-3.5 3.5-3.5h3.5v-14h-3.5c-3.3 0-3.5.2-3.5 3.5s-.2 3.5-3.5 3.5h-3.5v14h7v14h-3.5c-3.3 0-3.5-.2-3.5-3.5 0-3.2-.2-3.5-3-3.5h-3v-28h3c2.7 0 3-.3 3-3s-.3-3-3-3-3 .3-3 3c0 2.8-.3 3-3.5 3-3.3 0-3.5.2-3.5 3.5s-.2 3.5-3.5 3.5-3.5.2-3.5 3.5.2 3.5 3.5 3.5h3.5v21h13v21h-3c-2.8 0-3 .3-3 3.5 0 3.3-.2 3.5-3.5 3.5h-3.5v13h7v-13h6v20h-3c-2.8 0-3 .3-3 3.5v3.5h-21v-14h7v-13h-7v-21h3.5c3.3 0 3.5.2 3.5 3.5v3.5h14v-7h-14v-3.5c0-3.3-.2-3.5-3.5-3.5h-3.5v-14h-14v-7h14v-20h-21v13h3.5c3.3 0 3.5.2 3.5 3.5s-.2 3.5-3.5 3.5-3.5.2-3.5 3.5-.2 3.5-3.5 3.5h-3.5v-14h-3.5c-3.3 0-3.5.2-3.5 3.5 0 3.2-.2 3.5-3 3.5h-3v-14h6v-13h3.5c3.3 0 3.5-.2 3.5-3.5s.2-3.5 3.5-3.5 3.5.2 3.5 3.5.2 3.5 3.5 3.5h3.5v-14h-7v-14h-3.5c-3.3 0-3.5-.2-3.5-3.5v-3.5h14v-3.5c0-3.3-.2-3.5-3.5-3.5s-3.5-.2-3.5-3.5-.2-3.5-3.5-3.5h-3.5v14h-7v14h3.5c3.3 0 3.5.2 3.5 3.5v3.5h-13v3.5c0 3.3-.2 3.5-3.5 3.5h-3.5v-14h3.5c3.3 0 3.5-.2 3.5-3.5v-3.5h-14v-7h14v-3.5c0-3.3-.2-3.5-3.5-3.5s-3.5-.2-3.5-3.5v-3.5h-21v3.5c0 3.3-.2 3.5-3.5 3.5s-3.5-.2-3.5-3.5v-3.5h-14v3.5c0 3.3-.2 3.5-3.5 3.5s-3.5.2-3.5 3.5v3.5h14v3.5c0 3.3-.2 3.5-3.5 3.5h-3.5v14h3.5c3.3 0 3.5.2 3.5 3.5s-.2 3.5-3.5 3.5-3.5.2-3.5 3.5-.2 3.5-3.5 3.5h-3.5v-28h-3.5c-3.3 0-3.5-.2-3.5-3.5 0-3.2-.2-3.5-3-3.5s-3 .3-3 3.5.2 3.5 3 3.5h3v14h-13v-14h-3.5c-3.3 0-3.5-.2-3.5-3.5s.2-3.5 3.5-3.5 3.5-.2 3.5-3.5.2-3.5 3.5-3.5 3.5-.2 3.5-3.5-.2-3.5-3.5-3.5-3.5.2-3.5 3.5zm55 24.5v21h-7v-14h-3.5c-3.3 0-3.5-.2-3.5-3.5s.2-3.5 3.5-3.5 3.5-.2 3.5-3.5-.2-3.5-3.5-3.5-3.5-.2-3.5-3.5.2-3.5 3.5-3.5 3.5-.2 3.5-3.5.2-3.5 3.5-3.5h3.5v21zm-42 17.5c0 3.3.2 3.5 3.5 3.5s3.5.2 3.5 3.5-.2 3.5-3.5 3.5-3.5-.2-3.5-3.5c0-3.2-.2-3.5-3-3.5s-3-.3-3-3.5.2-3.5 3-3.5 3 .3 3 3.5zm28 0c0 3.3-.2 3.5-3.5 3.5s-3.5.2-3.5 3.5-.2 3.5-3.5 3.5-3.5-.2-3.5-3.5.2-3.5 3.5-3.5 3.5-.2 3.5-3.5.2-3.5 3.5-3.5 3.5.2 3.5 3.5zm28 0c0 3.3.2 3.5 3.5 3.5s3.5-.2 3.5-3.5c0-3.2.2-3.5 3-3.5s3 .3 3 3.5-.2 3.5-3 3.5h-3v13h-7v14h-3.5c-3.3 0-3.5.2-3.5 3.5s.2 3.5 3.5 3.5 3.5.2 3.5 3.5-.2 3.5-3.5 3.5-3.5.2-3.5 3.5v3.5h14v14h-3.5c-3.3 0-3.5.2-3.5 3.5v3.5h-14v-3.5c0-3.3.2-3.5 3.5-3.5s3.5-.2 3.5-3.5-.2-3.5-3.5-3.5-3.5-.2-3.5-3.5-.2-3.5-3.5-3.5-3.5-.2-3.5-3.5v-3.5h14v-3.5c0-3.3-.2-3.5-3.5-3.5s-3.5-.2-3.5-3.5v-3.5h-35v-14h35v-3c0-2.8.3-3 3.5-3h3.5v-14h3.5c3.3 0 3.5.2 3.5 3.5zm-118 20c0 3.2-.2 3.5-3 3.5s-3-.3-3-3.5.2-3.5 3-3.5 3 .3 3 3.5zm42 0c0 3.3.2 3.5 3.5 3.5s3.5.2 3.5 3.5-.2 3.5-3.5 3.5-3.5.2-3.5 3.5.2 3.5 3.5 3.5 3.5.2 3.5 3.5-.2 3.5-3.5 3.5-3.5.2-3.5 3.5-.2 3.5-3.5 3.5-3.5-.2-3.5-3.5.2-3.5 3.5-3.5 3.5-.2 3.5-3.5v-3.5h-21v3.5c0 3.3.2 3.5 3.5 3.5s3.5.2 3.5 3.5v3.5h-14v-14h-7v-14h3.5c3.3 0 3.5-.2 3.5-3.5v-3.5h28v3.5zm20 14c0 3.3.2 3.5 3.5 3.5h3.5v14h7v-14h14v28h3.5c3.3 0 3.5.2 3.5 3.5s-.2 3.5-3.5 3.5-3.5.2-3.5 3.5.2 3.5 3.5 3.5h3.5v13h-3.5c-3.3 0-3.5-.2-3.5-3.5v-3.5h-21v-3c0-2.8.3-3 3.5-3h3.5v-21h-3.5c-3.3 0-3.5.2-3.5 3.5s-.2 3.5-3.5 3.5-3.5.2-3.5 3.5v3.5h-13v-7h13v-7h-13v-7h13v-14h-3c-2.8 0-3-.3-3-3.5s.2-3.5 3-3.5 3 .3 3 3.5zm76 7v3.5h14v3.5c0 3.3.2 3.5 3.5 3.5h3.5v14h-3.5c-3.3 0-3.5-.2-3.5-3.5s-.2-3.5-3.5-3.5h-3.5v27h3.5c3.2 0 3.5-.2 3.5-3s.3-3 3.5-3 3.5.2 3.5 3 .3 3 3.5 3c3.3 0 3.5.2 3.5 3.5v3.5h-14v3.5c0 3.3-.2 3.5-3.5 3.5s-3.5.2-3.5 3.5.2 3.5 3.5 3.5 3.5.2 3.5 3.5-.2 3.5-3.5 3.5-3.5.2-3.5 3.5-.2 3.5-3.5 3.5h-3.5v14h-3.5c-3.3 0-3.5.2-3.5 3.5v3.5h-13v3.5c0 3.3-.2 3.5-3.5 3.5-3.2 0-3.5.2-3.5 3s-.3 3-3.5 3-3.5-.2-3.5-3 .3-3 3.5-3h3.5v-21h-3.5c-3.3 0-3.5-.2-3.5-3.5s.2-3.5 3.5-3.5 3.5-.2 3.5-3.5v-3.5h-14v14h-7v21h-3.5c-3.2 0-3.5.2-3.5 3s.3 3 3.5 3c3.3 0 3.5.2 3.5 3.5v3.5h14v7h-14v3.5c0 3.3-.2 3.5-3.5 3.5s-3.5-.2-3.5-3.5-.2-3.5-3.5-3.5h-3.5v-20h7v-14h-3.5c-3.3 0-3.5.2-3.5 3.5s-.2 3.5-3.5 3.5h-3.5v-14h3.5c3.3 0 3.5-.2 3.5-3.5s.2-3.5 3.5-3.5h3.5v-21h-3.5c-3.3 0-3.5-.2-3.5-3.5s.2-3.5 3.5-3.5 3.5.2 3.5 3.5.2 3.5 3.5 3.5 3.5.2 3.5 3.5v3.5h14v-21h3.5c3.2 0 3.5-.2 3.5-3v-3h14v-3.5c0-3.2.2-3.5 3-3.5h3v-35h3.5c3.3 0 3.5.2 3.5 3.5zm-103 28c0 3.3.2 3.5 3.5 3.5s3.5.2 3.5 3.5-.2 3.5-3.5 3.5h-3.5v20h7v-14h3.5c3.2 0 3.5-.2 3.5-3s.3-3 3.5-3 3.5.2 3.5 3c0 2.7.3 3 3 3 2.8 0 3 .3 3 3.5 0 3.3.2 3.5 3.5 3.5h3.5v28h-3.5c-3.3 0-3.5.2-3.5 3.5 0 3.2-.2 3.5-3 3.5s-3 .3-3 3.5c0 3.3-.2 3.5-3.5 3.5s-3.5-.2-3.5-3.5v-3.5h-14v-28h-3.5c-3.3 0-3.5.2-3.5 3.5v3.5h-14v-21h14v-3c0-2.8-.3-3-3.5-3-3.3 0-3.5-.2-3.5-3.5s.2-3.5 3.5-3.5 3.5-.2 3.5-3.5.2-3.5 3.5-3.5 3.5.2 3.5 3.5zm165 7c0 3.3-.2 3.5-3.5 3.5s-3.5-.2-3.5-3.5.2-3.5 3.5-3.5 3.5.2 3.5 3.5zm-193 20v10.5h-3.5c-3.3 0-3.5.2-3.5 3.5v3.5h-13v-3.5c0-3.3.2-3.5 3.5-3.5s3.5-.2 3.5-3.5c0-3.2.2-3.5 3-3.5h3v-14h7v10.5zm193 7c0 3.3-.2 3.5-3.5 3.5s-3.5-.2-3.5-3.5.2-3.5 3.5-3.5 3.5.2 3.5 3.5zm-186 14c0 3.3-.2 3.5-3.5 3.5s-3.5-.2-3.5-3.5.2-3.5 3.5-3.5 3.5.2 3.5 3.5zm14 0c0 3.3-.2 3.5-3.5 3.5s-3.5-.2-3.5-3.5.2-3.5 3.5-3.5 3.5.2 3.5 3.5zm145 21v10.5h-21v-21h21v10.5zm-111 7c0 3.2-.2 3.5-3 3.5h-3v13h3c2.8 0 3-.3 3-3.5 0-3.3.2-3.5 3.5-3.5s3.5.2 3.5 3.5-.2 3.5-3.5 3.5h-3.5v14h-13v-3.5c0-3.3-.2-3.5-3.5-3.5s-3.5-.2-3.5-3.5.2-3.5 3.5-3.5 3.5-.2 3.5-3.5-.2-3.5-3.5-3.5c-3.2 0-3.5-.2-3.5-3v-3h14v-3.5c0-3.2.2-3.5 3-3.5s3 .3 3 3.5zm83 3v6.5h-14v-3c0-2.8.3-3 3.5-3 3.3 0 3.5-.2 3.5-3.5s.2-3.5 3.5-3.5h3.5v6.5zm7 17c0 3.3-.2 3.5-3.5 3.5s-3.5-.2-3.5-3.5.2-3.5 3.5-3.5 3.5.2 3.5 3.5z"/>
  <path d="M1744 1172c0 2.8-.3 3-3.5 3h-3.5v14h7v-14h3.5c3.2 0 3.5-.2 3.5-3s-.3-3-3.5-3-3.5.2-3.5 3zM1654 1185.5c0 3.3.2 3.5 3.5 3.5s3.5-.2 3.5-3.5-.2-3.5-3.5-3.5-3.5.2-3.5 3.5zM1764 1241v3h-13v3.5c0 3.3-.2 3.5-3.5 3.5s-3.5.2-3.5 3.5v3.5h14v3.5c0 3.3-.2 3.5-3.5 3.5h-3.5v14h-3.5c-3.3 0-3.5.2-3.5 3.5s.2 3.5 3.5 3.5 3.5.2 3.5 3.5v3.5h13v-14h7v-14h-7v-14h7v-13h-3.5c-3.2 0-3.5.2-3.5 3zM1661 1234.5c0 3.3.2 3.5 3.5 3.5s3.5-.2 3.5-3.5-.2-3.5-3.5-3.5-3.5.2-3.5 3.5zM1654 1254.5c0 3.3.2 3.5 3.5 3.5s3.5-.2 3.5-3.5-.2-3.5-3.5-3.5-3.5.2-3.5 3.5zM1689 1258v7h-14v14h3.5c3.3 0 3.5.2 3.5 3.5s.2 3.5 3.5 3.5 3.5-.2 3.5-3.5c0-3.2.2-3.5 3-3.5s3-.3 3-3.5-.2-3.5-3-3.5-3-.3-3-3.5.2-3.5 3-3.5h3v-14h-6v7zM1792 1296.5c0 3.3.2 3.5 3.5 3.5s3.5-.2 3.5-3.5-.2-3.5-3.5-3.5-3.5.2-3.5 3.5zM1792 1137.5v24.5h48v-49h-48v24.5zm41 0v17.5h-34v-35h34v17.5z"/>
  <path d="M1806 1137.5v10.5h20v-21h-20v10.5zM918.4 1240c-6.7 2.7-8.7 13.4-3.6 19.1 2.2 2.4 3.8 3.2 7.7 3.7 3.2.3 5.5 1.2 6.5 2.5 1 1.1 2.5 1.8 3.9 1.5l2.3-.3-2.1-2.7-2.1-2.7 2-3.3c6.3-10.3-3.5-22.3-14.6-17.8zm9.7 4.9c1.8 1.4 2.4 2.9 2.4 6.1 0 3.2-.6 4.7-2.4 6.1-3.4 2.7-7.5 2.4-10-.7-6-7.6 2.7-17.5 10-11.5zM956.4 1240.5c-.4.9-.2 2.1.4 2.7 1.5 1.5 4.4.1 4-1.9-.4-2.3-3.6-2.9-4.4-.8zM1022 1251v12h6.5c5.1 0 6.5-.3 6.5-1.5 0-1.1-1.2-1.5-4.5-1.5h-4.5v-10.5c0-9.8-.1-10.5-2-10.5s-2 .7-2 12zM938 1252.9c0 9.2 3.1 12.3 9.1 9.1 1.3-.7 1.9-.7 1.9 0 0 .5.7 1 1.5 1 1.2 0 1.5-1.6 1.5-8.5 0-7.8-.2-8.5-2-8.5s-2 .7-2 6.4c0 5.6-.3 6.6-2 7.1-3.3 1-4-.3-4-7.1 0-5.7-.2-6.4-2-6.4s-2 .7-2 6.9zM957 1254.5c0 6.9.3 8.5 1.5 8.5s1.5-1.6 1.5-8.5-.3-8.5-1.5-8.5-1.5 1.6-1.5 8.5zM965 1254.5c0 7.8.2 8.5 2 8.5s2-.7 2-6.4c0-5.6.3-6.6 2-7.1 3.3-1 4 .3 4 7.1 0 5.7.2 6.4 2 6.4s2-.7 2-6.8c0-5.4-.4-7.2-1.8-8.5-2.1-1.9-4.5-2.1-7.3-.7-1.3.7-1.9.7-1.9 0 0-.5-.7-1-1.5-1-1.2 0-1.5 1.6-1.5 8.5zM984.5 1248.5c-7 6.9 2.1 18.9 9.9 13 2.1-1.6 1.9-1.8-3.4-1.9-2.8-.1-3.6-.6-4.4-2.8-.7-1.9-.6-3.5.2-5.4 1.1-2.3 1.6-2.5 4.7-2 2.7.5 3.5.4 3.5-.7 0-3.5-7.2-3.6-10.5-.2zM997 1246.9c0 .5 1.4 4 3.1 7.8 2.9 6.5 3 6.9 1.5 10-1.5 3.1-1.5 3.3.3 3.3 1.4 0 2.7-1.9 4.9-7.3 1.7-3.9 3.8-8.9 4.6-11 1.6-3.5 1.5-3.7-.3-3.7-1.5 0-2.5 1.3-3.8 5-1 2.7-2 5-2.3 5-.3 0-1.4-2.3-2.4-5-1.3-3.6-2.3-5-3.7-5-1 0-1.9.4-1.9.9zM1040 1247.5c-2.7 1.5-2.3 1.8 3 1.9 4.9.1 5.4 3.1.7 4-4.3.8-7.1 3.7-6.2 6.5.8 2.7 5.1 3.8 7.9 2.1 1.4-.9 2.1-1 2.4-.1.2.6 1 1.1 1.8 1.1 1.1 0 1.4-1.6 1.4-6.5 0-5.2-.4-6.9-2-8.5-2.3-2.3-5.5-2.5-9-.5zm7 9.4c0 2.3-3.7 3.8-5.4 2.1-.8-.8-.6-1.5.8-2.6 2.7-2 4.6-1.8 4.6.5zM1055 1254.5c0 7.8.2 8.5 2 8.5 1.6 0 1.9-.8 2.2-6.3.3-5.9.4-6.2 3.1-6.5 1.9-.2 2.7-.9 2.7-2.3 0-2.2-2.9-2.6-4.9-.7-1.1 1-1.4 1-1.8 0-.3-.6-1.1-1.2-1.9-1.2-1.1 0-1.4 1.8-1.4 8.5zM1068.5 1247.6c-2.5 2.5-1.4 5.7 2.5 7.6 4.7 2.4 4.6 4.4-.2 4.1-4.4-.3-5.4 2.3-1.3 3.3 8.6 2.1 12.8-6.6 4.5-9.4-1.7-.6-3-1.8-3-2.8 0-1.3.6-1.5 3.5-1 2.7.5 3.5.4 3.5-.7 0-3-6.9-3.7-9.5-1.1zM1083.5 1248.5c-5.2 5.1-1.6 14.5 5.5 14.5 4.4 0 8-3.9 8-8.5s-3.6-8.5-8-8.5c-1.9 0-4 .9-5.5 2.5zm8.7 3c2.3 5.1-2 10.6-5.7 7.5-1.8-1.5-2-7.1-.3-8.8 2-2 4.8-1.4 6 1.3zM1100 1254.5c0 7.8.2 8.5 2 8.5s2-.7 2-6.4c0-5.8.2-6.5 2.2-7.2 3.1-1 4.8 1.9 4.8 8.3 0 4 .4 5.3 1.5 5.3 2.2 0 2.1-13.2-.1-15.4-1.8-1.8-6-2.1-7-.5-.4.8-.9.8-1.7 0-2.9-2.9-3.7-1.1-3.7 7.4zM1826 1313.5v27.5h14v-3.5c0-3.3-.2-3.5-3.5-3.5s-3.5-.2-3.5-3.5.2-3.5 3.5-3.5 3.5-.2 3.5-3.5-.2-3.5-3.5-3.5-3.5-.2-3.5-3.5.2-3.5 3.5-3.5c3.2 0 3.5-.2 3.5-3s-.3-3-3.5-3c-3.3 0-3.5-.2-3.5-3.5s.2-3.5 3.5-3.5h3.5v-14h-14v27.5zM1613 1317v24h48v-48h-48v24zm41 0v17h-34v-34h34v17z"/>
  <path d="M1627 1317v10h20v-20h-20v10zM746 1317v12h7c4 0 7-.4 7-1s-2.5-1-5.5-1H749v-9h4.5c2.5 0 4.5-.5 4.5-1 0-.6-2-1-4.5-1H749v-9h5.5c3 0 5.5-.5 5.5-1 0-.6-3-1-7-1h-7v12zM841 1307c0 1.5.5 2 1.8 1.8.9-.2 1.7-1 1.7-1.8s-.8-1.6-1.7-1.8c-1.3-.2-1.8.3-1.8 1.8zM888 1317v12.2l7-.4c6-.3 7.4-.8 9.8-3.1 2.3-2.4 2.7-3.5 2.7-8.7 0-5.2-.4-6.3-2.7-8.7-2.4-2.3-3.8-2.8-9.8-3.1l-7-.4v12.2zm14.1-7.1c4.1 4.2 4.1 10.1-.1 14.2-2.4 2.5-3.7 3-6.7 2.7l-3.8-.3-.3-8.4c-.2-4.6-.1-9 .2-9.8.3-.7 2.1-1.3 4.1-1.3 2.7 0 4.4.8 6.6 2.9zM912.4 1306.1c-1 1.7 1.3 3.6 2.7 2.2 1.2-1.2.4-3.3-1.1-3.3-.5 0-1.2.5-1.6 1.1zM1020.8 1306.1c-1 .5-1.8 2.1-1.8 3.4 0 1.6-.6 2.5-1.5 2.5-.8 0-1.5.4-1.5 1 0 .5.7 1 1.5 1 1.2 0 1.5 1.5 1.5 7.5 0 9.6 1.8 9.8 2.2.2.3-6.6.5-7.2 2.6-7.5 3-.5 2.8-2.2-.3-2.2-1.4 0-2.5-.3-2.5-.6 0-1.6 2.3-4.4 3.5-4.4.8 0 1.5-.5 1.5-1 0-1.3-3-1.2-5.2.1zM1078.4 1308.4c-2.9 2.9-3.4 4.1-3.4 8 0 7.9 3.9 12.6 10.5 12.6 2.7 0 7.5-1.9 7.5-3 0-1.6-1.4-1.8-3.6-.4-3 2-7.8 1-9.9-1.9-1.7-2.4-2-9.9-.5-12.6 1.6-3.1 6.5-4.6 10-3.1 1.7.7 3.4.9 3.8.6 1.3-1.4-3.1-3.6-7.1-3.6-3.1 0-4.6.7-7.3 3.4zM1125 1308.9c0 3.9 0 4-3.3 3.4-2.8-.4-3.7-.1-5.5 2.2-2.9 3.6-2.9 9.8-.2 12.5 2.3 2.3 4.2 2.5 7.3.9 1.6-.9 2.2-.9 2.5 0 .2.6.8 1.1 1.3 1.1s.9-5.4.9-12c0-10-.2-12-1.5-12-1.1 0-1.5 1.1-1.5 3.9zm-1.6 5.7c2.5 1 2.2 10-.4 11.4-3.4 1.8-6-.4-6-5 0-5.3 2.6-7.9 6.4-6.4zM1154.8 1306.6c-10 5.4-6.1 22.4 5.2 22.4 3.8 0 8.4-2.5 7.5-4.1-.4-.5-1.5-.3-2.8.6-3.1 2.2-6.2 1.9-9.4-.9-2.4-2.1-2.8-3.2-2.8-7.6 0-4.4.4-5.5 2.8-7.6 3-2.6 5.7-3 8.8-1.4 1.1.6 2.4.8 3.1.4 1.6-1-3.1-3.3-6.7-3.3-1.6 0-4.2.6-5.7 1.5zM830.8 1307.6c-.5.4-.8 1.6-.8 2.6s-.7 1.8-1.5 1.8-1.5.4-1.5 1c0 .5.7 1 1.5 1 1.2 0 1.5 1.4 1.5 6.4 0 4.3.5 6.7 1.5 7.6 1.8 1.5 4.7 1 5.3-.9.3-1 0-1.2-1.1-.8-2.3.9-3.9-2.5-3.5-7.6.2-3.5.7-4.3 2.6-4.5 3-.4 2.8-2.2-.2-2.2-1.9 0-2.5-.6-2.8-2.6-.2-1.4-.6-2.2-1-1.8zM966.8 1307.6c-.5.4-.8 1.6-.8 2.6s-.7 1.8-1.5 1.8-1.5.4-1.5 1c0 .5.7 1 1.5 1 1.2 0 1.5 1.4 1.5 6.4 0 4.3.5 6.7 1.5 7.6 1.8 1.5 4.7 1 5.3-.9.3-1 0-1.2-1.1-.8-2.3.9-3.9-2.5-3.5-7.6.2-3.5.7-4.3 2.6-4.5 3-.4 2.8-2.2-.2-2.2-1.9 0-2.5-.6-2.8-2.6-.2-1.4-.6-2.2-1-1.8zM763 1312.6c0 .3 1.1 2.1 2.4 4.1l2.5 3.6-2.5 3.8c-2.7 4.3-2.8 4.9-1.4 4.9.5 0 2-1.6 3.3-3.6l2.5-3.5 2.2 3.5c1.2 2 2.8 3.6 3.6 3.6 1.1 0 .8-1.1-1.2-4.5l-2.6-4.6 2.6-3.9c1.9-3 2.3-4 1.2-4-.8 0-2.3 1.3-3.3 3-.9 1.6-2.1 3-2.5 3-.4 0-1.4-1.4-2.3-3-1.3-2.5-4.5-4.3-4.5-2.4zM781.3 1313.5c-3 2.1-3.9 7.4-1.9 11.3 2.2 4.2 6.4 5.4 10.7 3.1 3-1.5 1.3-2.9-2.1-1.6-2.4.9-3.2.8-4.9-.8-3.6-3.2-2.7-4.5 3.4-4.5 5.2 0 5.5-.1 5.5-2.5 0-5.3-6.2-8.2-10.7-5zm7.1 2.1c2.6 2.5 1.9 3.4-2.9 3.4-4.9 0-5.3-.4-2.8-3.2 2-2.2 3.7-2.3 5.7-.2zM797.5 1314.5c-6.5 6.4.7 17.7 8.6 13.4 1.1-.5 1.7-1.4 1.4-2-.4-.6-1.3-.5-2.5.1-1 .5-2.3 1-2.9 1-2 0-4.1-3.3-4.1-6.4 0-4.5 2.7-6.8 7.1-6 3.2.5 3.3.5 1.5-1-2.8-2.3-6.3-2-9.1.9zM811 1318.9c0 5 .4 7.4 1.6 8.5 1.9 1.9 5.5 2.1 7.3.3 1.1-1 1.4-1 1.8 0 1.3 3.6 2.3.4 2.3-7.2 0-6.9-.3-8.5-1.5-8.5s-1.5 1.4-1.5 6.5c0 5.3-.3 6.6-1.9 7.5-4.2 2.2-6.1-.7-6.1-9.3 0-2.6-.4-4.7-1-4.7s-1 3-1 6.9zM841 1320.5c0 6.9.3 8.5 1.5 8.5s1.5-1.6 1.5-8.5-.3-8.5-1.5-8.5-1.5 1.6-1.5 8.5zM849.1 1317.2c1.2 2.9 2.6 6.8 3.2 8.6 1.7 5.2 3.8 3.6 7.4-5.6 2.6-6.7 2.9-8.3 1.6-8-.9.2-2.5 2.8-3.6 6-1.2 3.2-2.4 5.8-2.7 5.8-.3 0-1.5-2.6-2.7-5.8-1.2-3.4-2.7-5.8-3.7-6-1.4-.3-1.4.3.5 5zM866.2 1314.3c-6.5 6.9 1.6 18.1 9.9 13.6 2.8-1.5 1.3-3.1-1.6-1.7-3.3 1.5-7.5-.3-7.5-3.2 0-1.8.6-2 5.5-2 4.7 0 5.5-.3 5.5-1.9 0-1-.9-3-2.1-4.5-2.6-3.3-6.8-3.4-9.7-.3zm7.6.9c2.4 2.4 1.3 3.8-2.8 3.8-4.3 0-5.5-2-2.2-3.9 2.3-1.4 3.6-1.3 5 .1zM913 1320.5c0 5 .4 8.5 1 8.5s1-3.5 1-8.5-.4-8.5-1-8.5-1 3.5-1 8.5zM920 1320.5c0 6.9.3 8.5 1.5 8.5s1.5-1.3 1.5-5.8c0-6.6.9-8.5 4.1-8.7 1.3-.1 2.5-.7 2.7-1.3.5-1.5-2.3-1.6-4.8-.2-1.3.7-2.1.7-2.5 0-1.7-2.7-2.5-.2-2.5 7.5zM934.5 1314.5c-6.8 6.7 1.2 17.9 9.6 13.4 1.1-.5 1.7-1.4 1.4-2-.4-.6-1.3-.5-2.5.1-2.6 1.4-4.6 1.2-6.4-.6-3.1-3.1-2-4.4 3.9-4.4 5.2 0 5.5-.1 5.5-2.5 0-3.2-3.3-6.5-6.5-6.5-1.4 0-3.7 1.1-5 2.5zm7.7 1.2c2.8 2.5 2.2 3.3-2.7 3.3-4.8 0-5.5-.9-2.9-3.4 2-2 3.3-2 5.6.1zM951.2 1314.3c-4.7 4.9-1.5 14.7 4.7 14.7 2.9 0 6.3-1.8 5.6-3.1-.4-.5-1.4-.5-2.7.2-2.9 1.5-6.8-.3-6.9-3.3-.4-6.7 1.7-9.3 6.3-8.2 3 .6 3.9-1 1.2-2-3.1-1.2-6.1-.6-8.2 1.7zM978 1314c-1.4 1.4-2 3.3-2 6.5 0 5.4 2.5 8.5 6.9 8.5 4.8 0 7.6-3.1 7.6-8.5 0-3.7-.5-5.1-2.4-6.6-3-2.5-7.6-2.4-10.1.1zm8.4 2.2c.9 1.2 1.6 3.2 1.6 4.3 0 2.7-2.7 6.5-4.6 6.5-2.2 0-5.4-3.8-5.4-6.5s3.2-6.5 5.4-6.5c.8 0 2.2 1 3 2.2zM994 1320.5c0 6.9.3 8.5 1.5 8.5s1.5-1.3 1.5-5.8c0-6.2 1.8-9.2 5.3-9.2.9 0 1.7-.5 1.7-1 0-1.6-3.7-1.2-5.4.6-1.5 1.4-1.6 1.4-1.6 0 0-.9-.7-1.6-1.5-1.6-1.2 0-1.5 1.6-1.5 8.5zM1029 1320.5c0 6.9.3 8.5 1.5 8.5s1.5-1.3 1.5-5.8c0-6.6.9-8.5 4.1-8.7 1.3-.1 2.5-.7 2.7-1.3.5-1.5-2.3-1.6-4.8-.2-1.3.7-2.1.7-2.5 0-1.7-2.7-2.5-.2-2.5 7.5zM1043.2 1314.3c-6.5 6.9 1.6 18.1 9.9 13.6 2.8-1.5 1.3-3.1-1.6-1.7-3.3 1.5-7.5-.3-7.5-3.2 0-1.8.6-2 5.5-2 4.7 0 5.5-.3 5.5-1.9 0-1-.9-3-2.1-4.5-2.6-3.3-6.8-3.4-9.7-.3zm7.6.9c2.4 2.4 1.3 3.8-2.8 3.8-4.3 0-5.5-2-2.2-3.9 2.3-1.4 3.6-1.3 5 .1zM1060 1314c-2.9 2.9-2.8 10.2.2 13 2.4 2.2 5.8 2.6 8.9 1 2.9-1.6 2.4-3.1-.7-2-3.5 1.4-4.1 1.3-6.4-1-3.2-3.2-2.4-4 4.1-4h6.1l-.7-2.8c-1.5-6.1-7.4-8.3-11.5-4.2zm7.1 1c3.6 2 2.3 4-2.6 4-4.2 0-4.5-.2-3.5-1.9.8-1.6 2.1-2.6 3.8-3 .2-.1 1.2.4 2.3.9zM1098.9 1313.9c-1.9 1.5-2.4 2.9-2.4 6.6 0 5.4 2.8 8.5 7.6 8.5 4.4 0 6.9-3.1 6.9-8.5 0-7.6-6.5-11.2-12.1-6.6zm8.1 2.1c1.1 1.1 2 3.1 2 4.5 0 2.6-3.1 6.5-5.2 6.5-4.1 0-6.1-6.6-3.2-10.8 1.9-2.7 3.8-2.8 6.4-.2zM1134.5 1314.5c-6.8 6.7 1.2 17.9 9.6 13.4 1.1-.5 1.7-1.4 1.4-2-.4-.6-1.3-.5-2.5.1-2.6 1.4-4.6 1.2-6.4-.6-3.1-3.1-2-4.4 3.9-4.4 5.2 0 5.5-.1 5.5-2.5 0-3.2-3.3-6.5-6.5-6.5-1.4 0-3.7 1.1-5 2.5zm7.7 1.2c2.8 2.5 2.2 3.3-2.7 3.3-4.8 0-5.5-.9-2.9-3.4 2-2 3.3-2 5.6.1zM1173.4 1313.4c-2.6 1.9-1.3 3 1.9 1.5 2.1-.9 3-.9 4.2.1 2.5 2.1 1.7 3.7-2.4 4.4-4.4.7-6.4 2.6-5.9 5.7.5 3.3 3.1 4.6 6.8 3.2 1.6-.6 3-.7 3-.2 0 .5.5.9 1 .9.6 0 1-3.2 1-7.5 0-6.3-.3-7.6-1.9-8.5-2.7-1.4-5.4-1.3-7.7.4zm7.6 9.6c0 2.7-4.3 4.8-6.4 3.1-1.8-1.5-1.1-3.8 1.2-4.4 3.8-1 5.2-.7 5.2 1.3zM1188 1320.5c0 6.9.3 8.5 1.5 8.5s1.5-1.4 1.5-6.4c0-6.7 1.5-9.4 4.5-8.2 1.1.4 1.5 2.2 1.5 7.6 0 5.6.3 7 1.5 7s1.5-1.3 1.5-5.9c0-4.1.5-6.5 1.6-7.5 3.4-3.5 5.4-.8 5.4 7.1 0 4.9.3 6.3 1.5 6.3 2.1 0 2.1-11.7-.1-14.8-1.8-2.5-5.6-2.9-7.4-.7-1.2 1.4-1.5 1.4-3 0-2-1.8-4.1-1.9-5.9-.3-1.1 1-1.4 1-1.8 0-1.3-3.5-2.3-.3-2.3 7.3zM1214 1323.5c0 9.6.3 11.5 1.5 11.5 1 0 1.5-1 1.5-3.4 0-3.4.1-3.5 3.4-2.9 3.9.6 7.5-2.2 7.7-6 .5-8.9-3.3-12.8-9.2-9.7-1.3.7-1.9.7-1.9 0 0-.5-.7-1-1.5-1-1.2 0-1.5 1.9-1.5 11.5zm10.9-6.4c1.9 3.4.7 7.6-2.4 9.1-3.6 1.6-5.5-.4-5.5-5.8 0-6.5 4.9-8.6 7.9-3.3zM1240 1314c-1.4 1.4-2 3.3-2 6.5 0 5.4 2.5 8.5 6.9 8.5 4.8 0 7.6-3.1 7.6-8.5 0-3.7-.5-5.1-2.4-6.6-3-2.5-7.6-2.4-10.1.1zm8.4 2.2c.9 1.2 1.6 3.2 1.6 4.3 0 2.7-2.7 6.5-4.6 6.5-2.2 0-5.4-3.8-5.4-6.5s3.2-6.5 5.4-6.5c.8 0 2.2 1 3 2.2zM1256 1320.5c0 6.9.3 8.5 1.5 8.5s1.5-1.3 1.5-5.8c0-6.2 1.8-9.2 5.3-9.2.9 0 1.7-.5 1.7-1 0-1.6-3.7-1.2-5.4.6-1.5 1.4-1.6 1.4-1.6 0 0-.9-.7-1.6-1.5-1.6-1.2 0-1.5 1.6-1.5 8.5zM1270.7 1313.5c-1.9 1.8-2.3 6-.7 7 .7.4.7 1.2 0 2.5-.5 1-.7 2.5-.4 3.3.3.8.1 1.8-.5 2.2-1.8 1-1.3 4.3.8 5.5 5.2 2.7 12.4-.2 11.9-4.8-.3-2.4-.8-2.8-4.7-3.2-4.7-.5-7.1-3-2.9-3 3.8 0 7.1-2.8 6.5-5.6-.3-1.6 0-2.4.9-2.4.8 0 1.4-.5 1.4-1 0-.6-.8-1-1.7-1-1 0-3.4-.3-5.4-.6-2.6-.4-4-.2-5.2 1.1zm5.7 1.1c2.4.9 2 5.1-.4 5.9-3.7 1.2-6.4-2.7-3.8-5.3 1.4-1.4 2-1.4 4.2-.6zm3.2 14.6c.8 1.3-2.2 3.8-4.6 3.8-2.4 0-5.4-2.5-4.6-3.8.4-.7 2.5-1.2 4.6-1.2 2.1 0 4.2.5 4.6 1.2zM1005.3 1328.9c.1 3.1.4 3.8 1.4 2.9 1.8-1.5 1.7-6.8-.1-6.8-1.1 0-1.5 1.1-1.3 3.9zM1231.4 1326.1c-1 1.7 1.3 3.6 2.7 2.2 1.2-1.2.4-3.3-1.1-3.3-.5 0-1.2.5-1.6 1.1zM486 1409.5c0 .8.7 1.5 1.5 1.5s1.5-.7 1.5-1.5-.7-1.5-1.5-1.5-1.5.7-1.5 1.5zM531 1418c0 10.7 1.7 14 2.2 4.3.2-4.8.6-5.8 2.2-6.1 2.8-.6 4.6 2.5 4.6 7.5 0 2.4.5 4.3 1 4.3.6 0 1-2.4 1-5.4 0-6.6-1.9-9.1-6.2-8.2-2.6.5-2.8.4-2.8-2.9 0-1.9-.4-3.5-1-3.5s-1 4-1 10zM545.7 1408.6c-.8.8.1 2.4 1.4 2.4.5 0 .9-.7.9-1.5 0-1.5-1.2-2-2.3-.9zM616 1409.5c0 .8.7 1.5 1.5 1.5s1.5-.7 1.5-1.5-.7-1.5-1.5-1.5-1.5.7-1.5 1.5zM625.3 1409.9c-4.3 4.7-4.7 5.5-3.5 5.9.8.2 1.2 2.5 1.2 6.3 0 4.6.3 5.9 1.5 5.9s1.5-1.3 1.5-6v-6h6v6c0 3.3.4 6 1 6s1-3 1-7v-7h-4.5c-4.3 0-4.5-.1-3.5-2 .6-1.1 2-2 3-2 1.1 0 2-.5 2-1 0-1.7-3.9-1.1-5.7.9zM674 1409.5c0 .8.7 1.5 1.5 1.5s1.5-.7 1.5-1.5-.7-1.5-1.5-1.5-1.5.7-1.5 1.5zM744 1418c0 8.1.3 10 1.5 10 1 0 1.5-1.5 1.7-5.8.3-5.3.5-5.7 2.8-5.7s2.5.4 2.8 5.7c.4 7.6 2.2 7.5 2.2-.1 0-6.6-1.5-8.7-5.5-7.7-2.3.6-2.5.4-2.5-2.9 0-2.4-.5-3.5-1.5-3.5-1.2 0-1.5 1.8-1.5 10zM816.2 1413.2c-1.1 2.9-2.9 7.7-4.1 10.6-1.3 3.2-1.7 5.2-1 5 .6-.2 2.9-4.9 5-10.3 4.4-11.4 4.2-10.5 3-10.5-.4 0-1.7 2.4-2.9 5.2zM824.2 1413.2c-1.1 2.9-2.9 7.7-4.1 10.6-1.3 3.2-1.7 5.2-1 5 .6-.2 2.9-4.9 5-10.3 4.4-11.4 4.2-10.5 3-10.5-.4 0-1.7 2.4-2.9 5.2zM913 1411.4c0 3-.2 3.3-2.5 2.8-3.9-.7-6.5 2.2-6.5 7.5 0 3.7.4 4.5 2.6 5.5 1.9.9 3 .9 4.3.1 1.4-.9 2.1-.9 3 0 .8.8 1.1-1.5 1.1-9.1 0-6.1-.4-10.2-1-10.2-.5 0-1 1.5-1 3.4zm-.5 9.6c0 4-.3 4.5-2.4 4.8-2.7.4-4.1-1.2-4.1-4.9 0-3.1 1.8-5.1 4.5-4.7 1.7.3 2 1.1 2 4.8zM1046.3 1409.7c-.3 1-2.1 5.6-3.9 10.2-3.8 9.6-3.7 9.1-2.5 9.1.4 0 1.7-2.4 2.9-5.3 1.1-2.8 2.9-7.6 4.1-10.5 1.1-2.8 1.6-5.2 1.1-5.2-.6 0-1.3.8-1.7 1.7zM1096.5 1408.9c-.7 1.2 1.2 2.4 2.5 1.6 1.1-.7.4-2.5-1-2.5-.5 0-1.1.4-1.5.9zM1105.6 1409.6c-.9.8-1.6 2.1-1.6 2.9 0 .7-.6 1.6-1.2 1.9-1 .5-1 .7 0 1.2.7.4 1.2 2.7 1.2 6.5 0 3.3.4 5.9 1 5.9s1-2.7 1-6v-6h6v6c0 3.3.4 6 1 6s1-3 1-7v-7h-4.1c-3.3 0-4-.3-3.7-1.8.2-1 1.4-1.8 3.1-2 1.5-.2 2.7-.8 2.7-1.3 0-1.5-4.7-1-6.4.7zM1154.7 1408.6c-.8.8.1 2.4 1.4 2.4.5 0 .9-.7.9-1.5 0-1.5-1.2-2-2.3-.9zM1196.3 1409.7c-.3 1-2.1 5.6-3.9 10.2-3.8 9.6-3.7 9.1-2.5 9.1.4 0 1.7-2.4 2.9-5.3 1.1-2.8 2.9-7.6 4.1-10.5 1.1-2.8 1.6-5.2 1.1-5.2-.6 0-1.3.8-1.7 1.7zM1313.6 1408.9c-1.5 2.4-7.6 19.5-7.1 19.9.7.8.8.7 5.3-10.6 2.2-5.6 3.7-10.2 3.2-10.2s-1.1.4-1.4.9zM1408.5 1408.9c-.7 1.2 1.2 2.4 2.5 1.6 1.1-.7.4-2.5-1-2.5-.5 0-1.1.4-1.5.9zM1486 1417.8v9.8l4.2.1c5.5.3 7.8-1.8 7.8-6.8 0-4.8-2.3-7.3-6.2-6.5-2.6.5-2.8.4-2.8-2.9 0-2.4-.5-3.5-1.5-3.5-1.2 0-1.5 1.8-1.5 9.8zm8.9-.4c2.8 3.4-.5 9.7-4.3 8.3-1.6-.6-2.4-7.6-.9-9 1.1-1.2 4-.8 5.2.7zM1519 1411.5c0 3.3-.2 3.4-2.8 2.9-5.1-1-8.6 4.9-6 10.3 1.5 3.1 5 4.2 7.4 2.3 1-.9 1.4-.9 1.4-.1 0 .6.5 1.1 1 1.1.6 0 1-4 1-10s-.4-10-1-10c-.5 0-1 1.6-1 3.5zm-.2 9.2c.3 3.8.1 4.3-2.2 4.9-3.3.8-4.6-.2-4.6-3.6 0-4.7 1-6.1 3.9-5.8 2.3.3 2.6.8 2.9 4.5zM1551 1409.5c0 .9.5 1.5 1.1 1.3.6-.2 1.1-.8 1.1-1.3s-.5-1.1-1.1-1.3c-.6-.2-1.1.4-1.1 1.3zM443.2 1410.1c.3.8 2.1 5.1 3.9 9.6 1.7 4.6 3.8 8.3 4.5 8.3 1.1 0 8.4-15.8 8.4-18.2 0-2.8-2.6.6-4.9 6.4-1.4 3.7-2.9 6.9-3.2 7.2-.3.3-1.9-2.7-3.5-6.6-1.6-3.9-3.5-7.4-4.3-7.6-.9-.3-1.2 0-.9.9zM494.8 1410.5c-.7.9-2 2.3-2.8 3.2-1.1 1.2-1.2 1.7-.2 2.1.8.2 1.2 2.5 1.2 6.3 0 4.6.3 5.9 1.5 5.9s1.5-1.3 1.5-6 .3-6 1.5-6c.8 0 1.5-.5 1.5-1 0-.6-.9-1-2-1-1.3 0-1.8-.5-1.4-1.5.4-.8 1.2-1.5 1.9-1.5.8 0 1.7-.5 2-1 1-1.6-3.3-1.1-4.7.5zM831.2 1410.2c-.7.7-1.2 1.7-1.2 2.4s-.6 1.5-1.2 1.8c-1 .5-1 .7 0 1.2.7.4 1.2 2.7 1.2 6.5 0 3.3.4 5.9 1 5.9s1-2.7 1-6c0-5.3.2-6 2-6 1.1 0 2-.5 2-1 0-.6-.9-1-2-1s-2-.5-2-1.1c0-.6.9-1.3 2-1.6 1.1-.3 2-.9 2-1.4 0-1.3-3.4-1.1-4.8.3zM1204.3 1410c-1.2.5-2.9 2.3-3.8 4.1-3.4 6.4 1 13.9 7.9 13.9 3.6 0 7.6-2.3 5.8-3.4-.6-.3-1.3-.2-1.7.4-1.1 1.7-6.4 1.1-8.5-1-2.7-2.7-2.7-8.3.1-11.1 1.8-1.8 2.9-2 6.8-1.5 4.2.5 4.4.4 2.7-.9-2.2-1.7-5.9-1.8-9.3-.5zM1219 1418.5v9.5h4.6c7.7 0 11.3-3 11.3-9.5s-3.6-9.5-11.3-9.5h-4.6v9.5zm11.9-4.9c1.2 1.5 2.1 3.7 2.1 4.9 0 1.2-.9 3.4-2.1 4.9-1.6 2-2.9 2.6-6 2.6h-3.9v-15h3.9c3.1 0 4.4.6 6 2.6zM522 1411.5c0 .7-.8 1.9-1.7 2.4-1.3.8-1.5 1.3-.6 1.9.6.4 1.3 2.9 1.5 5.6.3 5.4 2.2 7.5 5.4 6.1 1.8-.8 1.7-.9-.3-1.2-2-.4-2.3-1-2.3-5.4 0-3.7.4-4.9 1.5-4.9.8 0 1.5-.5 1.5-1 0-.6-.7-1-1.5-1s-1.5-.9-1.5-2-.4-2-1-2c-.5 0-1 .7-1 1.5zM607 1411.9c0 1.1-.6 2.2-1.2 2.5-1 .5-1 .7 0 1.2.7.3 1.2 2.6 1.2 6 0 5.8 1.3 7.3 4.8 5.9 1.5-.6 1.4-.8-.5-1.6-1.9-.7-2.3-1.6-2.3-5.4 0-3.8.3-4.5 2-4.5 1.1 0 2-.5 2-1 0-.6-.9-1-2-1-1.3 0-2-.7-2-2 0-1.1-.4-2-1-2-.5 0-1 .9-1 1.9zM665 1411.9c0 1.1-.6 2.2-1.2 2.5-1 .5-1 .7 0 1.2.7.3 1.2 2.6 1.2 6 0 5.8 1.3 7.3 4.8 5.9 1.5-.6 1.4-.8-.5-1.6-1.9-.7-2.3-1.6-2.3-5.4 0-3.8.3-4.5 2-4.5 1.1 0 2-.5 2-1 0-.6-.9-1-2-1-1.3 0-2-.7-2-2 0-1.1-.4-2-1-2-.5 0-1 .9-1 1.9zM730 1411.9c0 1.1-.6 2.2-1.2 2.5-1 .5-1 .7 0 1.2.7.3 1.2 2.6 1.2 6 0 5.8 1.3 7.3 4.8 5.9 1.5-.6 1.4-.8-.5-1.6-1.9-.7-2.3-1.6-2.3-5.4 0-3.8.3-4.5 2-4.5 1.1 0 2-.5 2-1 0-.6-.9-1-2-1-1.3 0-2-.7-2-2 0-1.1-.4-2-1-2-.5 0-1 .9-1 1.9zM760 1411.9c0 1.1-.6 2.2-1.2 2.5-1 .5-1 .7 0 1.2.7.3 1.2 2.6 1.2 6 0 5.8 1.3 7.3 4.8 5.9 1.5-.6 1.4-.8-.5-1.6-1.9-.7-2.3-1.6-2.3-5.4 0-3.8.3-4.5 2-4.5 1.1 0 2-.5 2-1 0-.6-.9-1-2-1-1.3 0-2-.7-2-2 0-1.1-.4-2-1-2-.5 0-1 .9-1 1.9zM770 1411.9c0 1.1-.6 2.2-1.2 2.5-1 .5-1 .7 0 1.2.7.3 1.2 2.6 1.2 6 0 5.8 1.3 7.3 4.8 5.9 1.5-.6 1.4-.8-.5-1.6-1.9-.7-2.3-1.6-2.3-5.4 0-3.8.3-4.5 2-4.5 1.1 0 2-.5 2-1 0-.6-.9-1-2-1-1.3 0-2-.7-2-2 0-1.1-.4-2-1-2-.5 0-1 .9-1 1.9zM1088 1411.5c0 .7-.8 1.9-1.7 2.4-1.3.8-1.5 1.3-.6 1.9.6.4 1.3 2.9 1.5 5.6.3 5.4 2.2 7.5 5.4 6.1 1.8-.8 1.7-.9-.3-1.2-2-.4-2.3-1-2.3-5.4 0-3.7.4-4.9 1.5-4.9.8 0 1.5-.5 1.5-1 0-.6-.7-1-1.5-1s-1.5-.9-1.5-2-.4-2-1-2c-.5 0-1 .7-1 1.5zM1145.5 1411.5c-.5 1.1-1.3 2.4-1.9 2.8-.8.6-.7 1 .2 1.4.7.3 1.2 2.3 1.2 4.8 0 5.6.8 7.5 3 7.5 2.7 0 3.4-1.7 1-2.3-1.6-.4-2-1.4-2-5.1 0-3.9.3-4.6 2-4.6 1.1 0 2-.5 2-1 0-.6-.9-1-1.9-1-1.2 0-2.1-.8-2.4-2.3-.3-2.1-.4-2.1-1.2-.2zM462.6 1415.6c-2.7 2.7-3.1 6.3-.9 9.2 2.4 3.2 7.3 4.1 9.3 1.8 1.1-1.4.9-1.5-1.9-1-3.3.7-6.1-.8-6.1-3.2 0-1 1.3-1.4 4.5-1.4 3.8 0 4.5-.3 4.5-1.9 0-4.5-6.2-6.8-9.4-3.5zm7.2 2.1c.2.9-.8 1.3-3.2 1.3-3.4 0-4.4-.8-2.9-2.4 1.1-1.1 5.6-.2 6.1 1.1zM475 1421c0 5.4.3 7 1.5 7 1 0 1.5-1.5 1.7-5.8.3-5 .6-5.7 2.6-6 1.2-.2 2.2-.8 2.2-1.3 0-1.2-1.7-1.1-4.1.1-1.3.7-1.9.7-1.9 0 0-.5-.4-1-1-1s-1 3-1 7zM486 1421c0 5.6.3 7 1.5 7s1.5-1.4 1.5-7-.3-7-1.5-7-1.5 1.4-1.5 7zM501.6 1417.7c3.3 7.6 3.8 10.1 2.6 12.8-.9 1.9-.9 2.5.1 2.5s3.8-5.9 8.4-17.8c.3-.6 0-1.2-.6-1.2s-1.5 1-2 2.2c-.5 1.3-1.4 3.6-2.1 5.3l-1.2 3-2-5.3c-1.2-2.8-2.7-5.2-3.4-5.2-1.2 0-1.1.7.2 3.7zM546 1421c0 4 .4 7 1 7s1-3 1-7-.4-7-1-7-1 3-1 7zM553.3 1414.6c-.7.3-1.3 1.7-1.3 3.1 0 1.8.8 2.8 3 3.6 4 1.5 4.2 4.9.3 4.7-4.2-.3-5-.1-3.3 1 2.3 1.5 5.7 1.2 7.4-.6 2.5-2.5 1.9-4.4-1.9-6-4.5-1.8-4.8-4.8-.5-4.2 1.9.3 2.9.1 2.7-.6-.4-1.2-4.5-1.8-6.4-1zM570.3 1415.5c-2.9 2.1-3.2 8.4-.5 10.8 2.3 2.1 6.5 2.2 8.2.2 1-1.2.6-1.3-2.4-.8-3.1.5-3.7.2-4.7-2.1-1-2-1-3.2 0-5.2.9-2.2 1.7-2.5 4.2-2.2 1.8.3 2.8.1 2.6-.6-.6-1.8-5-1.8-7.4-.1zM582.6 1415.6c-2.7 2.7-3.1 6.3-.9 9.2 2.4 3.2 7.3 4.1 9.3 1.8 1.1-1.4.9-1.5-1.9-1-3.3.7-6.1-.8-6.1-3.2 0-1 1.3-1.4 4.5-1.4 3.8 0 4.5-.3 4.5-1.9 0-4.5-6.2-6.8-9.4-3.5zm7.2 2.1c.2.9-.8 1.3-3.2 1.3-3.4 0-4.4-.8-2.9-2.4 1.1-1.1 5.6-.2 6.1 1.1zM595 1421c0 5.4.3 7 1.5 7 1 0 1.5-1.5 1.7-5.8.3-5 .6-5.7 2.6-6 1.2-.2 2.2-.8 2.2-1.3 0-1.2-1.7-1.1-4.1.1-1.3.7-1.9.7-1.9 0 0-.5-.4-1-1-1s-1 3-1 7zM616 1421c0 5.6.3 7 1.5 7s1.5-1.4 1.5-7-.3-7-1.5-7-1.5 1.4-1.5 7zM639 1416c-4.1 4.1-1.2 12 4.4 12 1.3 0 2.9-.7 3.6-1.5 1-1.2.6-1.3-2.4-.8-3.2.5-3.7.3-4.6-2.1-1.5-4.1.3-7.8 3.8-7.6 4.1.3 4.9.1 3.2-1-2.4-1.6-5.9-1.1-8 1zM652.3 1414.7c-2.4.9-1.3 2.1 1.9 1.9 2.3-.1 3.3.4 3.6 1.6.2 1.1-.3 1.8-1.2 1.8-3.3 0-6.6 2.3-6.6 4.6 0 2.8 3.7 4.1 6.8 2.5 1.5-.8 2.2-.8 2.5.2.3.6.6-1.5.6-4.9.1-3.4-.4-6.5-1.1-7.2-1.2-1.2-4.3-1.5-6.5-.5zm5.5 9c-.4 2.1-3.6 2.9-5.1 1.4-.9-.9-.8-1.4.3-2.1 2.5-1.6 5.2-1.2 4.8.7zM674 1421c0 5.6.3 7 1.5 7s1.5-1.4 1.5-7-.3-7-1.5-7-1.5 1.4-1.5 7zM682.2 1415.6c-3.3 2.3-2.8 9.2.9 11.3 3.6 2 7.4.8 8.9-2.8 2.9-7.1-3.7-12.8-9.8-8.5zm7.3 5.4c0 4.2-.2 4.5-2.7 4.8-2.2.3-3-.2-4-2.2-1.7-3.9.3-7.8 4-7.4 2.5.3 2.7.6 2.7 4.8zM696 1421.2c0 8.3 1.8 9.1 2.2 1.1.2-4.8.6-5.8 2.2-6.1 2.8-.6 4.6 2.5 4.6 7.5 0 2.4.5 4.3 1 4.3 1.3 0 1.3-10 0-12-.6-1-2.5-1.5-5.5-1.5H696v6.7zM717.3 1414.7c-2.4.9-1.3 2.1 1.9 1.9 2.3-.1 3.3.4 3.6 1.6.2 1.1-.3 1.8-1.2 1.8-3.3 0-6.6 2.3-6.6 4.6 0 2.8 3.7 4.1 6.8 2.5 1.5-.8 2.2-.8 2.5.2.3.6.6-1.5.6-4.9.1-3.4-.4-6.5-1.1-7.2-1.2-1.2-4.3-1.5-6.5-.5zm5.5 9c-.4 2.1-3.6 2.9-5.1 1.4-.9-.9-.8-1.4.3-2.1 2.5-1.6 5.2-1.2 4.8.7zM779 1423.5c0 5.7.4 9.5 1 9.5s1-1.3 1-3c0-2.7.2-2.9 2.9-2.4 6 1.2 9.8-7.9 5-12.1-1.7-1.6-2.5-1.7-5-.8-1.6.6-2.9.7-2.9.2 0-.5-.4-.9-1-.9s-1 3.8-1 9.5zm9.1-5.2c1.5 3.4-.4 7.7-3.5 7.7-2.5 0-3.6-1.6-3.6-5.4 0-4.6 5.2-6.4 7.1-2.3zM794.2 1415.2c-2.3 2.3-1.3 4.8 2.4 6.4 4.2 1.8 4 4-.5 3.7-3.6-.1-3.9 2-.3 2.5 6.3.9 8.4-5 2.6-7.4-3.9-1.6-4.1-3.8-.3-4.1 4.2-.2 4.4-.3 2.9-1.3-2.1-1.3-5.4-1.2-6.8.2zM805.7 1414.7c-1.2 1.1-.8 2.3.8 2.3.8 0 1.5-.7 1.5-1.5 0-1.6-1.2-2-2.3-.8zM839 1420.9c0 4.1.4 7.1 1 7.1s1-2 1-4.4c0-5.7.8-7.6 3-7.6 1.1 0 2.2-.5 2.5-1 .3-.6-.3-1-1.4-1-1.1 0-2.3.5-2.6 1-.5.8-1.1.7-2.1-.1-1.2-1-1.4 0-1.4 6zM850.6 1415.6c-2.7 2.7-3.1 6.3-.9 9.2 2.4 3.2 7.3 4.1 9.3 1.8 1.1-1.4.9-1.5-1.9-1-3.3.7-6.1-.8-6.1-3.2 0-1 1.3-1.4 4.5-1.4 3.8 0 4.5-.3 4.5-1.9 0-4.5-6.2-6.8-9.4-3.5zm7.2 2.1c.2.9-.8 1.3-3.2 1.3-3.4 0-4.4-.8-2.9-2.4 1.1-1.1 5.6-.2 6.1 1.1zM864.6 1415.6c-2.7 2.7-3.1 6.3-.9 9.2 2.4 3.2 7.3 4.1 9.3 1.8 1.1-1.4.9-1.5-1.9-1-3.3.7-6.1-.8-6.1-3.2 0-1 1.3-1.4 4.5-1.4 3.8 0 4.5-.3 4.5-1.9 0-4.5-6.2-6.8-9.4-3.5zm7.2 2.1c.2.9-.8 1.3-3.2 1.3-3.4 0-4.4-.8-2.9-2.4 1.1-1.1 5.6-.2 6.1 1.1zM878.6 1415.5c-5.3 5.4-.7 14.3 6.3 12 3-.9 2.6-2.7-.4-1.9-3.3.8-5.5-1.1-5.5-4.6 0-3.5 2.2-5.4 5.5-4.6 2.7.7 3.5-.8.9-1.8s-5.2-.7-6.8.9zM891.2 1415.6c-3.3 2.3-2.8 9.2.9 11.3 3.6 2 7.4.8 8.9-2.8 2.9-7.1-3.7-12.8-9.8-8.5zm7.3 5.4c0 4.2-.2 4.5-2.7 4.8-2.2.3-3-.2-4-2.2-1.7-3.9.3-7.8 4-7.4 2.5.3 2.7.6 2.7 4.8zM920.7 1415.8c-2.3 2.5-2.2 8.5.1 10.5 1.9 1.8 4.8 2.2 7.6 1.1s1.7-2.4-1.4-1.8c-3.2.7-6-.8-6-3.2 0-1 1.3-1.4 4.5-1.4 4.1 0 4.5-.2 4.5-2.5 0-4.3-6.3-6.1-9.3-2.7zm7.1 1.9c.2.9-.8 1.3-3.2 1.3-3.4 0-4.4-.8-2.9-2.4 1.1-1.1 5.6-.2 6.1 1.1zM934.7 1415.8c-2.3 2.5-2.2 8.5.1 10.5 1.9 1.8 4 2.1 6.6 1.1 2.6-1 1.8-2.5-.9-1.8-3.3.8-5.5-1.1-5.5-4.6 0-3.5 2.2-5.4 5.5-4.6 2.7.7 3.5-.8.9-1.8-2.8-1.1-5-.6-6.7 1.2zM947 1415.5c-1 1.2-.6 1.3 2.3.8 2.6-.4 3.6-.1 4.1 1.2.8 2.1 1 1.9-3.3 3.1-4.5 1.2-6.1 3.8-3.8 6.1 1.4 1.5 2.2 1.6 4.7.6 1.7-.6 3-.7 3-.2 0 .5.5.9 1 .9 1.7 0 1.2-10.7-.6-12.4-1.9-2-5.8-2.1-7.4-.1zm7 8c0 1.5-4.6 3.2-5.7 2.2-.3-.4-.3-1.3 0-2.2.8-2 5.7-2 5.7 0zM960 1421.2c0 8.3 1.8 9.1 2.2 1.1.2-4.7.6-5.8 2.2-6.1 2.6-.5 3.6 1.5 3.6 7 0 6.8 1.8 6 2.2-.9.2-4.7.6-5.8 2.2-6.1 2.6-.5 3.6 1.5 3.6 7 0 2.7.5 4.8 1 4.8 1.3 0 1.3-9.6 0-12.1-1.2-2.1-5-2.5-6.7-.8-.7.7-1.7.8-2.5.3-.7-.5-2.8-.9-4.5-.9H960v6.7zM981 1423.5c0 7.8.3 9.5 1.5 9.5 1 0 1.5-1 1.5-2.9 0-2.5.3-2.8 2.5-2.3 3.7.7 6.5-2.3 6.5-6.9 0-5.8-3.5-8.3-8.1-5.9-1.3.7-1.9.7-1.9 0 0-.5-.4-1-1-1s-1 3.8-1 9.5zm9.4-5.3c1.7 2.8-.4 7.3-3.4 7.3-2.1 0-2.6-.5-2.8-3.3-.2-1.9-.1-4.1.2-4.9.8-1.9 4.6-1.3 6 .9zM1003.2 1415.6c-3.3 2.3-2.8 9.2.9 11.3 3.6 2 7.4.8 8.9-2.8 2.9-7.1-3.7-12.8-9.8-8.5zm7.3 5.4c0 4.2-.2 4.5-2.7 4.8-3.7.4-5.7-3.5-4-7.4 1-2 1.8-2.5 4-2.2 2.5.3 2.7.6 2.7 4.8zM1017 1420.9c0 4.1.4 7.1 1 7.1s1-2 1-4.4c0-5.7.8-7.6 3-7.6 1.1 0 2.2-.5 2.5-1 .3-.6-.3-1-1.4-1-1.1 0-2.3.5-2.6 1-.5.8-1.1.7-2.1-.1-1.2-1-1.4 0-1.4 6zM1028.2 1415.3c-.6.7-1.1 3.5-1 6.3.1 2.7-.2 5.8-.7 6.8-1.6 3.6 5 6 9.6 3.6 2.3-1.3 2.5-5.5.3-6.4-.9-.3-2.9-.6-4.5-.6s-2.9-.5-2.9-1c0-.6 1-1 2.3-1 3.2 0 4.6-1.2 5.6-4.7.8-2.9.7-3.1-2.1-3.7-4.4-.9-5.4-.8-6.6.7zm6.3 3.2c0 2.2-3.1 3.3-4.7 1.7-1.7-1.7-.1-4.4 2.4-4 1.5.2 2.3 1 2.3 2.3zm1 10.5c0 1.8-5.2 2.7-6.7 1.2-1.7-1.7.2-3.3 3.5-3 2 .2 3.2.8 3.2 1.8zM1050.6 1415.5c-5.3 5.4-.7 14.3 6.3 12 3-.9 2.6-2.7-.4-1.9-3.3.8-5.5-1.1-5.5-4.6 0-3.5 2.2-5.4 5.5-4.6 2.7.7 3.5-.8.9-1.8s-5.2-.7-6.8.9zM1063.2 1415.6c-1.5 1.1-2.2 2.5-2.2 5 0 5.5 4.4 8.7 9.4 6.8 2.8-1.1 1.7-2.4-1.6-1.7-2.3.5-3.4.2-4.5-1.2-2.1-3-1.6-3.5 3.7-3.5 5.4 0 6.1-1 3.4-4.8-1.8-2.6-5-2.8-8.2-.6zm6.8 1.9c1.1 1.3.7 1.5-3 1.5s-4.1-.2-3-1.5c.7-.8 2-1.5 3-1.5s2.3.7 3 1.5zM1076 1421c0 4 .4 7 1 7s1-2.2 1-4.8c0-5.1 1.2-7.2 4.2-7.2 1 0 1.8-.5 1.8-1 0-1.4-3.3-1.3-4.8.2-.9.9-1.2.9-1.2 0 0-.7-.4-1.2-1-1.2s-1 3-1 7zM1097 1421c0 4 .4 7 1 7s1-3 1-7-.4-7-1-7-1 3-1 7zM1119.7 1415.8c-2.3 2.5-2.2 8.5.1 10.5 1.9 1.8 4 2.1 6.6 1.1 2.6-1 1.8-2.5-.9-1.8-3.3.8-5.5-1.1-5.5-4.6 0-3.5 2.2-5.4 5.5-4.6 2.7.7 3.5-.8.9-1.8-2.8-1.1-5-.6-6.7 1.2zM1132.3 1414.7c-2.6 1-1.2 2.2 2.1 1.6 2.8-.4 3.5-.2 3.8 1.3.3 1.4-.5 2.2-3.1 2.9-4.6 1.3-6.1 3.9-3.8 6.2 1.4 1.5 2.2 1.6 4.7.6 1.7-.6 3-.7 3-.2 0 .5.5.9 1 .9 1.7 0 1.2-10.7-.6-12.4-1.5-1.6-4.6-2-7.1-.9zm6.5 8.5c-.7 1.9-3.4 3.2-5.3 2.4-1.4-.5-1.5-.9-.5-2.1 1.5-1.8 6.3-2 5.8-.3zM1155 1421c0 4 .4 7 1 7s1-3 1-7-.4-7-1-7-1 3-1 7zM1162.6 1415.5c-2.3 2.4-2.9 5.4-1.6 8.6 1.5 3.6 5.3 4.8 8.9 2.8 3.7-2.1 4.2-9 .9-11.3-2.8-2-6.2-2-8.2-.1zm7.6 3c1.7 3.8-.4 7.7-4 7.3-2.3-.2-2.8-.8-3-3.6-.5-4.7.3-6.2 3.3-6.2 1.7 0 2.9.8 3.7 2.5zM1176 1421c0 8.1 1.7 9.5 2.2 1.9.3-5.5 2.1-7.8 5.2-6.6 1.2.5 1.6 2 1.6 6.2 0 3 .5 5.5 1 5.5.6 0 1-2.6 1-5.9 0-7.1-1.6-9.1-6.1-7.4-1.6.6-2.9.7-2.9.2 0-.5-.4-.9-1-.9s-1 3-1 7zM1238 1415c0 .5 1.6 1 3.5 1h3.6l-4.1 5.3c-2.2 3-4 5.7-4 6 0 .4 2.3.7 5 .7 2.8 0 5-.5 5-1 0-.6-1.6-1-3.5-1h-3.6l4.1-5.3c2.2-3 4-5.7 4-6 0-.4-2.2-.7-5-.7-2.7 0-5 .4-5 1zM1251 1419.9c0 7.1 1.6 9.1 6.1 7.4 1.6-.6 2.9-.7 2.9-.2 0 .5.5.9 1 .9.6 0 1-3 1-7 0-5.4-.3-7-1.5-7-1 0-1.5 1.5-1.7 5.7-.3 5.4-.5 5.8-2.8 5.8s-2.5-.4-2.8-5.8c-.4-7.5-2.2-7.4-2.2.2zM1266 1421.2c0 8.3 1.8 9.1 2.2 1.1.2-4.8.6-5.8 2.2-6.1 2.8-.6 4.6 2.5 4.6 7.5 0 2.4.5 4.3 1 4.3 1.3 0 1.3-10 0-12-.6-1-2.5-1.5-5.5-1.5h-4.5v6.7zM1281.2 1415.3c-.6.7-1.1 3.5-1 6.3.1 2.7-.2 5.8-.7 6.8-1.6 3.6 5 6 9.6 3.6 2.3-1.3 2.5-5.5.3-6.4-.9-.3-2.9-.6-4.5-.6s-2.9-.5-2.9-1c0-.6 1-1 2.3-1 3.2 0 4.6-1.2 5.6-4.7.8-2.9.7-3.1-2.1-3.7-4.4-.9-5.4-.8-6.6.7zm6.3 3.2c0 2.2-3.1 3.3-4.7 1.7-1.7-1.7-.1-4.4 2.4-4 1.5.2 2.3 1 2.3 2.3zm1 10.5c0 1.8-5.2 2.7-6.7 1.2-1.7-1.7.2-3.3 3.5-3 2 .2 3.2.8 3.2 1.8zM1295 1417.5l2.2 3.5-2.2 3c-2.9 4.1-1.5 5.4 1.6 1.5 2.3-2.9 2.4-2.9 3.8-1 .9 1.1 1.6 2.3 1.6 2.7 0 .5.7.8 1.5.8 1.3 0 1.2-.7-.7-3.8l-2.2-3.9 2.3-3.1c1.6-2.3 1.9-3.2.8-3.2-.7 0-2 1.1-2.7 2.5-.7 1.4-1.6 2.5-2 2.5-.4 0-1.3-1.1-2-2.5s-2-2.5-2.8-2.5c-1 0-.8.8.8 3.5zM1316 1421c0 5.4.3 7 1.5 7 1 0 1.5-1.5 1.7-5.8.3-5 .6-5.7 2.6-6 1.2-.2 2.2-.8 2.2-1.3 0-1.2-1.7-1.1-4.1.1-1.3.7-1.9.7-1.9 0 0-.5-.4-1-1-1s-1 3-1 7zM1328 1416c-5.9 5.9 2 15.6 8.6 10.5 1.8-1.4 1.6-1.5-2.3-.9-3.5.5-4.3.3-5.2-1.4-1.6-3.1-1.5-3.2 3.9-3.2 4.2 0 5-.3 5-1.8 0-2.5-3.1-5.2-5.8-5.2-1.2 0-3.1.9-4.2 2zm7.8 1.7c.2.9-.8 1.3-3.2 1.3-3.4 0-4.4-.8-2.9-2.4 1.1-1.1 5.6-.2 6.1 1.1zM1341.6 1415.5c-2.3 2.4-2 3.3 1.9 5.6 1.9 1.2 3.5 2.8 3.5 3.6 0 1.2-.8 1.4-3.5 1-4.1-.7-4.8.9-.8 1.9 3.3.9 5.7-.6 6.1-3.8.3-2.1-.3-2.8-2.7-3.6-4.2-1.5-4.3-4.6-.1-4 1.9.3 2.9.1 2.7-.6-.6-1.8-5.3-1.8-7.1-.1zM1353 1423.3c0 5.8.4 9.7 1 9.7s1-1.3 1-2.9c0-2.5.3-2.8 2.5-2.3 3.9.7 6.5-2.2 6.5-7.5 0-3.7-.4-4.5-2.6-5.5-1.9-.9-3-.9-4.3-.1-1.4.9-2.1.9-3 0-.8-.8-1.1 1.4-1.1 8.6zm8.6-4.9c.8 3.3.2 5.7-1.7 6.9-2.9 1.8-4.9.1-4.9-4.1 0-4.5.5-5.2 3.6-5.2 1.7 0 2.5.7 3 2.4zM1368.6 1415.5c-2.3 2.4-2.9 5.4-1.6 8.6 1.5 3.6 5.3 4.8 8.9 2.8 3.7-2.1 4.2-9 .9-11.3-2.8-2-6.2-2-8.2-.1zm7.6 3c1.7 3.8-.4 7.7-4 7.3-2.3-.2-2.8-.8-3-3.6-.5-4.7.3-6.2 3.3-6.2 1.7 0 2.9.8 3.7 2.5zM1382 1421c0 8.1 1.7 9.5 2.2 1.9.3-5.5 2.1-7.8 5.2-6.6 1.2.5 1.6 2 1.6 6.2 0 3 .5 5.5 1 5.5.6 0 1-2.6 1-5.9 0-7.1-1.6-9.1-6.1-7.4-1.6.6-2.9.7-2.9.2 0-.5-.4-.9-1-.9s-1 3-1 7zM1397.2 1415.2c-2.3 2.3-1.3 4.8 2.4 6.4 4.2 1.8 4 4-.5 3.8-3.8-.2-4.1 1.3-.4 2.2 6.1 1.6 8.3-5 2.5-7.5-3.7-1.7-3.7-3.5-.1-3.8 4.2-.2 4.4-.3 2.9-1.3-2.1-1.3-5.4-1.2-6.8.2zM1409 1421c0 4 .4 7 1 7s1-3 1-7-.4-7-1-7-1 3-1 7zM1414.4 1415.6c2.2 6.9 4.6 11.9 5.7 11.9.7 0 2.5-3 4-6.8 2.1-4.9 2.4-6.7 1.4-6.7-.7 0-2.1 2.3-3 5.1-1.9 5.5-2.7 5.4-4.8-.6-1.4-3.9-4.5-6.7-3.3-2.9zM1429.7 1415.8c-2.3 2.5-2.2 8.5.1 10.5 1.9 1.8 4.8 2.2 7.6 1.1s1.7-2.4-1.4-1.8c-3.2.7-6-.8-6-3.2 0-1 1.3-1.4 4.5-1.4 4.1 0 4.5-.2 4.5-2.5 0-4.3-6.3-6.1-9.3-2.7zm7.1 1.9c.2.9-.8 1.3-3.2 1.3-3.4 0-4.4-.8-2.9-2.4 1.1-1.1 5.6-.2 6.1 1.1zM1450.2 1415.1c.3.8 1.4 4 2.4 7.1 1 3.2 2.3 5.8 3 5.8.6 0 1.7-2 2.4-4.5s1.6-4.8 2-5c.5-.3 1.3 1.8 2 4.5.7 3 1.8 5 2.6 5 1.3 0 5.9-12.8 4.9-13.8-.9-.9-2.1 1.1-3.5 5.8l-1.3 4.5-1.7-4.9c-.9-2.8-2.1-5.1-2.7-5.3-.6-.2-1.9 2-2.9 4.9l-1.7 5.3-1.7-4.9c-.9-2.8-2.2-5.2-3-5.4-.8-.3-1.1.1-.8.9zM1473.6 1415.6c-2.7 2.7-3.1 6.3-.9 9.2 2.4 3.2 7.3 4.1 9.3 1.8 1.1-1.4.9-1.5-1.9-1-3.3.7-6.1-.8-6.1-3.2 0-1 1.3-1.4 4.5-1.4 3.8 0 4.5-.3 4.5-1.9 0-4.5-6.2-6.8-9.4-3.5zm7.2 2.1c.2.9-.8 1.3-3.2 1.3-3.4 0-4.4-.8-2.9-2.4 1.1-1.1 5.6-.2 6.1 1.1zM1526.6 1415.6c-2.7 2.7-3.1 6.3-.9 9.2 2.4 3.2 7.3 4.1 9.3 1.8 1.1-1.4.9-1.5-1.9-1-3.3.7-6.1-.8-6.1-3.2 0-1 1.3-1.4 4.5-1.4 3.8 0 4.5-.3 4.5-1.9 0-4.5-6.2-6.8-9.4-3.5zm7.2 2.1c.2.9-.8 1.3-3.2 1.3-3.4 0-4.4-.8-2.9-2.4 1.1-1.1 5.6-.2 6.1 1.1zM1540.3 1414.6c-.7.3-1.3 1.7-1.3 3.1 0 1.8.8 2.8 3 3.6 4 1.5 4.2 4.9.3 4.7-4.2-.3-5-.1-3.3 1 2.3 1.5 5.7 1.2 7.4-.6 2.5-2.5 1.9-4.4-1.9-6-4.5-1.8-4.8-4.8-.5-4.2 1.9.3 2.9.1 2.7-.6-.4-1.2-4.5-1.8-6.4-1zM1551 1421c0 4 .4 7 1 7s1-3 1-7-.4-7-1-7-1 3-1 7zM1558.8 1415.1c-2 1.1-2.4 5.4-.8 6.4.8.5.8 1.1.1 1.9-.6.7-.8 1.6-.4 1.9.3.4.1 1.3-.6 2-2.8 3.4 2.6 6.9 7.8 5.1 1.6-.6 2.7-1.8 2.9-3.3.4-2.8-1.2-4.1-5-4.1-1.6 0-2.8-.5-2.8-1 0-.6 1-1 2.3-1 2.9 0 4.7-1.8 4.7-4.7 0-1.3.6-2.4 1.3-2.4 1.3-.1-3.9-1.6-6.3-1.8-.8 0-2.3.4-3.2 1zm5.7 3.4c0 2.2-3.1 3.3-4.7 1.7-1.7-1.7-.1-4.4 2.4-4 1.5.2 2.3 1 2.3 2.3zm1.3 10.2c-.4 2-5.4 3.1-7 1.5-1.7-1.7.1-3.2 3.8-3.2 2.8 0 3.5.4 3.2 1.7zM1571 1421c0 5.4.3 7 1.5 7 1 0 1.5-1.5 1.7-5.8.3-5.3.5-5.7 2.8-5.7s2.5.4 2.8 5.7c.4 7.6 2.2 7.5 2.2-.1 0-7.1-1.6-9.1-6.1-7.4-1.6.6-2.9.7-2.9.2 0-.5-.4-.9-1-.9s-1 3-1 7zM1442 1420c0 .5 1.4 1 3 1 1.7 0 3-.5 3-1 0-.6-1.3-1-3-1-1.6 0-3 .4-3 1zM1500 1420c0 .5 1.6 1 3.5 1s3.5-.5 3.5-1c0-.6-1.6-1-3.5-1s-3.5.4-3.5 1zM805.7 1425.7c-1.2 1.1-.8 2.3.8 2.3.8 0 1.5-.7 1.5-1.5 0-1.6-1.2-2-2.3-.8zM995.7 1425.6c-.8.8.1 2.4 1.4 2.4.5 0 .9-.7.9-1.5 0-1.5-1.2-2-2.3-.9z"/>
</svg>