<?xml version="1.0" standalone="no"?>
<!DOCTYPE svg PUBLIC "-//W3C//DTD SVG 20010904//EN"
 "http://www.w3.org/TR/2001/REC-SVG-20010904/DTD/svg10.dtd">
<svg version="1.0" xmlns="http://www.w3.org/2000/svg"
 width="2072.000000pt" height="1610.000000pt" viewBox="0 0 2072.000000 1610.000000"
 preserveAspectRatio="xMidYMid meet">

<g transform="translate(0.000000,1610.000000) scale(0.100000,-0.100000)"
fill="#000000" stroke="none">
<path d="M10 16071 c-14 -27 -14 -15675 0 -15702 11 -19 135 -19 10118 -19
7849 0 10111 3 10120 12 18 18 18 15698 0 15716 -9 9 -2271 12 -10120 12
-9983 0 -10107 0 -10118 -19z m19990 -7851 l0 -7610 -9868 2 -9867 3 -3 7608
-2 7607 9870 0 9870 0 0 -7610z"/>
<path d="M800 14055 l0 -1245 9335 0 9335 0 0 1245 0 1245 -9335 0 -9335 0 0
-1245z m2045 331 c37 -16 58 -46 53 -79 -5 -33 -36 -34 -49 0 -13 35 -25 43
-68 43 -47 0 -71 -24 -71 -72 0 -37 1 -38 38 -38 56 0 82 -10 82 -31 0 -17 -8
-19 -60 -19 l-60 0 0 -152 c0 -157 -6 -186 -34 -175 -14 6 -16 29 -16 167 l0
160 -40 0 c-33 0 -40 3 -40 20 0 16 7 20 34 20 33 0 34 1 40 52 9 67 21 87 59
103 42 18 89 19 132 1z m2505 -5 c12 -24 14 -490 1 -510 -11 -17 -41 -7 -41
13 0 13 -7 12 -42 -4 -57 -26 -114 -25 -168 3 -60 30 -70 53 -70 170 0 113 13
147 66 172 46 22 131 19 177 -5 l37 -20 0 93 c0 52 3 97 7 100 11 12 22 8 33
-12z m2425 9 c3 -5 -17 -37 -44 -71 -67 -83 -86 -140 -85 -254 1 -106 23 -169
91 -252 47 -58 51 -68 27 -77 -12 -5 -31 8 -62 40 -79 83 -118 199 -110 334 6
94 38 170 104 240 46 49 67 60 79 40z m693 -36 c139 -146 146 -393 15 -559
-29 -38 -76 -69 -87 -58 -13 14 -4 34 36 80 52 60 75 112 87 194 17 126 -12
230 -90 314 -73 79 -36 107 39 29z m-4017 16 c51 -14 91 -60 93 -107 1 -31 -2
-38 -18 -38 -13 0 -23 11 -31 34 -16 48 -49 71 -102 71 -63 0 -100 -22 -112
-68 -16 -56 -14 -246 3 -287 25 -59 99 -81 171 -51 27 12 36 23 45 56 8 30 16
40 28 38 28 -6 20 -73 -13 -108 -69 -72 -237 -54 -281 31 -19 38 -20 305 0
352 31 74 118 105 217 77z m1676 -13 c53 -28 83 -127 41 -135 -11 -2 -20 8
-28 32 -16 50 -53 76 -106 76 -54 0 -88 -15 -105 -48 -16 -28 -20 -256 -6
-305 16 -57 100 -83 172 -53 27 12 36 23 45 56 14 51 43 53 48 3 7 -75 -101
-136 -204 -113 -108 24 -124 57 -124 250 0 180 15 219 95 249 39 14 134 7 172
-12z m2024 -115 c22 -44 28 -118 15 -159 -10 -30 18 -32 36 -3 18 28 24 26 47
-23 39 -81 21 -177 -44 -237 l-28 -25 17 33 c27 52 18 76 -28 83 -55 9 -69 31
-61 101 6 55 -1 108 -14 108 -6 0 -37 -50 -94 -154 -24 -43 -28 -60 -25 -109
l3 -58 -32 34 c-38 42 -58 102 -49 150 3 19 30 72 58 118 63 104 97 183 98
229 l0 34 40 -39 c22 -22 50 -59 61 -83z m-1621 -21 c37 -27 49 -73 49 -193 1
-97 3 -108 21 -118 11 -6 20 -17 20 -25 0 -19 -37 -19 -73 0 -25 13 -31 13
-50 0 -39 -25 -103 -29 -152 -10 -55 21 -75 47 -75 101 0 46 30 87 75 104 33
13 100 13 143 1 l32 -10 0 43 c0 53 -19 72 -80 80 -66 8 -112 -11 -122 -52
-11 -41 -41 -41 -46 0 -6 48 30 84 103 102 38 9 130 -4 155 -23z m-3412 1 c17
-17 19 -17 47 0 65 39 145 6 145 -60 0 -46 -28 -49 -46 -7 -12 30 -19 35 -47
35 -23 0 -41 -8 -60 -28 -26 -27 -27 -33 -27 -135 l0 -107 43 0 c49 0 89 -22
71 -40 -7 -7 -54 -10 -135 -8 -109 3 -124 5 -127 21 -3 14 4 17 47 17 l51 0 0
140 0 140 -44 0 c-25 0 -48 5 -52 12 -22 35 101 53 134 20z m531 0 c46 -25 72
-75 69 -132 l-3 -45 -137 -3 -138 -3 0 -33 c0 -19 3 -42 6 -51 19 -49 141 -61
213 -20 71 41 98 24 44 -27 -53 -50 -179 -61 -253 -23 -44 23 -60 68 -60 172
0 102 16 139 71 166 47 23 145 22 188 -1z m411 0 c45 -22 71 -73 68 -132 l-3
-45 -137 -3 -138 -3 0 -39 c0 -45 23 -75 65 -86 46 -11 130 1 162 24 58 41 88
15 37 -33 -50 -47 -182 -57 -254 -20 -44 23 -60 68 -60 170 0 106 15 139 73
166 54 24 140 25 187 1z m825 4 c58 -24 70 -55 70 -176 0 -118 -12 -148 -68
-171 -47 -20 -164 -17 -205 5 -51 26 -65 71 -60 188 4 106 15 128 73 154 40
18 147 18 190 0z m815 -4 c45 -22 71 -73 68 -132 l-3 -45 -137 -3 -138 -3 0
-39 c0 -45 23 -75 65 -86 46 -11 130 1 162 24 58 41 88 15 37 -33 -52 -48
-189 -57 -257 -17 -41 23 -56 67 -56 165 -1 101 17 143 73 168 53 24 140 25
186 1z m1008 2 c8 -14 10 -14 21 0 17 20 70 20 99 0 20 -14 24 -14 44 0 31 22
91 20 119 -3 23 -19 24 -25 27 -178 2 -160 -3 -191 -32 -180 -14 5 -16 28 -16
151 0 79 -3 151 -6 160 -7 19 -64 22 -82 4 -8 -8 -12 -57 -12 -152 0 -145 -6
-173 -34 -163 -14 5 -16 28 -16 155 0 156 -4 172 -45 172 -46 0 -54 -25 -57
-180 -3 -137 -4 -145 -23 -145 -19 0 -20 8 -23 175 -1 96 0 180 2 187 7 18 23
16 34 -3z m422 1 c0 -19 5 -19 64 1 31 11 67 15 103 12 48 -4 61 -10 85 -37
27 -30 28 -35 28 -142 0 -134 -10 -160 -75 -184 -51 -20 -114 -17 -164 8 l-31
15 0 -82 c0 -86 -12 -115 -37 -95 -10 9 -13 66 -13 259 0 135 3 250 7 253 12
13 33 7 33 -8z m8370 -170 c0 -110 -3 -135 -14 -135 -8 0 -16 6 -19 13 -4 10
-7 10 -18 0 -20 -19 -67 -15 -89 7 -29 29 -28 108 2 145 19 24 26 27 65 22
l43 -5 0 44 c0 32 4 44 15 44 13 0 15 -22 15 -135z m520 0 c0 -128 -1 -135
-20 -135 -19 0 -20 7 -20 135 0 128 1 135 20 135 19 0 20 -7 20 -135z m-1420
-5 c0 -123 -1 -130 -20 -130 -19 0 -20 7 -20 130 0 123 1 130 20 130 19 0 20
-7 20 -130z m1120 23 c0 -96 -2 -109 -22 -130 -29 -31 -98 -33 -98 -4 0 15 8
21 33 23 l32 3 3 108 c3 106 3 107 27 107 l25 0 0 -107z m730 -3 l0 -110 25 0
c18 0 25 -5 25 -20 0 -18 -7 -20 -75 -20 -68 0 -75 2 -75 20 0 15 7 20 25 20
24 0 25 2 25 75 0 72 -1 75 -19 63 -15 -9 -23 -9 -35 1 -14 11 -10 17 25 47
23 19 49 34 60 34 18 0 19 -8 19 -110z m228 94 c24 -17 31 -71 10 -92 -9 -9
-8 -16 5 -30 44 -48 -1 -122 -73 -122 -59 0 -117 60 -74 77 11 4 23 -2 33 -16
26 -34 75 -26 79 12 3 24 -2 30 -28 40 -35 13 -37 40 -3 45 23 3 39 34 28 52
-10 17 -51 11 -69 -9 -18 -20 -46 -18 -46 2 0 6 10 21 22 34 26 27 82 31 116
7z m357 -9 c42 -41 32 -80 -38 -152 l-41 -43 52 0 c45 0 52 -3 52 -20 0 -19
-7 -20 -90 -20 -64 0 -90 3 -90 12 0 7 27 40 61 74 48 49 61 68 62 95 2 30 -1
34 -25 37 -19 2 -31 -3 -40 -17 -16 -27 -48 -28 -48 -2 0 28 47 61 87 61 23 0
42 -8 58 -25z m206 -4 c27 -27 29 -35 29 -101 0 -66 -2 -74 -29 -101 -50 -49
-121 -37 -147 26 -27 66 -10 169 33 194 35 20 83 13 114 -18z m206 7 c39 -37
31 -77 -28 -142 l-50 -55 53 -3 c41 -2 54 -7 56 -20 3 -16 -6 -18 -92 -18 -60
0 -96 4 -96 10 0 6 30 42 66 81 52 56 65 75 62 97 -4 35 -51 44 -68 13 -13
-24 -50 -28 -50 -6 0 9 11 27 25 40 32 33 89 34 122 3z m210 0 c27 -25 30 -54
7 -79 -15 -17 -15 -19 0 -34 9 -9 16 -32 16 -50 0 -69 -103 -103 -155 -50 -29
29 -31 40 -8 50 12 4 24 -1 35 -14 9 -12 28 -21 42 -21 47 0 56 65 10 76 -31
8 -32 41 -1 46 16 2 22 10 22 28 0 33 -43 40 -69 11 -10 -11 -24 -17 -32 -14
-41 15 18 73 74 73 23 0 44 -8 59 -22z m-2897 -63 c13 -16 12 -17 -39 -19 -51
-2 -49 -23 3 -46 42 -18 46 -22 46 -54 0 -25 -6 -38 -19 -46 -28 -14 -74 -12
-97 5 -21 16 -17 18 41 19 32 1 40 5 40 20 0 13 -10 23 -30 29 -16 5 -36 14
-42 20 -18 13 -16 52 3 71 20 20 78 21 94 1z m151 4 c30 -16 13 -28 -31 -22
-35 5 -40 3 -40 -13 0 -13 14 -26 43 -39 48 -23 60 -55 31 -86 -28 -31 -114
-22 -114 13 0 5 18 5 41 2 29 -5 43 -3 49 7 12 19 4 28 -41 46 -26 10 -41 23
-45 40 -13 48 53 81 107 52z m89 -64 c0 -82 7 -93 55 -81 24 6 25 10 25 81 0
68 2 75 20 75 19 0 20 -7 20 -95 0 -75 -3 -95 -14 -95 -8 0 -16 6 -19 13 -4
10 -7 10 -18 0 -17 -17 -61 -16 -84 1 -16 12 -20 29 -23 95 -4 77 -3 81 17 81
19 0 21 -5 21 -75z m280 65 c19 -10 43 -67 34 -81 -3 -5 -32 -9 -65 -9 -63 0
-72 -9 -45 -45 11 -15 21 -17 60 -12 48 7 61 -4 27 -23 -56 -29 -121 1 -136
63 -20 79 55 144 125 107z m530 -52 c0 -74 9 -91 41 -86 22 3 24 8 27 76 3 69
4 72 27 72 25 0 25 -1 25 -95 0 -88 -1 -95 -20 -95 -11 0 -20 5 -20 10 0 7 -6
7 -19 0 -29 -15 -62 -12 -83 7 -14 13 -18 31 -18 95 0 71 2 78 20 78 18 0 20
-7 20 -62z m299 40 c5 -13 15 -39 23 -58 l15 -35 20 55 c17 45 25 56 46 58
l26 3 -51 -125 c-45 -110 -55 -126 -75 -126 -27 0 -27 0 -7 42 15 32 14 36
-20 116 -20 46 -36 86 -36 88 0 2 11 4 25 4 17 0 28 -7 34 -22z m676 -138 c6
-19 -19 -80 -34 -80 -16 0 -21 13 -10 27 9 10 8 17 -1 28 -7 8 -10 22 -6 30 8
22 44 19 51 -5z"/>
<path d="M5125 14178 c-38 -21 -45 -39 -45 -129 0 -114 12 -131 99 -137 52 -4
66 -1 96 19 l35 24 0 97 0 96 -34 21 c-37 23 -117 28 -151 9z"/>
<path d="M6355 14028 c-27 -15 -35 -28 -35 -60 0 -90 199 -71 208 20 3 27 -1
34 -23 42 -35 13 -125 12 -150 -2z"/>
<path d="M3465 14165 c-14 -13 -25 -36 -25 -50 l0 -25 115 0 c114 0 115 0 115
24 0 12 -11 35 -25 50 -21 23 -32 26 -90 26 -57 0 -69 -3 -90 -25z"/>
<path d="M3875 14165 c-14 -13 -25 -36 -25 -50 l0 -25 115 0 115 0 0 25 c0 14
-11 37 -25 50 -21 22 -33 25 -90 25 -57 0 -69 -3 -90 -25z"/>
<path d="M4740 14190 c-57 -14 -70 -40 -70 -137 0 -46 4 -93 10 -103 26 -48
183 -53 212 -7 4 7 8 58 8 114 0 96 -2 104 -22 117 -30 19 -95 26 -138 16z"/>
<path d="M5516 14165 c-15 -14 -26 -35 -26 -50 l0 -25 115 0 115 0 0 25 c0 14
-11 37 -25 50 -20 21 -33 25 -88 25 -54 0 -68 -4 -91 -25z"/>
<path d="M7166 14169 c-25 -20 -26 -24 -26 -120 l0 -100 43 -19 c51 -24 108
-25 147 -5 l30 16 0 109 c0 101 -2 110 -22 124 -35 25 -138 21 -172 -5z"/>
<path d="M15384 14054 c-14 -20 -15 -33 -8 -62 8 -31 14 -38 39 -40 19 -3 33
2 42 14 16 22 17 86 1 102 -20 20 -56 14 -74 -14z"/>
<path d="M17140 14114 c-6 -14 -10 -43 -10 -64 0 -59 15 -90 44 -90 33 0 48
30 48 90 0 60 -15 90 -48 90 -17 0 -27 -8 -34 -26z"/>
<path d="M15202 14068 c-21 -21 -13 -28 34 -28 38 0 45 3 42 18 -4 21 -57 29
-76 10z"/>
<path d="M10390 11560 c-11 -11 -20 -33 -20 -50 0 -28 -3 -30 -35 -30 -24 0
-35 -5 -35 -15 0 -10 11 -15 35 -15 l35 0 0 -105 c0 -98 1 -105 20 -105 19 0
20 7 20 105 l0 105 40 0 c29 0 40 4 40 15 0 11 -11 15 -41 15 -38 0 -40 1 -37
28 3 23 8 27 41 30 29 3 37 7 37 23 0 27 -72 27 -100 -1z"/>
<path d="M7900 11405 c0 -158 1 -165 20 -165 18 0 20 7 20 78 0 86 16 122 53
122 45 0 52 -14 55 -110 4 -83 6 -90 24 -90 20 0 20 4 16 102 -5 90 -8 104
-28 120 -30 24 -69 23 -97 -4 l-23 -21 0 66 c0 60 -2 67 -20 67 -19 0 -20 -7
-20 -165z"/>
<path d="M8230 11545 c0 -20 5 -25 25 -25 20 0 25 5 25 25 0 20 -5 25 -25 25
-20 0 -25 -5 -25 -25z"/>
<path d="M10110 11545 c0 -18 5 -25 20 -25 15 0 20 7 20 25 0 18 -5 25 -20 25
-15 0 -20 -7 -20 -25z"/>
<path d="M10640 11545 c0 -18 5 -25 20 -25 15 0 20 7 20 25 0 18 -5 25 -20 25
-15 0 -20 -7 -20 -25z"/>
<path d="M11920 11405 c0 -135 3 -165 14 -165 11 0 15 21 17 86 4 92 17 114
66 114 33 0 43 -29 43 -119 0 -76 1 -81 21 -81 20 0 21 4 17 99 -2 80 -7 103
-22 120 -22 24 -64 27 -92 6 -31 -23 -34 -19 -34 45 0 47 -3 60 -15 60 -13 0
-15 -25 -15 -165z"/>
<path d="M7600 11540 c0 -17 7 -20 50 -20 l50 0 0 -140 0 -140 25 0 25 0 0
140 0 140 50 0 c43 0 50 3 50 20 0 19 -7 20 -125 20 -118 0 -125 -1 -125 -20z"/>
<path d="M9843 11553 c-7 -3 -13 -20 -13 -39 0 -32 -2 -34 -35 -34 -24 0 -35
-5 -35 -15 0 -10 11 -15 35 -15 l35 0 0 -89 c0 -82 2 -91 22 -105 12 -9 39
-16 60 -16 31 0 38 4 38 20 0 16 -7 20 -35 20 -44 0 -55 20 -55 104 l0 66 45
0 c33 0 45 4 45 15 0 11 -12 15 -44 15 -45 0 -45 0 -48 38 -2 26 -7 37 -15 35z"/>
<path d="M11718 11552 c-13 -3 -18 -13 -18 -38 0 -32 -2 -34 -35 -34 -24 0
-35 -5 -35 -15 0 -10 11 -15 35 -15 l35 0 0 -85 c0 -104 14 -125 85 -125 38 0
45 3 45 19 0 16 -8 20 -42 23 l-43 3 -3 83 -3 82 46 0 c33 0 45 4 45 15 0 11
-12 15 -44 15 -45 0 -45 0 -48 38 -2 29 -7 37 -20 34z"/>
<path d="M12518 11549 c-11 -6 -18 -22 -18 -39 0 -27 -3 -30 -30 -30 -20 0
-30 -5 -30 -15 0 -10 10 -15 30 -15 l30 0 0 -85 c0 -104 14 -125 85 -125 38 0
45 3 45 20 0 16 -7 20 -33 20 -48 0 -57 15 -57 97 l0 73 45 0 c33 0 45 4 45
15 0 11 -12 15 -44 15 l-45 0 -3 39 c-3 35 -5 38 -20 30z"/>
<path d="M8190 11465 c0 -9 9 -15 25 -15 25 0 25 -1 25 -83 0 -74 3 -86 23
-105 32 -30 97 -31 97 -2 0 15 -7 20 -28 20 -45 0 -52 16 -52 112 l0 88 -45 0
c-33 0 -45 -4 -45 -15z"/>
<path d="M8465 11455 c-46 -45 -22 -97 52 -108 22 -4 46 -14 54 -23 27 -33
-45 -57 -105 -34 -23 8 -26 7 -26 -10 0 -35 81 -53 134 -29 13 7 30 24 37 40
17 43 -7 74 -71 89 -57 14 -67 24 -49 47 10 12 25 14 61 10 42 -5 48 -4 48 12
0 38 -99 43 -135 6z"/>
<path d="M9021 11466 c-33 -18 -50 -53 -51 -104 0 -77 40 -122 111 -122 41 0
69 17 69 41 0 16 -3 18 -19 9 -60 -32 -121 3 -121 70 0 67 61 102 121 70 16
-9 19 -7 19 9 0 39 -79 55 -129 27z"/>
<path d="M9281 11466 c-34 -19 -50 -54 -51 -109 0 -58 11 -82 50 -102 54 -28
150 -11 150 27 0 15 -4 18 -17 13 -10 -4 -37 -10 -60 -12 -35 -5 -45 -1 -67
20 -14 14 -26 31 -26 37 0 6 34 10 90 10 l90 0 -6 33 c-3 17 -10 42 -16 53
-20 41 -89 56 -137 30z m103 -48 c9 -12 16 -26 16 -30 0 -5 -29 -8 -65 -8 -71
0 -85 15 -43 44 33 23 74 20 92 -6z"/>
<path d="M9530 11360 c0 -113 1 -120 20 -120 18 0 20 7 20 74 0 60 4 78 22
101 19 24 26 27 65 22 36 -4 43 -2 43 13 0 37 -70 41 -105 5 l-25 -24 0 24 c0
18 -5 25 -20 25 -19 0 -20 -7 -20 -120z"/>
<path d="M10060 11465 c0 -9 9 -15 25 -15 25 0 25 -1 25 -80 0 -73 3 -83 25
-105 32 -33 95 -36 95 -5 0 15 -7 20 -28 20 -45 0 -52 16 -52 112 l0 88 -45 0
c-33 0 -45 -4 -45 -15z"/>
<path d="M10590 11465 c0 -10 10 -15 30 -15 l30 0 0 -85 c0 -102 15 -125 80
-125 33 0 40 3 40 20 0 16 -7 20 -35 20 -45 0 -55 23 -55 126 l0 74 -45 0
c-33 0 -45 -4 -45 -15z"/>
<path d="M10878 11460 c-55 -43 -63 -140 -15 -188 45 -44 167 -39 167 8 0 17
-3 18 -26 10 -61 -24 -134 1 -134 45 0 12 16 15 86 15 l87 0 -6 42 c-11 79
-98 116 -159 68z m106 -36 c33 -32 20 -44 -49 -44 -69 0 -78 7 -45 40 24 24
72 26 94 4z"/>
<path d="M11155 11468 c-27 -15 -35 -28 -35 -60 0 -32 27 -53 83 -64 42 -7 56
-26 37 -49 -14 -17 -57 -19 -94 -5 -23 9 -26 7 -26 -15 0 -21 6 -25 44 -30 82
-13 138 28 122 88 -5 23 -16 30 -67 44 -51 14 -59 20 -57 37 3 19 9 21 61 20
41 -1 57 2 57 12 0 31 -84 46 -125 22z"/>
<path d="M12213 11470 c-13 -5 -23 -16 -23 -24 0 -12 10 -14 48 -9 52 6 92 -8
92 -31 0 -9 -18 -15 -60 -18 -69 -5 -100 -26 -100 -70 0 -62 85 -101 136 -63
25 19 34 19 34 0 0 -8 8 -15 19 -15 17 0 18 7 14 73 -7 120 -11 135 -43 152
-32 17 -83 19 -117 5z m117 -130 c0 -29 -35 -60 -68 -60 -32 0 -52 16 -52 42
0 24 27 37 78 38 35 0 42 -3 42 -20z"/>
<path d="M8804 10842 c-80 -38 -118 -118 -118 -247 0 -89 14 -144 52 -194 47
-63 158 -90 237 -57 33 14 35 17 35 65 0 28 -2 51 -5 51 -2 0 -19 -9 -37 -20
-112 -68 -195 32 -173 206 13 106 92 153 173 104 18 -11 35 -20 37 -20 3 0 5
22 5 49 0 62 -13 73 -98 78 -52 3 -76 -1 -108 -15z"/>
<path d="M9110 10600 l0 -262 103 4 c130 5 178 27 216 103 23 44 26 61 26 155
0 94 -3 111 -26 155 -38 76 -86 98 -216 103 l-103 4 0 -262z m189 154 c34 -24
51 -75 51 -154 0 -113 -36 -170 -107 -170 l-33 0 0 170 0 170 33 0 c18 0 43
-7 56 -16z"/>
<path d="M10888 10724 c-49 -26 -73 -87 -73 -184 0 -99 20 -151 69 -182 38
-24 116 -20 146 7 20 18 20 17 20 -17 0 -19 -6 -42 -13 -52 -18 -25 -92 -31
-144 -13 l-43 15 0 -44 c0 -23 5 -46 11 -49 6 -4 45 -9 88 -12 63 -5 85 -2
122 14 76 34 83 59 87 311 l4 212 -51 0 c-44 0 -51 -3 -51 -20 0 -18 -2 -18
-36 5 -42 29 -95 32 -136 9z m117 -70 c26 -10 45 -59 45 -114 0 -75 -28 -120
-75 -120 -24 0 -53 40 -60 81 -17 100 28 176 90 153z"/>
<path d="M9550 10690 l0 -40 101 0 100 0 -105 -117 c-96 -105 -106 -120 -106
-155 l0 -38 165 0 165 0 0 40 0 40 -100 0 c-55 0 -100 3 -100 6 0 3 45 55 100
115 91 101 100 114 100 150 l0 39 -160 0 -160 0 0 -40z"/>
<path d="M9970 10605 c0 -158 12 -216 52 -250 41 -34 96 -34 137 1 30 25 31
25 31 5 0 -19 6 -21 50 -21 l50 0 0 195 0 195 -55 0 -55 0 0 -143 c0 -127 -2
-146 -18 -160 -23 -21 -46 -22 -66 -1 -13 13 -16 42 -16 160 l0 144 -55 0 -55
0 0 -125z"/>
<path d="M10410 10535 l0 -195 50 0 50 0 0 135 c0 123 2 137 21 156 11 11 30
19 42 17 37 -5 47 -43 47 -180 l0 -128 51 0 51 0 -4 159 c-3 143 -5 162 -24
188 -36 49 -121 56 -163 14 -21 -21 -31 -18 -31 11 0 15 -8 18 -45 18 l-45 0
0 -195z"/>
<path d="M11240 10725 c0 -4 27 -44 60 -90 33 -46 60 -86 60 -90 0 -5 -31 -52
-70 -107 l-70 -99 62 3 62 3 37 63 36 64 37 -66 37 -66 60 0 60 0 -57 83 c-32
45 -64 90 -72 100 -16 18 -18 15 86 160 l34 47 -60 0 -61 0 -31 -56 c-18 -30
-35 -52 -38 -49 -4 3 -18 27 -32 53 -25 47 -25 47 -82 50 -32 2 -58 0 -58 -3z"/>
<path d="M6910 9860 c-11 -11 -20 -33 -20 -50 0 -28 -3 -30 -35 -30 -24 0 -35
-5 -35 -15 0 -10 11 -15 35 -15 l35 0 0 -105 c0 -98 1 -105 20 -105 19 0 20 7
20 105 l0 105 40 0 c29 0 40 4 40 15 0 11 -11 15 -41 15 -38 0 -40 1 -37 28 3
23 8 27 41 30 29 3 37 7 37 23 0 27 -72 27 -100 -1z"/>
<path d="M12260 9860 c-11 -11 -20 -33 -20 -50 0 -27 -3 -30 -30 -30 -20 0
-30 -5 -30 -15 0 -10 10 -15 30 -15 l30 0 0 -105 c0 -98 1 -105 20 -105 19 0
20 7 20 105 l0 105 40 0 c29 0 40 4 40 15 0 11 -11 15 -41 15 -38 0 -40 1 -37
28 3 23 8 27 41 30 29 3 37 7 37 23 0 27 -72 27 -100 -1z"/>
<path d="M3890 9705 c0 -158 1 -165 20 -165 18 0 20 7 20 83 0 90 13 117 56
117 36 0 44 -20 44 -112 0 -81 2 -88 20 -88 19 0 20 7 20 91 0 86 -9 125 -34
141 -19 13 -60 9 -84 -8 l-22 -15 0 60 c0 54 -2 61 -20 61 -19 0 -20 -7 -20
-165z"/>
<path d="M7370 9855 c0 -10 10 -15 30 -15 l30 0 0 -130 c0 -117 2 -132 20
-150 13 -13 33 -20 60 -20 33 0 40 3 40 20 0 15 -7 20 -28 20 -48 0 -52 13
-52 157 l0 133 -50 0 c-38 0 -50 -4 -50 -15z"/>
<path d="M7630 9855 c0 -10 11 -15 35 -15 l35 0 0 -130 c0 -117 2 -132 20
-150 13 -13 33 -20 60 -20 33 0 40 3 40 20 0 16 -7 20 -35 20 -48 0 -55 22
-55 171 l0 119 -50 0 c-38 0 -50 -4 -50 -15z"/>
<path d="M9510 9855 c0 -10 10 -15 30 -15 l30 0 0 -130 c0 -117 2 -132 20
-150 13 -13 33 -20 60 -20 33 0 40 3 40 20 0 15 -7 20 -28 20 -48 0 -52 13
-52 157 l0 133 -50 0 c-38 0 -50 -4 -50 -15z"/>
<path d="M10720 9805 l0 -65 -20 20 c-24 24 -67 26 -97 5 -50 -35 -54 -155 -8
-201 30 -30 78 -31 105 -4 l20 20 0 -20 c0 -13 7 -20 20 -20 19 0 20 7 20 165
0 158 -1 165 -20 165 -18 0 -20 -7 -20 -65z m-16 -87 c37 -52 9 -138 -43 -138
-39 0 -56 24 -56 80 0 26 6 54 14 63 20 25 67 21 85 -5z"/>
<path d="M11380 9705 c0 -158 1 -165 20 -165 18 0 20 7 20 78 0 91 16 125 58
120 37 -4 52 -40 52 -125 0 -58 3 -73 15 -73 12 0 15 18 15 100 0 113 -14 140
-70 140 -17 0 -39 -9 -50 -20 l-20 -20 0 65 c0 58 -2 65 -20 65 -19 0 -20 -7
-20 -165z"/>
<path d="M13930 9805 l0 -65 -20 20 c-24 24 -67 26 -97 5 -50 -35 -54 -155 -8
-201 30 -30 78 -31 105 -4 l20 20 0 -20 c0 -13 7 -20 20 -20 19 0 20 7 20 165
0 158 -1 165 -20 165 -18 0 -20 -7 -20 -65z m-16 -87 c37 -52 9 -138 -43 -138
-39 0 -56 24 -56 80 0 26 6 54 14 63 20 25 67 21 85 -5z"/>
<path d="M10108 9849 c-11 -6 -18 -22 -18 -39 0 -27 -3 -30 -30 -30 -20 0 -30
-5 -30 -15 0 -10 10 -15 30 -15 l30 0 0 -76 c0 -109 16 -134 88 -134 35 0 42
3 42 20 0 16 -7 20 -33 20 -48 0 -57 15 -57 97 l0 73 45 0 c33 0 45 4 45 15 0
11 -12 15 -44 15 l-45 0 -3 39 c-3 35 -5 38 -20 30z"/>
<path d="M11178 9849 c-11 -6 -18 -22 -18 -39 0 -27 -3 -30 -30 -30 -20 0 -30
-5 -30 -15 0 -10 10 -15 30 -15 l30 0 0 -76 c0 -109 16 -134 88 -134 35 0 42
3 42 20 0 16 -7 20 -33 20 -48 0 -57 15 -57 97 l0 73 45 0 c33 0 45 4 45 15 0
11 -12 15 -44 15 l-45 0 -3 39 c-3 35 -5 38 -20 30z"/>
<path d="M13304 9841 c-44 -27 -69 -94 -61 -165 6 -62 28 -101 68 -122 53 -27
129 -12 129 25 0 17 -4 18 -34 9 -76 -24 -119 17 -119 112 0 95 43 136 119
112 30 -9 34 -8 34 9 0 40 -83 53 -136 20z"/>
<path d="M14374 9841 c-44 -27 -69 -94 -61 -165 6 -62 28 -101 68 -122 53 -27
129 -12 129 25 0 17 -4 18 -34 9 -76 -24 -119 17 -119 112 0 95 43 136 119
112 30 -9 34 -8 34 9 0 40 -83 53 -136 20z"/>
<path d="M4183 9770 c-13 -5 -23 -18 -23 -29 0 -18 3 -19 26 -11 55 21 114 7
114 -27 0 -9 -15 -13 -45 -13 -101 0 -149 -67 -90 -125 28 -29 72 -32 115 -10
27 14 30 14 30 0 0 -8 9 -15 19 -15 18 0 19 6 14 83 -2 45 -6 92 -9 104 -8 43
-93 66 -151 43z m117 -130 c0 -29 -35 -60 -68 -60 -32 0 -52 16 -52 42 0 24
27 37 78 38 35 0 42 -3 42 -20z"/>
<path d="M4465 9768 c-27 -15 -35 -28 -35 -60 0 -32 27 -53 83 -64 42 -7 56
-26 37 -49 -14 -17 -57 -19 -94 -5 -23 9 -26 7 -26 -15 0 -21 6 -25 44 -30 82
-13 138 28 122 88 -5 23 -16 30 -67 44 -51 14 -59 20 -57 37 3 19 9 21 61 20
41 -1 57 2 57 12 0 31 -84 46 -125 22z"/>
<path d="M4985 9755 c-46 -45 -22 -97 52 -108 22 -4 46 -14 54 -23 27 -33 -45
-57 -105 -34 -23 8 -26 7 -26 -10 0 -35 81 -53 134 -29 13 7 30 24 37 40 17
43 -7 74 -71 89 -57 14 -67 24 -49 47 10 12 25 14 61 10 42 -5 48 -4 48 12 0
38 -99 43 -135 6z"/>
<path d="M5230 9680 c0 -87 3 -103 20 -120 26 -26 70 -26 98 0 l22 21 0 -21
c0 -13 7 -20 20 -20 19 0 20 7 20 120 0 113 -1 120 -20 120 -18 0 -20 -7 -20
-78 0 -87 -16 -122 -55 -122 -39 0 -55 35 -55 122 0 63 -3 78 -15 78 -12 0
-15 -18 -15 -100z"/>
<path d="M5541 9766 c-33 -18 -50 -53 -51 -104 0 -77 40 -122 111 -122 41 0
69 17 69 41 0 16 -3 18 -19 9 -60 -32 -121 3 -121 70 0 67 61 102 121 70 16
-9 19 -7 19 9 0 39 -79 55 -129 27z"/>
<path d="M5803 9760 c-41 -25 -59 -82 -43 -140 18 -65 86 -96 154 -70 16 6 26
17 26 30 0 17 -3 19 -19 10 -30 -16 -76 -12 -102 9 -18 14 -24 29 -24 61 0 32
6 47 24 61 26 21 72 25 102 9 16 -9 19 -7 19 10 0 40 -84 53 -137 20z"/>
<path d="M6074 9770 c-76 -30 -82 -167 -10 -211 53 -32 146 -20 146 21 0 17
-3 18 -26 10 -44 -17 -83 -12 -109 15 -40 39 -32 45 60 45 l85 0 0 36 c0 70
-75 113 -146 84z m87 -40 c10 -6 19 -20 19 -30 0 -18 -7 -20 -66 -20 -68 0
-70 3 -36 43 17 19 53 22 83 7z"/>
<path d="M6326 9759 c-29 -23 -35 -69 -12 -88 8 -7 36 -18 63 -24 37 -9 49
-17 51 -34 4 -29 -36 -40 -90 -26 -34 9 -38 8 -38 -9 0 -40 100 -52 144 -17
22 17 27 28 24 58 -3 34 -6 37 -63 57 -66 23 -83 49 -41 60 15 3 42 3 61 0 30
-6 35 -4 35 12 0 36 -92 44 -134 11z"/>
<path d="M6605 9768 c-27 -15 -35 -28 -35 -60 0 -32 27 -53 83 -64 42 -7 56
-26 37 -49 -14 -17 -57 -19 -94 -5 -23 9 -26 7 -26 -15 0 -21 6 -25 44 -30 82
-13 138 28 122 88 -5 23 -16 30 -67 44 -51 14 -59 20 -57 37 3 19 9 21 61 20
41 -1 57 2 57 12 0 31 -84 46 -125 22z"/>
<path d="M7100 9686 c0 -79 3 -97 21 -120 25 -32 66 -34 103 -5 l26 20 0 -20
c0 -12 6 -21 15 -21 13 0 15 20 15 120 0 100 -2 120 -15 120 -12 0 -15 -14
-15 -64 0 -83 -15 -124 -48 -133 -47 -11 -57 5 -60 106 -2 83 -5 91 -22 91
-18 0 -20 -7 -20 -94z"/>
<path d="M7926 9674 c24 -58 44 -116 44 -128 0 -26 -29 -56 -53 -56 -10 0 -17
-8 -17 -20 0 -26 50 -27 74 -2 9 11 43 85 75 165 57 140 58 147 37 147 -18 0
-27 -14 -55 -90 -18 -49 -34 -90 -36 -90 -1 0 -17 41 -36 90 -28 76 -37 90
-55 90 -22 0 -22 -3 22 -106z"/>
<path d="M8493 9770 c-13 -5 -32 -24 -43 -42 -51 -83 3 -188 95 -188 36 0 75
21 75 40 0 15 -5 16 -41 6 -49 -13 -89 5 -103 47 -13 36 2 77 36 96 22 12 35
13 67 5 36 -10 41 -9 41 6 0 32 -76 50 -127 30z"/>
<path d="M8744 9768 c-31 -15 -49 -54 -49 -108 0 -77 36 -120 100 -120 64 0
100 43 100 120 0 26 -6 58 -14 72 -23 44 -87 60 -137 36z m80 -34 c46 -18 39
-138 -9 -150 -59 -15 -98 42 -75 110 14 43 42 56 84 40z"/>
<path d="M8950 9660 c0 -113 1 -120 20 -120 19 0 20 7 20 95 0 80 3 97 16 102
30 11 44 -25 44 -114 0 -67 3 -83 15 -83 12 0 15 16 15 84 0 97 5 116 30 116
25 0 30 -19 30 -116 0 -68 3 -84 15 -84 23 0 22 202 -1 224 -20 20 -48 20 -64
1 -12 -14 -15 -14 -30 0 -20 18 -42 19 -58 3 -9 -9 -12 -9 -12 0 0 7 -9 12
-20 12 -19 0 -20 -7 -20 -120z"/>
<path d="M9240 9615 c0 -158 1 -165 20 -165 18 0 20 7 20 61 l0 60 22 -15 c34
-24 66 -19 99 13 26 26 29 36 29 91 0 55 -3 65 -29 91 -33 32 -65 37 -99 13
-20 -14 -23 -14 -28 0 -3 9 -12 16 -20 16 -11 0 -14 -31 -14 -165z m128 117
c20 -13 32 -68 21 -104 -23 -81 -109 -56 -109 32 0 62 45 99 88 72z"/>
<path d="M9808 9760 c-55 -43 -63 -140 -15 -188 45 -44 167 -39 167 8 0 17 -3
18 -26 10 -61 -24 -134 1 -134 45 0 12 16 15 86 15 l87 0 -6 42 c-11 79 -98
116 -159 68z m106 -36 c33 -32 20 -44 -49 -44 -69 0 -78 7 -45 40 24 24 72 26
94 4z"/>
<path d="M10351 9766 c-34 -19 -50 -54 -51 -109 0 -58 11 -82 50 -102 54 -28
150 -11 150 27 0 15 -4 18 -17 13 -10 -4 -37 -10 -60 -12 -35 -5 -45 -1 -67
20 -14 14 -26 31 -26 37 0 6 34 10 90 10 l90 0 -6 33 c-3 17 -10 42 -16 53
-20 41 -89 56 -137 30z m103 -48 c9 -12 16 -26 16 -30 0 -5 -29 -8 -65 -8 -71
0 -85 15 -43 44 33 23 74 20 92 -6z"/>
<path d="M11694 9770 c-76 -30 -82 -167 -10 -211 53 -32 146 -20 146 21 0 17
-3 18 -26 10 -44 -17 -83 -12 -109 15 -40 39 -32 45 60 45 l85 0 0 36 c0 70
-75 113 -146 84z m87 -40 c10 -6 19 -20 19 -30 0 -18 -7 -20 -66 -20 -68 0
-70 3 -36 43 17 19 53 22 83 7z"/>
<path d="M12470 9660 c0 -111 1 -120 19 -120 17 0 19 9 23 81 3 72 6 83 28
101 19 15 34 19 63 15 35 -5 38 -3 35 16 -5 34 -70 36 -103 3 l-25 -25 0 24
c0 18 -5 25 -20 25 -19 0 -20 -7 -20 -120z"/>
<path d="M12764 9770 c-76 -30 -82 -167 -10 -211 53 -32 146 -20 146 21 0 17
-3 18 -26 10 -44 -17 -83 -12 -109 15 -40 39 -32 45 60 45 l85 0 0 36 c0 70
-75 113 -146 84z m87 -40 c10 -6 19 -20 19 -30 0 -18 -7 -20 -66 -20 -68 0
-70 3 -36 43 17 19 53 22 83 7z"/>
<path d="M13018 9760 c-55 -43 -63 -140 -15 -188 45 -44 167 -39 167 8 0 17
-3 18 -26 10 -61 -24 -134 1 -134 45 0 12 16 15 86 15 l87 0 -6 42 c-11 79
-98 116 -159 68z m106 -36 c33 -32 20 -44 -49 -44 -69 0 -78 7 -45 40 24 24
72 26 94 4z"/>
<path d="M13539 9751 c-26 -26 -29 -36 -29 -91 0 -55 3 -65 29 -91 23 -23 38
-29 71 -29 33 0 48 6 71 29 26 26 29 36 29 91 0 55 -3 65 -29 91 -23 23 -38
29 -71 29 -33 0 -48 -6 -71 -29z m115 -33 c9 -12 16 -38 16 -58 0 -48 -24 -80
-60 -80 -36 0 -60 32 -60 80 0 48 24 80 60 80 18 0 34 -8 44 -22z"/>
<path d="M14088 9760 c-55 -43 -63 -140 -15 -188 45 -44 167 -39 167 8 0 17
-3 18 -26 10 -61 -24 -134 1 -134 45 0 12 16 15 86 15 l87 0 -6 42 c-11 79
-98 116 -159 68z m106 -36 c33 -32 20 -44 -49 -44 -69 0 -78 7 -45 40 24 24
72 26 94 4z"/>
<path d="M14623 9770 c-13 -5 -23 -16 -23 -24 0 -12 11 -13 53 -9 42 4 57 2
70 -12 27 -27 21 -32 -43 -37 -70 -5 -100 -26 -100 -72 0 -37 7 -49 37 -65 29
-15 62 -14 96 4 24 12 29 12 34 0 3 -8 13 -15 22 -15 14 0 15 11 10 96 -5 77
-10 100 -26 116 -24 23 -96 33 -130 18z m117 -124 c0 -24 -41 -66 -65 -66 -38
0 -55 11 -55 36 0 30 24 43 78 44 29 0 42 -4 42 -14z"/>
<path d="M14840 9660 c0 -96 3 -120 14 -120 11 0 15 21 18 90 3 91 14 118 42
107 13 -5 16 -24 16 -102 0 -88 1 -95 20 -95 18 0 20 8 22 98 3 89 5 97 23 97
18 0 20 -8 23 -97 2 -90 4 -98 22 -98 18 0 20 7 20 93 0 54 -6 102 -13 117
-15 29 -49 38 -69 17 -11 -13 -15 -13 -31 1 -15 13 -23 14 -48 5 -16 -6 -29
-7 -29 -2 0 5 -7 9 -15 9 -12 0 -15 -20 -15 -120z"/>
<path d="M15120 9615 c0 -158 1 -165 20 -165 18 0 20 7 20 65 l0 65 20 -20
c56 -56 140 3 140 100 0 97 -84 156 -140 100 l-20 -20 0 20 c0 13 -7 20 -20
20 -19 0 -20 -7 -20 -165z m144 103 c35 -49 9 -138 -39 -138 -43 0 -74 53 -61
104 14 56 72 75 100 34z"/>
<path d="M15679 9751 c-26 -26 -29 -36 -29 -91 0 -55 3 -65 29 -91 23 -23 38
-29 71 -29 33 0 48 6 71 29 26 26 29 36 29 91 0 55 -3 65 -29 91 -23 23 -38
29 -71 29 -33 0 -48 -6 -71 -29z m115 -33 c9 -12 16 -38 16 -58 0 -48 -24 -80
-60 -80 -36 0 -60 32 -60 80 0 48 24 80 60 80 18 0 34 -8 44 -22z"/>
<path d="M15950 9660 c0 -113 1 -120 20 -120 18 0 20 7 20 74 0 60 4 78 22
101 19 24 26 27 65 22 36 -4 43 -2 43 13 0 37 -70 41 -105 5 l-25 -24 0 24 c0
18 -5 25 -20 25 -19 0 -20 -7 -20 -120z"/>
<path d="M16219 9751 c-26 -26 -29 -36 -29 -91 0 -55 3 -65 29 -91 33 -32 65
-37 99 -13 21 14 22 14 22 -10 0 -41 -27 -59 -82 -54 -41 4 -48 2 -48 -12 0
-29 76 -40 123 -19 39 18 47 50 47 184 0 101 -3 125 -14 125 -8 0 -16 -5 -18
-12 -3 -8 -11 -7 -28 5 -36 25 -68 21 -101 -12z m103 -28 c24 -21 25 -99 1
-125 -39 -44 -93 -9 -93 60 0 72 47 106 92 65z"/>
<path d="M15454 9596 c-11 -28 1 -51 25 -51 32 0 49 28 32 49 -17 20 -50 21
-57 2z"/>
<path d="M8780 9140 l0 -60 50 0 50 0 0 60 0 60 -50 0 -50 0 0 -60z"/>
<path d="M13490 9140 l0 -60 50 0 50 0 0 60 0 60 -50 0 -50 0 0 -60z"/>
<path d="M11250 8920 l0 -270 50 0 c48 0 50 1 50 28 l0 27 18 -21 c68 -84 184
-45 218 74 41 139 -23 282 -126 282 -35 0 -86 -23 -93 -42 -3 -7 -6 33 -6 90
l-1 102 -55 0 -55 0 0 -270z m219 14 c17 -21 21 -41 21 -94 0 -77 -23 -120
-65 -120 -42 0 -65 43 -65 120 0 77 23 120 65 120 14 0 32 -11 44 -26z"/>
<path d="M5680 8910 l0 -260 55 0 55 0 0 100 c0 98 0 100 23 100 33 0 60 -32
102 -122 l37 -78 54 0 c30 0 54 3 54 8 0 4 -27 59 -61 122 -39 76 -55 116 -47
119 26 9 57 50 63 85 16 81 -25 157 -93 176 -20 5 -83 10 -139 10 l-103 0 0
-260z m208 154 c16 -11 22 -25 22 -54 0 -47 -27 -70 -82 -70 l-38 0 0 70 0 70
38 0 c21 0 48 -7 60 -16z"/>
<path d="M10350 9153 c0 -10 14 -124 30 -253 16 -129 30 -238 30 -242 0 -5 22
-8 49 -8 l48 0 23 118 c13 64 26 121 30 125 3 4 17 -43 30 -105 13 -62 25
-119 28 -125 2 -8 23 -13 53 -13 44 0 49 2 49 23 1 12 13 129 29 260 l27 237
-46 0 -47 0 -14 -187 -14 -188 -25 118 -24 117 -43 0 c-48 0 -44 7 -69 -130
-9 -52 -18 -90 -20 -85 -3 10 -34 324 -34 344 0 6 -18 11 -45 11 -36 0 -45 -3
-45 -17z"/>
<path d="M12110 8910 l0 -260 83 0 c101 0 148 12 192 51 49 43 70 106 70 209
0 103 -21 166 -70 209 -44 39 -91 51 -192 51 l-83 0 0 -260z m200 142 c21 -22
30 -42 35 -85 17 -138 -21 -227 -99 -227 l-36 0 0 170 0 170 36 0 c26 0 43 -8
64 -28z"/>
<path d="M13883 9030 c-47 -28 -66 -73 -71 -166 -4 -66 -1 -89 16 -127 36 -80
119 -110 190 -67 l32 20 0 -34 c0 -66 -73 -94 -163 -62 l-38 14 3 -46 c3 -43
5 -46 38 -55 58 -15 165 -4 197 19 58 42 63 68 63 302 l0 212 -44 0 c-37 0
-46 -4 -51 -21 -4 -12 -10 -17 -14 -12 -30 44 -106 55 -158 23z m132 -77 c38
-37 47 -121 19 -179 -26 -55 -81 -57 -109 -4 -29 56 -12 178 27 193 25 10 47
7 63 -10z"/>
<path d="M6194 9021 c-79 -36 -118 -133 -95 -236 28 -123 148 -175 299 -130
l52 16 0 45 c0 40 -2 45 -17 39 -91 -39 -146 -44 -192 -20 -28 14 -41 33 -41
61 0 11 25 14 131 14 l132 0 -6 60 c-3 35 -14 74 -26 94 -43 69 -153 95 -237
57z m145 -87 c12 -15 21 -31 21 -35 0 -5 -36 -9 -80 -9 -89 0 -102 12 -54 49
38 30 87 28 113 -5z"/>
<path d="M6623 9021 c-48 -22 -65 -49 -67 -104 -1 -51 40 -89 115 -107 63 -14
99 -34 99 -55 0 -35 -83 -46 -155 -20 -55 20 -55 20 -55 -28 l0 -44 51 -11
c109 -25 201 -9 235 42 24 37 23 99 -2 132 -19 26 -40 36 -142 63 -24 7 -46
19 -49 28 -15 39 75 57 144 28 19 -8 37 -15 39 -15 2 0 4 20 4 43 0 42 -1 44
-39 55 -56 17 -130 14 -178 -7z"/>
<path d="M6970 8770 l0 -270 55 0 55 0 0 90 0 90 33 -20 c94 -58 189 11 203
147 17 161 -86 275 -196 218 -16 -8 -34 -23 -39 -32 -9 -15 -10 -12 -11 15 0
32 0 32 -50 32 l-50 0 0 -270z m219 164 c17 -21 21 -41 21 -94 0 -77 -23 -120
-65 -120 -42 0 -65 43 -65 120 0 77 23 120 65 120 14 0 32 -11 44 -26z"/>
<path d="M7484 9021 c-77 -35 -118 -134 -96 -232 16 -67 45 -107 96 -130 89
-40 190 -10 233 71 32 60 32 158 1 220 -41 80 -144 112 -234 71z m116 -71 c59
-32 49 -210 -14 -226 -59 -15 -96 29 -96 116 0 95 48 143 110 110z"/>
<path d="M7840 8845 l0 -195 50 0 50 0 0 135 c0 123 2 137 21 156 11 11 30 19
42 17 37 -5 47 -43 47 -180 l0 -128 51 0 51 0 -4 159 c-3 143 -5 162 -24 188
-36 49 -121 56 -163 14 -21 -21 -31 -18 -31 11 0 15 -8 18 -45 18 l-45 0 0
-195z"/>
<path d="M8335 9021 c-45 -20 -65 -53 -65 -107 0 -52 41 -89 116 -104 74 -15
94 -26 94 -50 0 -40 -78 -52 -155 -25 -55 20 -55 20 -55 -25 0 -35 4 -42 28
-51 44 -17 155 -23 194 -10 57 19 83 54 83 113 0 43 -4 53 -31 77 -20 18 -52
32 -92 41 -34 7 -68 20 -77 30 -38 42 55 67 132 35 19 -8 37 -15 39 -15 2 0 4
20 4 45 0 42 -1 44 -37 54 -57 16 -133 13 -178 -8z"/>
<path d="M8700 9000 l0 -40 40 0 40 0 0 -100 c0 -108 12 -151 50 -185 18 -16
39 -21 111 -23 l89 -4 0 41 0 41 -53 0 c-88 0 -91 5 -95 169 l-4 141 -89 0
-89 0 0 -40z"/>
<path d="M9104 8998 c7 -24 35 -112 61 -195 l48 -153 63 0 62 0 21 63 c21 66
84 267 96 305 6 21 4 22 -44 22 l-50 0 -15 -52 c-49 -172 -66 -231 -69 -235
-4 -4 -61 196 -73 255 -6 31 -8 32 -60 32 l-53 0 13 -42z"/>
<path d="M9635 9029 c-38 -11 -89 -64 -104 -108 -16 -50 -13 -131 8 -177 35
-77 103 -110 210 -101 36 2 78 10 94 16 24 9 27 16 27 54 l0 44 -57 -20 c-77
-25 -139 -19 -170 18 -44 51 -36 55 112 55 l135 0 0 28 c0 84 -50 167 -113
191 -33 13 -99 13 -142 0z m123 -85 c12 -8 22 -24 22 -35 0 -17 -7 -19 -79
-19 -75 0 -79 1 -74 20 12 46 86 66 131 34z"/>
<path d="M10904 9021 c-79 -36 -118 -133 -95 -236 28 -123 148 -175 299 -130
l52 16 0 45 c0 40 -2 45 -17 39 -91 -39 -146 -44 -192 -20 -28 14 -41 33 -41
61 0 11 25 14 131 14 l132 0 -6 60 c-3 35 -14 74 -26 94 -43 69 -153 95 -237
57z m145 -87 c12 -15 21 -31 21 -35 0 -5 -36 -9 -80 -9 -89 0 -102 12 -54 49
38 30 87 28 113 -5z"/>
<path d="M12611 9018 c-61 -33 -91 -90 -91 -174 0 -34 5 -75 11 -91 16 -45 67
-90 115 -103 48 -14 151 -9 197 9 24 9 27 16 27 57 0 40 -2 45 -17 39 -91 -39
-146 -44 -192 -20 -28 14 -41 33 -41 61 0 11 24 14 130 14 l130 0 0 48 c-1 61
-29 123 -71 153 -50 35 -140 38 -198 7z m149 -78 c40 -40 27 -50 -60 -50 -87
0 -95 6 -55 45 31 32 86 34 115 5z"/>
<path d="M13043 9021 c-48 -22 -65 -49 -67 -104 -1 -51 40 -89 115 -107 63
-14 99 -34 99 -55 0 -35 -83 -46 -155 -20 -55 20 -55 20 -55 -28 l0 -44 51
-11 c109 -25 201 -9 235 42 24 37 23 99 -2 132 -19 26 -40 36 -142 63 -24 7
-46 19 -49 28 -15 39 75 57 144 28 19 -8 37 -15 39 -15 2 0 4 20 4 43 0 42 -1
44 -39 55 -56 17 -130 14 -178 -7z"/>
<path d="M13410 9000 l0 -40 40 0 40 0 0 -100 c0 -108 12 -151 50 -185 18 -16
39 -21 111 -23 l89 -4 0 41 0 41 -53 0 c-88 0 -91 5 -95 169 l-4 141 -89 0
-89 0 0 -40z"/>
<path d="M14260 8845 l0 -195 50 0 50 0 0 126 c0 146 13 183 62 184 41 0 48
-25 48 -171 l0 -139 50 0 50 0 0 145 c0 157 -9 199 -51 229 -36 25 -92 21
-128 -10 l-30 -25 -7 25 c-5 23 -11 26 -50 26 l-44 0 0 -195z"/>
<path d="M4180 7955 c0 -9 9 -15 25 -15 l25 0 0 -108 c0 -122 9 -142 68 -142
44 0 43 28 0 32 l-33 3 -3 123 -3 122 -39 0 c-29 0 -40 -4 -40 -15z"/>
<path d="M6597 7952 c-10 -10 -17 -28 -17 -40 0 -17 -6 -22 -25 -22 -16 0 -25
-6 -25 -15 0 -9 9 -15 25 -15 25 0 25 -1 25 -85 0 -69 3 -85 15 -85 12 0 15
16 15 85 l0 85 35 0 c24 0 35 5 35 15 0 11 -11 15 -36 15 -31 0 -35 3 -32 23
2 17 11 23 36 25 20 2 32 9 32 18 0 21 -63 18 -83 -4z"/>
<path d="M13800 7955 c0 -9 9 -15 25 -15 25 0 25 -1 25 -83 0 -88 12 -146 32
-159 23 -14 68 -9 68 7 0 9 -9 15 -25 15 -36 0 -45 32 -45 151 l0 99 -40 0
c-29 0 -40 -4 -40 -15z"/>
<path d="M16866 7954 c-9 -8 -16 -26 -16 -40 0 -19 -5 -24 -25 -24 -16 0 -25
-6 -25 -15 0 -9 9 -15 25 -15 25 0 25 -1 25 -85 0 -69 3 -85 15 -85 12 0 15
16 15 85 l0 85 35 0 c24 0 35 5 35 15 0 11 -11 15 -36 15 -31 0 -35 3 -32 23
2 17 11 23 36 25 20 2 32 9 32 18 0 20 -64 19 -84 -2z"/>
<path d="M3310 7825 l0 -135 45 0 c87 0 125 39 125 129 0 101 -36 141 -125
141 l-45 0 0 -135z m109 86 c25 -25 34 -82 21 -131 -11 -41 -33 -60 -69 -60
-20 0 -21 6 -21 105 l0 105 25 0 c14 0 33 -8 44 -19z"/>
<path d="M5497 7939 c-56 -43 -60 -168 -7 -221 37 -37 120 -39 120 -3 0 9 -11
12 -38 8 -54 -7 -82 28 -82 102 0 74 28 109 82 102 27 -4 38 -1 38 8 0 31 -76
34 -113 4z"/>
<path d="M6370 7940 c0 -11 7 -20 15 -20 8 0 15 9 15 20 0 11 -7 20 -15 20 -8
0 -15 -9 -15 -20z"/>
<path d="M6800 7940 c0 -11 7 -20 15 -20 8 0 15 9 15 20 0 11 -7 20 -15 20 -8
0 -15 -9 -15 -20z"/>
<path d="M7443 7953 c-7 -3 -13 -18 -13 -34 0 -24 -4 -29 -25 -29 -16 0 -25
-6 -25 -15 0 -9 9 -15 25 -15 24 0 25 -2 25 -69 0 -81 13 -101 66 -101 46 0
47 27 2 32 l-33 3 -3 68 -3 67 36 0 c24 0 35 4 35 15 0 10 -10 15 -34 15 -32
0 -35 3 -38 33 -2 22 -7 32 -15 30z"/>
<path d="M7650 7940 c0 -13 7 -20 20 -20 13 0 20 7 20 20 0 13 -7 20 -20 20
-13 0 -20 -7 -20 -20z"/>
<path d="M10650 7940 c0 -11 7 -20 15 -20 8 0 15 9 15 20 0 11 -7 20 -15 20
-8 0 -15 -9 -15 -20z"/>
<path d="M12790 7940 c0 -11 7 -20 15 -20 8 0 15 9 15 20 0 11 -7 20 -15 20
-8 0 -15 -9 -15 -20z"/>
<path d="M13433 7953 c-7 -3 -13 -18 -13 -34 0 -24 -4 -29 -25 -29 -16 0 -25
-6 -25 -15 0 -9 9 -15 25 -15 24 0 25 -2 25 -69 0 -81 13 -101 66 -101 46 0
47 27 2 32 l-33 3 -3 68 -3 67 36 0 c24 0 35 4 35 15 0 10 -10 15 -34 15 -32
0 -35 3 -38 33 -2 22 -7 32 -15 30z"/>
<path d="M14473 7953 c-13 -2 -23 -11 -23 -20 0 -12 7 -14 35 -9 49 9 75 0 75
-28 0 -28 -18 -46 -47 -46 -14 0 -23 -6 -23 -15 0 -9 9 -15 24 -15 29 0 56
-24 56 -50 0 -42 -63 -65 -111 -40 -16 9 -19 7 -19 -8 0 -36 92 -44 134 -11
33 26 36 79 6 107 -19 18 -19 18 0 35 27 23 25 53 -5 82 -23 24 -48 28 -102
18z"/>
<path d="M14683 7936 c-27 -23 -28 -28 -28 -111 0 -83 1 -88 28 -111 56 -48
120 -15 132 69 20 133 -54 220 -132 153z m76 -20 c9 -11 4 -26 -26 -70 -21
-30 -42 -55 -47 -56 -11 0 -1 93 14 120 12 23 42 26 59 6z m6 -172 c-17 -26
-52 -32 -61 -10 -3 8 12 40 33 72 l38 58 3 -48 c2 -31 -2 -56 -13 -72z"/>
<path d="M14912 7953 c-25 -10 -42 -62 -42 -128 0 -77 19 -122 55 -131 70 -17
105 27 105 131 0 69 -17 118 -45 129 -19 7 -54 7 -73 -1z m65 -39 c3 -9 -10
-38 -33 -72 l-39 -56 -3 48 c-2 31 2 56 13 72 17 27 53 32 62 8z m11 -161
c-15 -31 -49 -41 -66 -20 -9 11 -3 26 31 73 l42 59 3 -42 c2 -24 -3 -55 -10
-70z"/>
<path d="M15300 7825 c0 -113 2 -135 15 -135 12 0 15 14 15 63 0 67 18 107 49
107 32 0 41 -22 41 -97 0 -58 3 -73 15 -73 12 0 15 16 15 83 0 112 -24 135
-102 102 -16 -6 -18 -1 -18 39 0 34 -4 46 -15 46 -13 0 -15 -22 -15 -135z"/>
<path d="M6147 7943 c-4 -3 -7 -17 -7 -30 0 -18 -5 -23 -25 -23 -16 0 -25 -6
-25 -15 0 -9 9 -15 25 -15 24 0 25 -3 25 -57 0 -83 15 -107 68 -111 33 -2 42
0 42 12 0 11 -9 16 -30 16 -37 0 -50 23 -50 89 l0 51 40 0 c29 0 40 4 40 15 0
11 -11 15 -40 15 -38 0 -40 2 -40 30 0 29 -9 38 -23 23z"/>
<path d="M10427 7943 c-4 -3 -7 -17 -7 -30 0 -18 -5 -23 -25 -23 -16 0 -25 -6
-25 -15 0 -9 9 -15 25 -15 24 0 25 -3 25 -57 0 -83 15 -107 68 -111 33 -2 42
0 42 12 0 11 -9 16 -30 16 -37 0 -50 23 -50 89 l0 51 40 0 c29 0 40 4 40 15 0
11 -11 15 -40 15 -38 0 -40 2 -40 30 0 29 -9 38 -23 23z"/>
<path d="M3555 7865 c-20 -19 -25 -34 -25 -72 0 -58 19 -89 61 -98 42 -9 99 2
99 20 0 12 -10 13 -45 8 -36 -4 -50 -2 -65 12 -38 34 -26 45 50 45 64 0 70 2
70 20 0 29 -26 76 -45 84 -35 13 -76 6 -100 -19z m91 -13 c6 -4 13 -15 17 -24
6 -16 0 -18 -48 -18 -59 0 -64 4 -38 32 16 18 50 23 69 10z"/>
<path d="M3749 7843 c10 -27 26 -72 35 -100 14 -43 22 -53 40 -53 19 0 26 13
51 88 39 115 39 112 22 112 -9 0 -26 -31 -44 -82 l-30 -81 -29 81 c-21 60 -33
82 -46 82 -17 0 -17 -3 1 -47z"/>
<path d="M3993 7875 c-27 -19 -46 -77 -38 -115 13 -57 91 -89 146 -60 33 18
21 30 -25 24 -49 -7 -81 6 -89 36 -5 19 -1 20 64 20 l69 0 0 34 c0 61 -75 97
-127 61z m85 -27 c26 -26 13 -38 -38 -38 -37 0 -50 4 -50 15 0 29 64 47 88 23z"/>
<path d="M4413 7870 c-26 -23 -37 -69 -28 -110 14 -63 86 -92 134 -52 24 19
37 77 27 117 -15 61 -89 86 -133 45z m88 -26 c7 -9 14 -33 14 -54 0 -21 -7
-45 -14 -54 -16 -19 -52 -21 -69 -4 -16 16 -16 100 0 116 17 17 53 15 69 -4z"/>
<path d="M4610 7755 c0 -113 2 -135 15 -135 11 0 15 12 15 44 l0 44 29 -11
c67 -25 118 48 92 133 -15 50 -48 69 -92 53 -16 -6 -29 -7 -29 -2 0 5 -7 9
-15 9 -13 0 -15 -22 -15 -135z m108 93 c16 -16 16 -100 0 -116 -18 -18 -56
-14 -68 7 -5 11 -10 34 -10 51 0 17 5 40 10 51 12 21 50 25 68 7z"/>
<path d="M4854 7878 c-28 -13 -44 -49 -44 -97 0 -42 26 -77 65 -87 36 -9 95 4
95 21 0 12 -10 13 -45 8 -36 -4 -50 -2 -65 12 -38 34 -26 45 50 45 l70 0 0 30
c0 61 -67 97 -126 68z m86 -39 c15 -28 11 -31 -49 -27 -51 3 -51 3 -36 26 21
29 70 30 85 1z"/>
<path d="M5050 7790 c0 -78 3 -100 14 -100 10 0 15 18 18 64 5 80 26 110 76
104 25 -3 32 -1 30 11 -4 22 -61 26 -78 7 -16 -20 -30 -20 -30 -1 0 8 -7 15
-15 15 -12 0 -15 -18 -15 -100z"/>
<path d="M5703 7875 c-27 -19 -46 -77 -38 -115 13 -57 91 -89 146 -60 33 18
21 30 -25 24 -49 -7 -81 6 -89 36 -5 19 -1 20 64 20 l69 0 0 34 c0 61 -75 97
-127 61z m85 -27 c26 -26 13 -38 -38 -38 -37 0 -50 4 -50 15 0 29 64 47 88 23z"/>
<path d="M5910 7790 c0 -82 3 -100 15 -100 12 0 15 14 15 63 0 85 18 111 72
104 33 -4 39 -3 36 11 -5 26 -62 28 -87 3 -21 -21 -21 -21 -21 -1 0 11 -7 20
-15 20 -12 0 -15 -18 -15 -100z"/>
<path d="M6330 7875 c0 -8 8 -15 19 -15 16 0 19 -10 23 -71 3 -55 8 -74 23
-85 26 -19 75 -18 75 1 0 9 -9 15 -25 15 -33 0 -45 27 -45 104 l0 66 -35 0
c-24 0 -35 -5 -35 -15z"/>
<path d="M6760 7875 c0 -8 9 -15 20 -15 18 0 20 -7 20 -65 0 -52 4 -69 20 -85
24 -24 80 -27 80 -5 0 9 -9 15 -23 15 -38 0 -47 19 -47 97 l0 73 -35 0 c-24 0
-35 -5 -35 -15z"/>
<path d="M6985 7865 c-20 -19 -25 -34 -25 -75 0 -41 5 -56 25 -75 33 -34 115
-33 115 0 0 10 -10 12 -35 8 -48 -8 -75 17 -75 67 0 50 27 75 75 67 25 -4 35
-2 35 8 0 33 -82 34 -115 0z"/>
<path d="M7198 7883 c-10 -2 -18 -11 -18 -18 0 -11 8 -13 30 -9 39 8 80 -3 80
-21 0 -10 -11 -15 -35 -15 -73 0 -111 -42 -87 -95 14 -30 56 -42 96 -26 20 7
32 8 34 1 2 -5 10 -10 18 -10 11 0 12 16 8 83 -5 65 -10 86 -26 100 -19 16
-61 20 -100 10z m92 -110 c0 -41 -60 -69 -88 -41 -16 16 -15 23 4 42 22 22 84
21 84 -1z"/>
<path d="M7610 7875 c0 -9 9 -15 25 -15 24 0 25 -2 25 -69 0 -81 13 -101 66
-101 46 0 47 27 2 32 l-33 3 -3 83 -3 82 -39 0 c-29 0 -40 -4 -40 -15z"/>
<path d="M7836 7869 c-23 -18 -26 -28 -26 -79 0 -51 3 -61 26 -79 36 -28 79
-27 109 4 20 19 25 34 25 75 0 41 -5 56 -25 75 -30 31 -73 32 -109 4z m88 -31
c44 -63 -17 -154 -68 -102 -9 9 -16 32 -16 54 0 64 52 94 84 48z"/>
<path d="M8030 7790 c0 -82 3 -100 15 -100 12 0 15 14 15 69 0 74 14 101 50
101 28 0 40 -31 40 -104 0 -52 3 -66 15 -66 22 0 21 147 -1 178 -18 26 -60 29
-86 5 -17 -15 -18 -15 -18 0 0 10 -7 17 -15 17 -12 0 -15 -18 -15 -100z"/>
<path d="M8690 7790 c0 -82 3 -100 15 -100 12 0 15 14 15 63 0 85 18 111 72
104 33 -4 39 -3 36 11 -5 26 -62 28 -87 3 -21 -21 -21 -21 -21 -1 0 11 -7 20
-15 20 -12 0 -15 -18 -15 -100z"/>
<path d="M8913 7875 c-27 -19 -46 -77 -38 -115 13 -57 91 -89 146 -60 33 18
21 30 -25 24 -49 -7 -81 6 -89 36 -5 19 -1 20 64 20 l69 0 0 34 c0 61 -75 97
-127 61z m85 -27 c26 -26 13 -38 -38 -38 -37 0 -50 4 -50 15 0 29 64 47 88 23z"/>
<path d="M9100 7755 c0 -113 2 -135 15 -135 11 0 15 12 15 44 l0 44 29 -11
c44 -16 77 3 92 53 26 85 -25 158 -92 133 -16 -6 -29 -7 -29 -2 0 5 -7 9 -15
9 -13 0 -15 -22 -15 -135z m108 93 c7 -7 12 -33 12 -58 0 -51 -13 -70 -47 -70
-26 0 -43 27 -43 70 0 17 5 40 10 51 12 21 50 25 68 7z"/>
<path d="M9330 7790 c0 -79 3 -100 14 -100 10 0 15 19 18 71 4 83 21 104 76
95 27 -4 33 -2 30 12 -5 26 -62 28 -87 3 -21 -21 -21 -21 -21 -1 0 11 -7 20
-15 20 -12 0 -15 -18 -15 -100z"/>
<path d="M9545 7865 c-20 -19 -25 -34 -25 -72 0 -58 19 -89 61 -98 42 -9 99 2
99 20 0 12 -10 13 -45 8 -36 -4 -50 -2 -65 12 -38 34 -26 45 50 45 64 0 70 2
70 20 0 29 -26 76 -45 84 -35 13 -76 6 -100 -19z m91 -13 c6 -4 13 -15 17 -24
6 -16 0 -18 -48 -18 -59 0 -64 4 -38 32 16 18 50 23 69 10z"/>
<path d="M9768 7878 c-23 -18 -30 -51 -16 -71 7 -9 31 -22 53 -29 29 -10 40
-19 40 -33 0 -18 -6 -20 -52 -19 -37 1 -53 -2 -53 -11 0 -7 10 -15 23 -19 65
-17 117 6 117 53 0 35 -14 47 -62 56 -67 13 -51 63 17 52 25 -4 35 -2 35 8 0
26 -73 35 -102 13z"/>
<path d="M9983 7875 c-27 -19 -46 -77 -38 -115 13 -57 91 -89 146 -60 33 18
21 30 -25 24 -49 -7 -81 6 -89 36 -5 19 -1 20 64 20 l69 0 0 34 c0 61 -75 97
-127 61z m85 -27 c26 -26 13 -38 -38 -38 -37 0 -50 4 -50 15 0 29 64 47 88 23z"/>
<path d="M10170 7790 c0 -82 3 -100 15 -100 12 0 15 14 15 66 0 78 12 104 46
104 31 0 44 -31 44 -111 0 -47 3 -59 16 -59 14 0 16 12 13 86 -3 71 -7 88 -23
100 -26 18 -61 18 -80 -2 -15 -14 -16 -14 -16 0 0 9 -7 16 -15 16 -12 0 -15
-18 -15 -100z"/>
<path d="M10610 7875 c0 -8 9 -15 20 -15 18 0 20 -7 20 -65 0 -52 4 -69 20
-85 24 -24 80 -27 80 -5 0 9 -9 15 -23 15 -38 0 -47 19 -47 97 l0 73 -35 0
c-24 0 -35 -5 -35 -15z"/>
<path d="M10810 7790 c0 -82 3 -100 15 -100 12 0 15 14 15 69 0 74 14 101 50
101 28 0 40 -31 40 -104 0 -52 3 -66 15 -66 22 0 21 147 -1 178 -18 26 -60 29
-86 5 -17 -15 -18 -15 -18 0 0 10 -7 17 -15 17 -12 0 -15 -18 -15 -100z"/>
<path d="M11045 7865 c-20 -19 -25 -34 -25 -75 0 -41 5 -56 25 -75 26 -27 64
-32 83 -13 20 20 27 -1 11 -30 -13 -23 -22 -27 -57 -26 -27 0 -42 -4 -42 -12
0 -29 77 -33 111 -5 22 18 24 27 27 135 3 101 2 116 -12 116 -9 0 -16 -5 -16
-12 0 -6 -7 -4 -18 5 -26 24 -59 21 -87 -8z m86 -21 c7 -9 14 -33 14 -54 0
-65 -47 -93 -79 -48 -43 61 19 157 65 102z"/>
<path d="M11478 7883 c-10 -2 -18 -11 -18 -18 0 -11 8 -13 30 -9 39 8 80 -3
80 -21 0 -10 -11 -15 -35 -15 -73 0 -111 -42 -87 -95 14 -30 56 -42 96 -26 20
7 32 8 34 1 2 -5 10 -10 18 -10 11 0 12 16 8 83 -5 65 -10 86 -26 100 -19 16
-61 20 -100 10z m92 -110 c0 -41 -60 -69 -88 -41 -16 16 -15 23 4 42 22 22 84
21 84 -1z"/>
<path d="M11660 7755 c0 -128 1 -135 20 -135 17 0 20 7 20 47 0 37 3 44 12 35
21 -21 65 -14 87 14 31 39 29 123 -2 152 -26 24 -66 29 -86 10 -11 -10 -14
-10 -18 0 -3 6 -11 12 -19 12 -11 0 -14 -25 -14 -135z m120 86 c5 -11 10 -34
10 -51 0 -43 -17 -70 -43 -70 -34 0 -47 19 -47 70 0 25 5 51 12 58 18 18 56
14 68 -7z"/>
<path d="M11880 7755 c0 -113 2 -135 15 -135 11 0 15 12 15 45 0 44 1 44 24
34 61 -28 112 27 103 110 -8 69 -70 106 -111 65 -15 -14 -16 -14 -16 0 0 9 -7
16 -15 16 -13 0 -15 -22 -15 -135z m114 83 c30 -43 9 -118 -34 -118 -24 0 -50
37 -50 70 0 33 26 70 50 70 10 0 26 -10 34 -22z"/>
<path d="M12110 7790 c0 -79 3 -100 14 -100 10 0 15 19 18 71 4 83 21 104 76
95 27 -4 33 -2 30 12 -5 26 -62 28 -87 3 -21 -21 -21 -21 -21 -1 0 11 -7 20
-15 20 -12 0 -15 -18 -15 -100z"/>
<path d="M12325 7865 c-20 -19 -25 -34 -25 -75 0 -41 5 -56 25 -75 30 -31 73
-32 109 -4 23 18 26 28 26 79 0 51 -3 61 -26 79 -36 28 -79 27 -109 -4z m89
-21 c9 -9 16 -32 16 -54 0 -64 -52 -94 -84 -48 -44 63 17 154 68 102z"/>
<path d="M12543 7842 l36 -48 -40 -52 c-35 -46 -38 -52 -20 -52 13 0 31 15 47
40 15 22 28 40 29 40 1 0 15 -18 30 -40 16 -23 36 -40 47 -40 16 0 14 6 -17
46 -19 26 -35 52 -35 58 0 6 14 29 31 51 26 34 28 41 13 44 -9 1 -21 -3 -25
-11 -5 -8 -16 -25 -27 -37 l-18 -23 -24 36 c-14 20 -33 36 -43 36 -16 0 -13
-8 16 -48z"/>
<path d="M12750 7875 c0 -8 9 -15 20 -15 18 0 20 -7 20 -65 0 -52 4 -69 20
-85 24 -24 80 -27 80 -5 0 9 -9 15 -23 15 -38 0 -47 19 -47 97 l0 73 -35 0
c-24 0 -35 -5 -35 -15z"/>
<path d="M12940 7790 c0 -119 16 -134 21 -21 4 84 9 97 34 88 12 -5 15 -24 15
-87 0 -64 3 -80 15 -80 12 0 15 16 15 80 0 65 3 82 16 87 25 9 34 -16 34 -94
0 -58 3 -73 15 -73 12 0 15 14 14 68 -1 37 -4 78 -8 91 -9 33 -36 49 -59 35
-12 -8 -22 -8 -35 0 -12 8 -22 8 -37 -2 -12 -7 -20 -8 -20 -2 0 5 -4 10 -10
10 -6 0 -10 -40 -10 -100z"/>
<path d="M13188 7883 c-10 -2 -18 -11 -18 -18 0 -11 8 -13 30 -9 39 8 80 -3
80 -21 0 -10 -11 -15 -35 -15 -73 0 -111 -42 -87 -95 14 -30 56 -42 96 -26 20
7 32 8 34 1 2 -5 10 -10 18 -10 11 0 12 16 8 83 -5 65 -10 86 -26 100 -19 16
-61 20 -100 10z m92 -110 c0 -41 -60 -69 -88 -41 -16 16 -15 23 4 42 22 22 84
21 84 -1z"/>
<path d="M13624 7878 c-28 -13 -44 -49 -44 -97 0 -42 26 -77 65 -87 36 -9 95
4 95 21 0 12 -10 13 -45 8 -36 -4 -50 -2 -65 12 -38 34 -26 45 50 45 l70 0 0
30 c0 61 -67 97 -126 68z m86 -39 c15 -28 11 -31 -49 -27 -51 3 -51 3 -36 26
21 29 70 30 85 1z"/>
<path d="M14010 7882 c0 -4 16 -47 35 -95 30 -74 33 -90 23 -112 -6 -14 -19
-25 -30 -25 -10 0 -18 -7 -18 -15 0 -19 43 -20 59 -1 6 7 34 68 61 135 42 105
46 121 31 121 -13 0 -25 -17 -41 -62 -12 -35 -26 -67 -30 -71 -4 -5 -20 23
-35 62 -16 39 -34 71 -42 71 -7 0 -13 -4 -13 -8z"/>
<path d="M15535 7865 c-20 -19 -25 -34 -25 -75 0 -41 5 -56 25 -75 30 -31 73
-32 109 -4 23 18 26 28 26 79 0 51 -3 61 -26 79 -36 28 -79 27 -109 -4z m89
-21 c9 -9 16 -32 16 -54 0 -64 -52 -94 -84 -48 -44 63 17 154 68 102z"/>
<path d="M15730 7812 c0 -54 5 -84 16 -100 18 -26 60 -29 86 -5 17 15 18 15
18 0 0 -10 7 -17 15 -17 12 0 15 18 15 100 0 82 -3 100 -15 100 -12 0 -15 -14
-15 -63 0 -68 -18 -107 -50 -107 -28 0 -40 31 -40 104 0 52 -3 66 -15 66 -12
0 -15 -15 -15 -78z"/>
<path d="M15960 7790 c0 -78 3 -100 14 -100 10 0 15 18 18 64 5 80 26 110 76
104 25 -3 32 -1 30 11 -4 22 -61 26 -78 7 -16 -20 -30 -20 -30 -1 0 8 -7 15
-15 15 -12 0 -15 -18 -15 -100z"/>
<path d="M16180 7870 c-38 -38 -17 -81 48 -95 37 -8 53 -32 31 -46 -8 -6 -33
-8 -56 -5 -32 4 -43 2 -43 -8 0 -28 83 -35 118 -10 17 12 22 24 20 47 -3 28
-9 34 -50 48 -59 19 -64 24 -47 45 9 12 24 15 51 11 27 -4 38 -1 38 8 0 30
-81 34 -110 5z"/>
<path d="M16606 7869 c-23 -18 -26 -28 -26 -79 0 -51 3 -61 26 -79 36 -28 79
-27 109 4 20 19 25 34 25 75 0 41 -5 56 -25 75 -30 31 -73 32 -109 4z m88 -31
c44 -63 -17 -154 -68 -102 -9 9 -16 32 -16 54 0 64 52 94 84 48z"/>
<path d="M8293 7734 c-4 -10 1 -22 10 -29 22 -16 21 -24 -5 -52 -17 -19 -19
-23 -5 -23 21 0 57 47 57 74 0 40 -44 63 -57 30z"/>
<path d="M10920 7435 c0 -113 2 -135 15 -135 11 0 15 11 15 39 0 22 6 44 15
51 9 7 17 11 19 9 1 -2 18 -25 36 -51 20 -29 41 -48 53 -48 16 0 12 10 -27 64
l-45 63 35 34 c50 49 23 48 -36 -1 l-50 -42 0 76 c0 61 -3 76 -15 76 -13 0
-15 -22 -15 -135z"/>
<path d="M9035 7488 c-33 -19 -44 -41 -45 -89 0 -71 56 -115 118 -93 46 16 39
35 -11 28 -39 -6 -46 -3 -61 17 -9 13 -16 35 -16 49 0 14 7 36 16 49 15 20 22
23 60 17 46 -6 58 6 25 24 -25 13 -61 12 -86 -2z"/>
<path d="M9226 7479 c-23 -18 -26 -28 -26 -79 0 -51 3 -61 26 -79 36 -28 79
-27 109 4 20 19 25 34 25 75 0 41 -5 56 -25 75 -30 31 -73 32 -109 4z m88 -31
c44 -63 -17 -154 -68 -102 -9 9 -16 32 -16 54 0 64 52 94 84 48z"/>
<path d="M9420 7422 c0 -54 5 -84 16 -100 18 -26 60 -29 86 -5 17 15 18 15 18
0 0 -10 7 -17 15 -17 12 0 15 18 15 100 0 82 -3 100 -15 100 -12 0 -15 -14
-15 -63 0 -68 -18 -107 -50 -107 -28 0 -40 31 -40 104 0 52 -3 66 -15 66 -12
0 -15 -15 -15 -78z"/>
<path d="M9650 7400 c0 -79 3 -100 14 -100 10 0 15 19 18 71 4 83 21 104 76
95 27 -4 33 -2 30 12 -5 26 -62 28 -87 3 -21 -21 -21 -21 -21 -1 0 11 -7 20
-15 20 -12 0 -15 -18 -15 -100z"/>
<path d="M9870 7480 c-38 -38 -17 -81 48 -95 37 -8 53 -32 31 -46 -8 -6 -33
-8 -56 -5 -32 4 -43 2 -43 -8 0 -28 83 -35 118 -10 17 12 22 24 20 47 -3 28
-9 34 -50 48 -59 19 -64 24 -47 45 9 12 24 15 51 11 27 -4 38 -1 38 8 0 30
-81 34 -110 5z"/>
<path d="M10079 7471 c-23 -23 -29 -38 -29 -71 0 -51 42 -100 87 -100 43 0 73
11 73 26 0 10 -11 12 -44 8 -36 -5 -47 -3 -65 15 -34 34 -26 41 49 41 l70 0 0
30 c0 41 -39 80 -80 80 -21 0 -41 -9 -61 -29z m105 -23 c15 -24 5 -30 -53 -26
l-52 3 17 23 c19 27 71 27 88 0z"/>
<path d="M10245 7478 c3 -13 14 -57 23 -98 22 -95 44 -105 63 -30 14 56 20 55
38 -7 13 -47 37 -57 46 -20 42 172 43 177 25 177 -13 0 -20 -16 -30 -70 -7
-38 -17 -70 -21 -70 -4 0 -11 17 -16 37 -13 56 -36 54 -52 -4 l-14 -48 -9 40
c-25 103 -29 115 -44 115 -10 0 -13 -7 -9 -22z"/>
<path d="M10510 7480 c-25 -25 -34 -61 -27 -108 16 -95 141 -97 162 -2 9 41
-2 87 -28 110 -27 26 -81 26 -107 0z m88 -22 c7 -7 12 -33 12 -58 0 -51 -13
-70 -46 -70 -30 0 -49 26 -49 70 0 21 7 45 14 54 16 19 52 21 69 4z"/>
<path d="M10720 7400 c0 -79 3 -100 14 -100 10 0 15 19 18 71 4 83 21 104 76
95 27 -4 33 -2 30 12 -5 26 -62 28 -87 3 -21 -21 -21 -21 -21 -1 0 11 -7 20
-15 20 -12 0 -15 -18 -15 -100z"/>
<path d="M11184 7346 c-8 -22 3 -49 19 -43 6 2 12 14 12 27 0 27 -22 39 -31
16z"/>
<path d="M11736 6028 c-9 -12 -16 -28 -16 -36 0 -7 -9 -38 -19 -70 -20 -59
-110 -463 -131 -587 -45 -265 -115 -594 -136 -642 -8 -17 -14 -37 -14 -45 0
-34 -62 -181 -94 -222 -18 -23 -31 -15 -54 32 -47 95 -70 289 -68 571 1 216 0
224 -20 237 -17 12 -23 12 -39 0 -15 -11 -21 -37 -31 -137 -7 -68 -14 -153
-15 -189 l-1 -65 -9 60 c-10 71 -46 118 -73 95 -12 -9 -16 -32 -16 -86 0 -63
-3 -74 -17 -74 -10 0 -41 -25 -69 -56 -48 -51 -54 -55 -75 -43 -16 8 -52 10
-121 6 -54 -3 -98 -2 -98 2 0 25 182 113 262 128 38 7 52 26 38 52 -13 26 -52
36 -78 22 -29 -15 -62 -14 -113 5 -25 9 -77 16 -119 16 -65 1 -84 -4 -136 -30
-67 -34 -144 -114 -213 -222 l-42 -65 7 86 c11 142 -20 164 -111 78 l-54 -51
-17 41 c-22 56 -66 91 -113 91 -33 0 -44 -7 -82 -48 -24 -27 -52 -58 -61 -70
-11 -14 -29 -22 -47 -22 -70 0 -239 -170 -311 -314 -15 -29 -15 -29 -18 35 -4
68 12 399 28 609 6 69 11 177 13 240 2 109 1 115 -18 115 -17 0 -21 -9 -27
-55 -12 -87 -48 -675 -55 -892 l-6 -198 -129 0 -129 0 -61 43 c-33 23 -75 52
-93 64 -35 23 -85 79 -85 94 0 6 11 29 24 52 53 92 116 284 137 417 19 126 -5
291 -64 432 -39 93 -162 235 -224 259 -33 12 -66 0 -82 -30 -13 -24 2 -37 19
-16 26 31 63 18 121 -42 79 -81 116 -140 151 -241 27 -77 31 -103 35 -227 5
-152 -5 -218 -53 -350 -30 -80 -82 -187 -98 -197 -15 -10 -19 -5 -79 86 -109
165 -177 326 -177 420 0 118 111 344 185 378 18 8 30 5 63 -17 61 -40 87 -13
35 37 -70 67 -116 54 -189 -53 -45 -65 -67 -111 -114 -233 -6 -16 -13 -27 -16
-24 -15 16 -79 296 -69 306 2 3 11 -1 20 -8 25 -20 30 15 7 47 -11 15 -31 51
-46 80 -29 58 -36 65 -55 54 -18 -11 5 -145 68 -401 47 -190 47 -195 35 -254
-20 -93 -28 -300 -15 -383 35 -225 167 -304 304 -184 l36 32 79 -68 79 -68
-694 -3 c-450 -1 -693 -6 -693 -12 0 -7 250 -10 719 -10 640 0 720 -2 732 -16
7 -8 26 -22 43 -31 17 -9 47 -29 68 -44 20 -16 54 -36 77 -44 36 -12 46 -12
85 1 38 13 49 23 67 62 13 26 28 53 35 60 18 17 1015 18 1044 0 15 -10 29 -10
65 0 55 15 291 16 300 2 3 -5 24 -10 45 -10 21 0 42 5 45 10 4 7 310 10 885
10 575 0 881 3 885 10 4 7 -218 10 -659 10 -366 0 -666 3 -666 6 0 3 11 20 24
37 35 47 71 124 90 192 9 33 25 89 36 125 10 36 24 90 30 120 6 30 18 84 26
120 15 69 46 246 70 395 8 50 19 113 24 140 6 28 17 84 25 125 29 154 89 386
112 433 13 26 12 27 -11 27 -14 0 -31 -9 -40 -22z m-3161 -1166 c45 -108 97
-199 157 -278 21 -28 38 -56 38 -61 0 -6 -16 -25 -35 -42 -49 -43 -114 -44
-155 -3 -46 47 -72 150 -74 295 -1 117 9 205 21 193 3 -3 25 -50 48 -104z
m2105 49 c0 -6 -26 -28 -57 -50 -67 -47 -108 -101 -99 -129 11 -34 58 -46 123
-33 80 16 158 14 173 -4 25 -30 -17 -130 -82 -192 -46 -44 -193 -131 -242
-143 -23 -6 -49 -15 -58 -20 -11 -6 -209 -10 -512 -10 l-495 0 25 63 c46 117
160 259 244 302 l33 17 -7 -29 c-28 -123 -30 -152 -13 -207 18 -56 46 -86 80
-86 24 0 100 53 125 87 19 26 23 27 51 17 23 -9 34 -9 50 2 19 14 41 88 41
140 0 36 25 85 66 131 31 35 34 36 30 13 -20 -105 -28 -232 -18 -255 11 -24
13 -25 44 -12 25 10 40 28 63 73 83 164 188 293 261 319 44 16 174 20 174 6z
m-725 -47 c46 -18 60 -132 24 -190 -11 -19 -24 -34 -29 -34 -5 0 -19 15 -31
33 -12 17 -38 48 -57 69 l-34 36 46 46 c47 47 53 50 81 40z m1152 -101 c-3
-10 -5 -4 -5 12 0 17 2 24 5 18 2 -7 2 -21 0 -30z m-101 1 c4 -14 4 -64 1
-109 -4 -71 -11 -96 -45 -167 -22 -46 -52 -94 -67 -108 -26 -25 -27 -25 -42
-5 -18 25 -12 116 13 172 9 21 24 69 34 106 19 70 60 137 85 137 8 0 18 -12
21 -26z m126 -42 c3 7 8 -14 12 -47 19 -162 53 -281 94 -327 14 -17 7 -18
-142 -18 l-157 0 23 30 c12 17 34 33 48 37 32 7 70 41 70 63 0 8 11 49 25 90
31 94 32 130 5 137 -13 4 -20 14 -20 31 0 24 1 24 19 8 15 -13 20 -14 23 -4z
m-1272 -91 c16 -26 30 -56 30 -65 0 -26 -37 -74 -71 -91 -28 -15 -30 -15 -40
12 -13 32 -6 152 11 182 14 28 34 18 70 -38z m912 -228 c3 -21 8 -46 12 -55 7
-16 0 -18 -80 -17 -73 0 -86 2 -70 12 11 7 42 31 70 54 28 23 54 42 57 42 4 1
9 -16 11 -36z m-1432 -103 c0 -19 -48 -60 -70 -60 -19 0 -92 34 -130 59 -11 8
16 11 93 11 68 0 107 -4 107 -10z"/>
<path d="M16130 4725 l0 -245 240 0 240 0 0 245 0 245 -240 0 -240 0 0 -245z
m410 0 l0 -175 -170 0 -170 0 0 175 0 175 170 0 170 0 0 -175z"/>
<path d="M16270 4725 l0 -105 100 0 100 0 0 105 0 105 -100 0 -100 0 0 -105z"/>
<path d="M16820 4935 c0 -33 -2 -35 -35 -35 -33 0 -35 -2 -35 -35 0 -33 -2
-35 -35 -35 -33 0 -35 -2 -35 -35 0 -33 2 -35 35 -35 l35 0 0 -70 0 -70 35 0
35 0 0 -70 0 -70 35 0 c33 0 35 -2 35 -35 0 -32 2 -35 30 -35 27 0 30 -3 30
-30 0 -27 -3 -30 -30 -30 -28 0 -30 -3 -30 -35 0 -33 -2 -35 -35 -35 -33 0
-35 2 -35 35 0 33 -2 35 -35 35 l-35 0 0 100 0 100 -35 0 -35 0 0 -70 0 -70
-140 0 -140 0 0 -30 c0 -28 -3 -30 -35 -30 -32 0 -35 2 -35 30 l0 30 -100 0
-100 0 0 -30 c0 -28 3 -30 35 -30 l35 0 0 -70 0 -70 -35 0 c-33 0 -35 -2 -35
-35 l0 -35 70 0 70 0 0 35 c0 32 2 35 30 35 28 0 30 -3 30 -35 0 -33 2 -35 35
-35 l35 0 0 -70 0 -70 35 0 c33 0 35 -2 35 -35 l0 -35 70 0 70 0 0 -35 0 -35
-70 0 -70 0 0 -100 0 -100 -35 0 -35 0 0 65 0 65 -35 0 c-33 0 -35 2 -35 35 0
33 2 35 35 35 33 0 35 2 35 35 0 33 -2 35 -35 35 -33 0 -35 2 -35 35 0 32 -2
35 -30 35 -28 0 -30 3 -30 35 l0 35 -70 0 -70 0 0 -70 0 -70 70 0 70 0 0 -70
0 -70 -70 0 -70 0 0 -35 0 -35 70 0 70 0 0 -30 0 -30 -70 0 -70 0 0 -70 0 -70
35 0 c33 0 35 -2 35 -35 0 -33 -2 -35 -35 -35 -33 0 -35 -2 -35 -35 0 -33 2
-35 35 -35 33 0 35 -2 35 -35 0 -33 -2 -35 -35 -35 -33 0 -35 -2 -35 -35 0
-33 2 -35 35 -35 33 0 35 2 35 35 0 33 2 35 35 35 33 0 35 -2 35 -35 l0 -35
100 0 100 0 0 35 c0 33 2 35 35 35 33 0 35 -2 35 -35 l0 -35 70 0 70 0 0 -135
0 -135 35 0 c33 0 35 -2 35 -35 0 -33 -2 -35 -35 -35 l-35 0 0 -105 0 -105 35
0 c33 0 35 2 35 35 0 33 2 35 35 35 33 0 35 -2 35 -35 l0 -35 135 0 135 0 0
35 c0 33 2 35 35 35 33 0 35 -2 35 -35 l0 -35 105 0 105 0 0 70 0 70 35 0 35
0 0 -70 0 -70 100 0 100 0 0 70 0 70 -30 0 c-28 0 -30 -3 -30 -35 0 -33 -2
-35 -35 -35 -33 0 -35 2 -35 35 0 33 -2 35 -35 35 l-35 0 0 70 0 70 35 0 c33
0 35 -2 35 -35 l0 -35 100 0 100 0 0 -70 0 -70 35 0 c33 0 35 -2 35 -35 0 -33
2 -35 35 -35 33 0 35 2 35 35 0 33 2 35 35 35 33 0 35 -2 35 -35 l0 -35 105 0
105 0 0 35 0 35 -105 0 -105 0 0 70 0 70 -35 0 c-33 0 -35 2 -35 35 l0 35 70
0 70 0 0 -70 0 -70 70 0 70 0 0 35 c0 33 2 35 35 35 l35 0 0 65 0 65 -35 0
-35 0 0 140 0 140 -140 0 -140 0 0 35 c0 33 2 35 35 35 33 0 35 2 35 35 0 33
2 35 35 35 33 0 35 -2 35 -35 l0 -35 105 0 105 0 0 35 c0 32 2 35 30 35 l30 0
0 -70 0 -70 35 0 c33 0 35 2 35 35 0 33 2 35 35 35 l35 0 0 105 0 105 -35 0
c-33 0 -35 2 -35 35 0 33 2 35 35 35 l35 0 0 100 0 100 -35 0 c-33 0 -35 2
-35 35 0 33 2 35 35 35 l35 0 0 105 0 105 -35 0 c-33 0 -35 2 -35 35 0 33 2
35 35 35 l35 0 0 70 0 70 -35 0 c-33 0 -35 -2 -35 -35 0 -33 -2 -35 -35 -35
l-35 0 0 -70 0 -70 35 0 35 0 0 -70 0 -70 -35 0 c-33 0 -35 2 -35 35 0 32 -2
35 -30 35 l-30 0 0 140 0 140 30 0 c27 0 30 3 30 30 0 27 -3 30 -30 30 -27 0
-30 -3 -30 -30 0 -28 -3 -30 -35 -30 -33 0 -35 -2 -35 -35 0 -33 -2 -35 -35
-35 -33 0 -35 -2 -35 -35 0 -33 2 -35 35 -35 l35 0 0 -105 0 -105 65 0 65 0 0
-105 0 -105 -30 0 c-28 0 -30 -3 -30 -35 0 -33 -2 -35 -35 -35 l-35 0 0 -65 0
-65 35 0 35 0 0 65 0 65 30 0 30 0 0 -100 0 -100 -30 0 c-28 0 -30 -3 -30 -35
l0 -35 -105 0 -105 0 0 70 0 70 35 0 35 0 0 65 0 65 -35 0 -35 0 0 105 0 105
35 0 c33 0 35 -2 35 -35 l0 -35 70 0 70 0 0 35 0 35 -70 0 -70 0 0 35 c0 33
-2 35 -35 35 l-35 0 0 70 0 70 -70 0 -70 0 0 35 0 35 70 0 70 0 0 100 0 100
-105 0 -105 0 0 -65 0 -65 35 0 c33 0 35 -2 35 -35 0 -33 -2 -35 -35 -35 -33
0 -35 -2 -35 -35 0 -33 -2 -35 -35 -35 l-35 0 0 70 0 70 -35 0 c-33 0 -35 -2
-35 -35 0 -32 -2 -35 -30 -35 l-30 0 0 70 0 70 30 0 30 0 0 65 0 65 35 0 c33
0 35 2 35 35 0 33 2 35 35 35 33 0 35 -2 35 -35 0 -33 2 -35 35 -35 l35 0 0
70 0 70 -35 0 -35 0 0 70 0 70 -35 0 c-33 0 -35 2 -35 35 l0 35 70 0 70 0 0
35 c0 33 -2 35 -35 35 -33 0 -35 2 -35 35 0 33 -2 35 -35 35 l-35 0 0 -70 0
-70 -35 0 -35 0 0 -70 0 -70 35 0 c33 0 35 -2 35 -35 l0 -35 -65 0 -65 0 0
-35 c0 -33 -2 -35 -35 -35 l-35 0 0 70 0 70 35 0 c33 0 35 2 35 35 l0 35 -70
0 -70 0 0 35 0 35 70 0 70 0 0 35 c0 33 -2 35 -35 35 -33 0 -35 2 -35 35 l0
35 -105 0 -105 0 0 -35 c0 -33 -2 -35 -35 -35 -33 0 -35 2 -35 35 l0 35 -70 0
-70 0 0 -35 c0 -33 -2 -35 -35 -35 -33 0 -35 -2 -35 -35 l0 -35 70 0 70 0 0
-35 c0 -33 -2 -35 -35 -35 l-35 0 0 -70 0 -70 35 0 c33 0 35 -2 35 -35 0 -33
-2 -35 -35 -35 -33 0 -35 -2 -35 -35 0 -33 -2 -35 -35 -35 l-35 0 0 140 0 140
-35 0 c-33 0 -35 2 -35 35 0 32 -2 35 -30 35 -28 0 -30 -3 -30 -35 0 -32 2
-35 30 -35 l30 0 0 -70 0 -70 -65 0 -65 0 0 70 0 70 -35 0 c-33 0 -35 2 -35
35 0 33 2 35 35 35 33 0 35 2 35 35 0 33 2 35 35 35 33 0 35 2 35 35 0 33 -2
35 -35 35 -33 0 -35 -2 -35 -35z m550 -245 l0 -210 -35 0 -35 0 0 70 0 70 -35
0 c-33 0 -35 2 -35 35 0 33 2 35 35 35 33 0 35 2 35 35 0 33 -2 35 -35 35 -33
0 -35 2 -35 35 0 33 2 35 35 35 33 0 35 2 35 35 0 33 2 35 35 35 l35 0 0 -210z
m-420 -175 c0 -33 2 -35 35 -35 33 0 35 -2 35 -35 0 -33 -2 -35 -35 -35 -33 0
-35 2 -35 35 0 32 -2 35 -30 35 -28 0 -30 3 -30 35 0 32 2 35 30 35 28 0 30
-3 30 -35z m280 0 c0 -33 -2 -35 -35 -35 -33 0 -35 -2 -35 -35 0 -33 -2 -35
-35 -35 -33 0 -35 2 -35 35 0 33 2 35 35 35 33 0 35 2 35 35 0 33 2 35 35 35
33 0 35 -2 35 -35z m280 0 c0 -33 2 -35 35 -35 33 0 35 2 35 35 0 32 2 35 30
35 28 0 30 -3 30 -35 0 -32 -2 -35 -30 -35 l-30 0 0 -65 0 -65 -35 0 -35 0 0
-70 0 -70 -35 0 c-33 0 -35 -2 -35 -35 0 -33 2 -35 35 -35 33 0 35 -2 35 -35
0 -33 -2 -35 -35 -35 -33 0 -35 -2 -35 -35 l0 -35 70 0 70 0 0 -70 0 -70 -35
0 c-33 0 -35 -2 -35 -35 l0 -35 -70 0 -70 0 0 35 c0 33 2 35 35 35 33 0 35 2
35 35 0 33 -2 35 -35 35 -33 0 -35 2 -35 35 0 33 -2 35 -35 35 -33 0 -35 2
-35 35 l0 35 70 0 70 0 0 35 c0 33 -2 35 -35 35 -33 0 -35 2 -35 35 l0 35
-175 0 -175 0 0 70 0 70 175 0 175 0 0 30 c0 28 3 30 35 30 l35 0 0 70 0 70
35 0 c33 0 35 -2 35 -35z m-1180 -200 c0 -32 -2 -35 -30 -35 -28 0 -30 3 -30
35 0 32 2 35 30 35 28 0 30 -3 30 -35z m420 0 c0 -33 2 -35 35 -35 33 0 35 -2
35 -35 0 -33 -2 -35 -35 -35 -33 0 -35 -2 -35 -35 0 -33 2 -35 35 -35 33 0 35
-2 35 -35 0 -33 -2 -35 -35 -35 -33 0 -35 -2 -35 -35 0 -33 -2 -35 -35 -35
-33 0 -35 2 -35 35 0 33 2 35 35 35 33 0 35 2 35 35 l0 35 -105 0 -105 0 0
-35 c0 -33 2 -35 35 -35 33 0 35 -2 35 -35 l0 -35 -70 0 -70 0 0 70 0 70 -35
0 -35 0 0 70 0 70 35 0 c33 0 35 2 35 35 l0 35 140 0 140 0 0 -35z m200 -140
c0 -33 2 -35 35 -35 l35 0 0 -70 0 -70 35 0 35 0 0 70 0 70 70 0 70 0 0 -140
0 -140 35 0 c33 0 35 -2 35 -35 0 -33 -2 -35 -35 -35 -33 0 -35 -2 -35 -35 0
-33 2 -35 35 -35 l35 0 0 -65 0 -65 -35 0 c-33 0 -35 2 -35 35 l0 35 -105 0
-105 0 0 30 c0 28 3 30 35 30 l35 0 0 105 0 105 -35 0 c-33 0 -35 -2 -35 -35
0 -33 -2 -35 -35 -35 -33 0 -35 -2 -35 -35 l0 -35 -65 0 -65 0 0 35 0 35 65 0
65 0 0 35 0 35 -65 0 -65 0 0 35 0 35 65 0 65 0 0 70 0 70 -30 0 c-28 0 -30 3
-30 35 0 32 2 35 30 35 28 0 30 -3 30 -35z m760 -70 l0 -35 70 0 70 0 0 -35
c0 -33 2 -35 35 -35 l35 0 0 -70 0 -70 -35 0 c-33 0 -35 2 -35 35 0 33 -2 35
-35 35 l-35 0 0 -135 0 -135 35 0 c32 0 35 2 35 30 0 28 3 30 35 30 32 0 35
-2 35 -30 0 -28 3 -30 35 -30 33 0 35 -2 35 -35 l0 -35 -70 0 -70 0 0 -35 c0
-33 -2 -35 -35 -35 -33 0 -35 -2 -35 -35 0 -33 2 -35 35 -35 33 0 35 -2 35
-35 0 -33 -2 -35 -35 -35 -33 0 -35 -2 -35 -35 0 -33 -2 -35 -35 -35 l-35 0 0
-70 0 -70 -35 0 c-33 0 -35 -2 -35 -35 l0 -35 -65 0 -65 0 0 -35 c0 -33 -2
-35 -35 -35 -32 0 -35 -2 -35 -30 0 -28 -3 -30 -35 -30 -32 0 -35 2 -35 30 0
28 3 30 35 30 l35 0 0 105 0 105 -35 0 c-33 0 -35 2 -35 35 0 33 2 35 35 35
33 0 35 2 35 35 l0 35 -70 0 -70 0 0 -70 0 -70 -35 0 -35 0 0 -105 0 -105 -35
0 c-32 0 -35 -2 -35 -30 0 -28 3 -30 35 -30 33 0 35 -2 35 -35 l0 -35 70 0 70
0 0 -35 0 -35 -70 0 -70 0 0 -35 c0 -33 -2 -35 -35 -35 -33 0 -35 2 -35 35 0
33 -2 35 -35 35 l-35 0 0 100 0 100 35 0 35 0 0 70 0 70 -35 0 c-33 0 -35 -2
-35 -35 0 -33 -2 -35 -35 -35 l-35 0 0 70 0 70 35 0 c33 0 35 2 35 35 0 33 2
35 35 35 l35 0 0 105 0 105 -35 0 c-33 0 -35 2 -35 35 0 33 2 35 35 35 33 0
35 -2 35 -35 0 -33 2 -35 35 -35 33 0 35 -2 35 -35 l0 -35 70 0 70 0 0 105 0
105 35 0 c32 0 35 2 35 30 l0 30 70 0 70 0 0 35 c0 32 2 35 30 35 l30 0 0 175
0 175 35 0 c33 0 35 -2 35 -35z m-1030 -280 c0 -33 2 -35 35 -35 33 0 35 -2
35 -35 0 -33 -2 -35 -35 -35 l-35 0 0 -100 0 -100 35 0 35 0 0 70 0 70 35 0
c32 0 35 2 35 30 0 28 3 30 35 30 32 0 35 -2 35 -30 0 -27 3 -30 30 -30 28 0
30 -3 30 -35 0 -33 2 -35 35 -35 l35 0 0 -140 0 -140 -35 0 c-33 0 -35 -2 -35
-35 0 -32 -2 -35 -30 -35 -28 0 -30 -3 -30 -35 0 -33 -2 -35 -35 -35 -33 0
-35 2 -35 35 l0 35 -70 0 -70 0 0 140 0 140 -35 0 c-33 0 -35 -2 -35 -35 l0
-35 -70 0 -70 0 0 105 0 105 70 0 70 0 0 30 c0 28 -3 30 -35 30 -33 0 -35 2
-35 35 0 33 2 35 35 35 33 0 35 2 35 35 0 33 2 35 35 35 33 0 35 -2 35 -35z
m1650 -70 c0 -33 -2 -35 -35 -35 -33 0 -35 2 -35 35 0 33 2 35 35 35 33 0 35
-2 35 -35z m-1930 -200 l0 -105 -35 0 c-33 0 -35 -2 -35 -35 l0 -35 -65 0 -65
0 0 35 c0 33 2 35 35 35 33 0 35 2 35 35 0 32 2 35 30 35 l30 0 0 70 0 70 35
0 35 0 0 -105z m1930 -70 c0 -33 -2 -35 -35 -35 -33 0 -35 2 -35 35 0 33 2 35
35 35 33 0 35 -2 35 -35z m-1860 -140 c0 -33 -2 -35 -35 -35 -33 0 -35 2 -35
35 0 33 2 35 35 35 33 0 35 -2 35 -35z m140 0 c0 -33 -2 -35 -35 -35 -33 0
-35 2 -35 35 0 33 2 35 35 35 33 0 35 -2 35 -35z m1450 -210 l0 -105 -105 0
-105 0 0 105 0 105 105 0 105 0 0 -105z m-1110 -70 c0 -32 -2 -35 -30 -35
l-30 0 0 -65 0 -65 30 0 c28 0 30 3 30 35 0 33 2 35 35 35 33 0 35 -2 35 -35
0 -33 -2 -35 -35 -35 l-35 0 0 -70 0 -70 -65 0 -65 0 0 35 c0 33 -2 35 -35 35
-33 0 -35 2 -35 35 0 33 2 35 35 35 33 0 35 2 35 35 0 33 -2 35 -35 35 -32 0
-35 2 -35 30 l0 30 70 0 70 0 0 35 c0 32 2 35 30 35 28 0 30 -3 30 -35z m830
-30 l0 -65 -70 0 -70 0 0 30 c0 28 3 30 35 30 33 0 35 2 35 35 0 33 2 35 35
35 l35 0 0 -65z m70 -170 c0 -33 -2 -35 -35 -35 -33 0 -35 2 -35 35 0 33 2 35
35 35 33 0 35 -2 35 -35z"/>
<path d="M17440 4380 c0 -28 -3 -30 -35 -30 l-35 0 0 -70 0 -70 35 0 35 0 0
70 0 70 35 0 c32 0 35 2 35 30 0 28 -3 30 -35 30 -32 0 -35 -2 -35 -30z"/>
<path d="M16540 4245 c0 -33 2 -35 35 -35 33 0 35 2 35 35 0 33 -2 35 -35 35
-33 0 -35 -2 -35 -35z"/>
<path d="M17640 3690 l0 -30 -65 0 -65 0 0 -35 c0 -33 -2 -35 -35 -35 -33 0
-35 -2 -35 -35 l0 -35 70 0 70 0 0 -35 c0 -33 -2 -35 -35 -35 l-35 0 0 -70 0
-70 -35 0 c-33 0 -35 -2 -35 -35 0 -33 2 -35 35 -35 33 0 35 -2 35 -35 l0 -35
65 0 65 0 0 70 0 70 35 0 35 0 0 70 0 70 -35 0 -35 0 0 70 0 70 35 0 35 0 0
65 0 65 -35 0 c-32 0 -35 -2 -35 -30z"/>
<path d="M16610 3755 c0 -33 2 -35 35 -35 33 0 35 2 35 35 0 33 -2 35 -35 35
-33 0 -35 -2 -35 -35z"/>
<path d="M16540 3555 c0 -33 2 -35 35 -35 33 0 35 2 35 35 0 33 -2 35 -35 35
-33 0 -35 -2 -35 -35z"/>
<path d="M16890 3520 l0 -70 -70 0 -70 0 0 -70 0 -70 35 0 c33 0 35 -2 35 -35
0 -33 2 -35 35 -35 33 0 35 2 35 35 0 32 2 35 30 35 28 0 30 3 30 35 0 32 -2
35 -30 35 -28 0 -30 3 -30 35 0 32 2 35 30 35 l30 0 0 70 0 70 -30 0 -30 0 0
-70z"/>
<path d="M17920 3135 c0 -33 2 -35 35 -35 33 0 35 2 35 35 0 33 -2 35 -35 35
-33 0 -35 -2 -35 -35z"/>
<path d="M17920 4725 l0 -245 240 0 240 0 0 245 0 245 -240 0 -240 0 0 -245z
m410 0 l0 -175 -170 0 -170 0 0 175 0 175 170 0 170 0 0 -175z"/>
<path d="M18060 4725 l0 -105 100 0 100 0 0 105 0 105 -100 0 -100 0 0 -105z"/>
<path d="M9184 3700 c-67 -27 -87 -134 -36 -191 22 -24 38 -32 77 -37 32 -3
55 -12 65 -25 10 -11 25 -18 39 -15 l23 3 -21 27 -21 27 20 33 c63 103 -35
223 -146 178z m97 -49 c18 -14 24 -29 24 -61 0 -32 -6 -47 -24 -61 -34 -27
-75 -24 -100 7 -60 76 27 175 100 115z"/>
<path d="M9564 3695 c-4 -9 -2 -21 4 -27 15 -15 44 -1 40 19 -4 23 -36 29 -44
8z"/>
<path d="M10220 3590 l0 -120 65 0 c51 0 65 3 65 15 0 11 -12 15 -45 15 l-45
0 0 105 c0 98 -1 105 -20 105 -19 0 -20 -7 -20 -120z"/>
<path d="M9380 3571 c0 -92 31 -123 91 -91 13 7 19 7 19 0 0 -5 7 -10 15 -10
12 0 15 16 15 85 0 78 -2 85 -20 85 -18 0 -20 -7 -20 -64 0 -56 -3 -66 -20
-71 -33 -10 -40 3 -40 71 0 57 -2 64 -20 64 -18 0 -20 -7 -20 -69z"/>
<path d="M9570 3555 c0 -69 3 -85 15 -85 12 0 15 16 15 85 0 69 -3 85 -15 85
-12 0 -15 -16 -15 -85z"/>
<path d="M9650 3555 c0 -78 2 -85 20 -85 18 0 20 7 20 64 0 56 3 66 20 71 33
10 40 -3 40 -71 0 -57 2 -64 20 -64 18 0 20 7 20 68 0 54 -4 72 -18 85 -21 19
-45 21 -73 7 -13 -7 -19 -7 -19 0 0 5 -7 10 -15 10 -12 0 -15 -16 -15 -85z"/>
<path d="M9845 3615 c-70 -69 21 -189 99 -130 21 16 19 18 -34 19 -28 1 -36 6
-44 28 -7 19 -6 35 2 54 11 23 16 25 47 20 27 -5 35 -4 35 7 0 35 -72 36 -105
2z"/>
<path d="M9970 3631 c0 -5 14 -40 31 -78 29 -65 30 -69 15 -100 -15 -31 -15
-33 3 -33 14 0 27 19 49 73 17 39 38 89 46 110 16 35 15 37 -3 37 -15 0 -25
-13 -38 -50 -10 -27 -20 -50 -23 -50 -3 0 -14 23 -24 50 -13 36 -23 50 -37 50
-10 0 -19 -4 -19 -9z"/>
<path d="M10400 3625 c-27 -15 -23 -18 30 -19 49 -1 54 -31 7 -40 -43 -8 -71
-37 -62 -65 8 -27 51 -38 79 -21 14 9 21 10 24 1 2 -6 10 -11 18 -11 11 0 14
16 14 65 0 52 -4 69 -20 85 -23 23 -55 25 -90 5z m70 -94 c0 -23 -37 -38 -54
-21 -8 8 -6 15 8 26 27 20 46 18 46 -5z"/>
<path d="M10550 3555 c0 -78 2 -85 20 -85 16 0 19 8 22 63 3 59 4 62 31 65 19
2 27 9 27 23 0 22 -29 26 -49 7 -11 -10 -14 -10 -18 0 -3 6 -11 12 -19 12 -11
0 -14 -18 -14 -85z"/>
<path d="M10685 3624 c-25 -25 -14 -57 25 -76 47 -24 46 -44 -2 -41 -44 3 -54
-23 -13 -33 86 -21 128 66 45 94 -17 6 -30 18 -30 28 0 13 6 15 35 10 27 -5
35 -4 35 7 0 30 -69 37 -95 11z"/>
<path d="M10835 3615 c-52 -51 -16 -145 55 -145 44 0 80 39 80 85 0 46 -36 85
-80 85 -19 0 -40 -9 -55 -25z m87 -30 c23 -51 -20 -106 -57 -75 -18 15 -20 71
-3 88 20 20 48 14 60 -13z"/>
<path d="M11000 3555 c0 -78 2 -85 20 -85 18 0 20 7 20 64 0 58 2 65 22 72 31
10 48 -19 48 -83 0 -40 4 -53 15 -53 22 0 21 132 -1 154 -18 18 -60 21 -70 5
-4 -8 -9 -8 -17 0 -29 29 -37 11 -37 -74z"/>
<path d="M18260 2965 l0 -275 70 0 70 0 0 35 c0 33 -2 35 -35 35 -33 0 -35 2
-35 35 0 33 2 35 35 35 33 0 35 2 35 35 0 33 -2 35 -35 35 -33 0 -35 2 -35 35
0 33 2 35 35 35 32 0 35 2 35 30 0 28 -3 30 -35 30 -33 0 -35 2 -35 35 0 33 2
35 35 35 l35 0 0 70 0 70 -70 0 -70 0 0 -275z"/>
<path d="M16130 2930 l0 -240 240 0 240 0 0 240 0 240 -240 0 -240 0 0 -240z
m410 0 l0 -170 -170 0 -170 0 0 170 0 170 170 0 170 0 0 -170z"/>
<path d="M16270 2930 l0 -100 100 0 100 0 0 100 0 100 -100 0 -100 0 0 -100z"/>
<path d="M7460 2930 l0 -120 70 0 c40 0 70 4 70 10 0 6 -25 10 -55 10 l-55 0
0 45 0 45 45 0 c25 0 45 5 45 10 0 6 -20 10 -45 10 l-45 0 0 45 0 45 55 0 c30
0 55 5 55 10 0 6 -30 10 -70 10 l-70 0 0 -120z"/>
<path d="M8410 3030 c0 -15 5 -20 18 -18 9 2 17 10 17 18 0 8 -8 16 -17 18
-13 2 -18 -3 -18 -18z"/>
<path d="M8880 2930 l0 -122 70 4 c60 3 74 8 98 31 23 24 27 35 27 87 0 52 -4
63 -27 87 -24 23 -38 28 -98 31 l-70 4 0 -122z m141 71 c41 -42 41 -101 -1
-142 -24 -25 -37 -30 -67 -27 l-38 3 -3 84 c-2 46 -1 90 2 98 3 7 21 13 41 13
27 0 44 -8 66 -29z"/>
<path d="M9124 3039 c-10 -17 13 -36 27 -22 12 12 4 33 -11 33 -5 0 -12 -5
-16 -11z"/>
<path d="M10208 3039 c-10 -5 -18 -21 -18 -34 0 -16 -6 -25 -15 -25 -8 0 -15
-4 -15 -10 0 -5 7 -10 15 -10 12 0 15 -15 15 -75 0 -96 18 -98 22 -2 3 66 5
72 26 75 30 5 28 22 -3 22 -14 0 -25 3 -25 6 0 16 23 44 35 44 8 0 15 5 15 10
0 13 -30 12 -52 -1z"/>
<path d="M10784 3016 c-29 -29 -34 -41 -34 -80 0 -79 39 -126 105 -126 27 0
75 19 75 30 0 16 -14 18 -36 4 -30 -20 -78 -10 -99 19 -17 24 -20 99 -5 126
16 31 65 46 100 31 17 -7 34 -9 38 -6 13 14 -31 36 -71 36 -31 0 -46 -7 -73
-34z"/>
<path d="M11250 3011 c0 -39 0 -40 -33 -34 -28 4 -37 1 -55 -22 -29 -36 -29
-98 -2 -125 23 -23 42 -25 73 -9 16 9 22 9 25 0 2 -6 8 -11 13 -11 5 0 9 54 9
120 0 100 -2 120 -15 120 -11 0 -15 -11 -15 -39z m-16 -57 c25 -10 22 -100 -4
-114 -34 -18 -60 4 -60 50 0 53 26 79 64 64z"/>
<path d="M11548 3034 c-100 -54 -61 -224 52 -224 38 0 84 25 75 41 -4 5 -15 3
-28 -6 -31 -22 -62 -19 -94 9 -24 21 -28 32 -28 76 0 44 4 55 28 76 30 26 57
30 88 14 11 -6 24 -8 31 -4 16 10 -31 33 -67 33 -16 0 -42 -6 -57 -15z"/>
<path d="M8308 3024 c-5 -4 -8 -16 -8 -26 0 -10 -7 -18 -15 -18 -8 0 -15 -4
-15 -10 0 -5 7 -10 15 -10 12 0 15 -14 15 -64 0 -43 5 -67 15 -76 18 -15 47
-10 53 9 3 10 0 12 -11 8 -23 -9 -39 25 -35 76 2 35 7 43 26 45 30 4 28 22 -2
22 -19 0 -25 6 -28 26 -2 14 -6 22 -10 18z"/>
<path d="M9668 3024 c-5 -4 -8 -16 -8 -26 0 -10 -7 -18 -15 -18 -8 0 -15 -4
-15 -10 0 -5 7 -10 15 -10 12 0 15 -14 15 -64 0 -43 5 -67 15 -76 18 -15 47
-10 53 9 3 10 0 12 -11 8 -23 -9 -39 25 -35 76 2 35 7 43 26 45 30 4 28 22 -2
22 -19 0 -25 6 -28 26 -2 14 -6 22 -10 18z"/>
<path d="M7630 2974 c0 -3 11 -21 24 -41 l25 -36 -25 -38 c-27 -43 -28 -49
-14 -49 5 0 20 16 33 36 l25 35 22 -35 c12 -20 28 -36 36 -36 11 0 8 11 -12
45 l-26 46 26 39 c19 30 23 40 12 40 -8 0 -23 -13 -33 -30 -9 -16 -21 -30 -25
-30 -4 0 -14 14 -23 30 -13 25 -45 43 -45 24z"/>
<path d="M7813 2965 c-30 -21 -39 -74 -19 -113 22 -42 64 -54 107 -31 30 15
13 29 -21 16 -24 -9 -32 -8 -49 8 -36 32 -27 45 34 45 52 0 55 1 55 25 0 53
-62 82 -107 50z m71 -21 c26 -25 19 -34 -29 -34 -49 0 -53 4 -28 32 20 22 37
23 57 2z"/>
<path d="M7975 2955 c-65 -64 7 -177 86 -134 11 5 17 14 14 20 -4 6 -13 5 -25
-1 -10 -5 -23 -10 -29 -10 -20 0 -41 33 -41 64 0 45 27 68 71 60 32 -5 33 -5
15 10 -28 23 -63 20 -91 -9z"/>
<path d="M8110 2911 c0 -50 4 -74 16 -85 19 -19 55 -21 73 -3 11 10 14 10 18
0 13 -36 23 -4 23 72 0 69 -3 85 -15 85 -12 0 -15 -14 -15 -65 0 -53 -3 -66
-19 -75 -42 -22 -61 7 -61 93 0 26 -4 47 -10 47 -6 0 -10 -30 -10 -69z"/>
<path d="M8410 2895 c0 -69 3 -85 15 -85 12 0 15 16 15 85 0 69 -3 85 -15 85
-12 0 -15 -16 -15 -85z"/>
<path d="M8491 2928 c12 -29 26 -68 32 -86 17 -52 38 -36 74 56 26 67 29 83
16 80 -9 -2 -25 -28 -36 -60 -12 -32 -24 -58 -27 -58 -3 0 -15 26 -27 58 -12
34 -27 58 -37 60 -14 3 -14 -3 5 -50z"/>
<path d="M8662 2957 c-65 -69 16 -181 99 -136 28 15 13 31 -16 17 -33 -15 -75
3 -75 32 0 18 6 20 55 20 47 0 55 3 55 19 0 10 -9 30 -21 45 -26 33 -68 34
-97 3z m76 -9 c24 -24 13 -38 -28 -38 -43 0 -55 20 -22 39 23 14 36 13 50 -1z"/>
<path d="M9130 2895 c0 -50 4 -85 10 -85 6 0 10 35 10 85 0 50 -4 85 -10 85
-6 0 -10 -35 -10 -85z"/>
<path d="M9200 2895 c0 -69 3 -85 15 -85 12 0 15 13 15 58 0 66 9 85 41 87 13
1 25 7 27 13 5 15 -23 16 -48 2 -13 -7 -21 -7 -25 0 -17 27 -25 2 -25 -75z"/>
<path d="M9345 2955 c-68 -67 12 -179 96 -134 11 5 17 14 14 20 -4 6 -13 5
-25 -1 -26 -14 -46 -12 -64 6 -31 31 -20 44 39 44 52 0 55 1 55 25 0 32 -33
65 -65 65 -14 0 -37 -11 -50 -25z m77 -12 c28 -25 22 -33 -27 -33 -48 0 -55 9
-29 34 20 20 33 20 56 -1z"/>
<path d="M9512 2957 c-47 -49 -15 -147 47 -147 29 0 63 18 56 31 -4 5 -14 5
-27 -2 -29 -15 -68 3 -69 33 -4 67 17 93 63 82 30 -6 39 10 12 20 -31 12 -61
6 -82 -17z"/>
<path d="M9780 2960 c-14 -14 -20 -33 -20 -65 0 -54 25 -85 69 -85 48 0 76 31
76 85 0 37 -5 51 -24 66 -30 25 -76 24 -101 -1z m84 -22 c9 -12 16 -32 16 -43
0 -27 -27 -65 -46 -65 -22 0 -54 38 -54 65 0 27 32 65 54 65 8 0 22 -10 30
-22z"/>
<path d="M9940 2895 c0 -69 3 -85 15 -85 12 0 15 13 15 58 0 62 18 92 53 92 9
0 17 5 17 10 0 16 -37 12 -54 -6 -15 -14 -16 -14 -16 0 0 9 -7 16 -15 16 -12
0 -15 -16 -15 -85z"/>
<path d="M10290 2895 c0 -69 3 -85 15 -85 12 0 15 13 15 58 0 66 9 85 41 87
13 1 25 7 27 13 5 15 -23 16 -48 2 -13 -7 -21 -7 -25 0 -17 27 -25 2 -25 -75z"/>
<path d="M10432 2957 c-65 -69 16 -181 99 -136 28 15 13 31 -16 17 -33 -15
-75 3 -75 32 0 18 6 20 55 20 47 0 55 3 55 19 0 10 -9 30 -21 45 -26 33 -68
34 -97 3z m76 -9 c24 -24 13 -38 -28 -38 -43 0 -55 20 -22 39 23 14 36 13 50
-1z"/>
<path d="M10600 2960 c-29 -29 -28 -102 2 -130 24 -22 58 -26 89 -10 29 16 24
31 -7 20 -35 -14 -41 -13 -64 10 -32 32 -24 40 41 40 l61 0 -7 28 c-15 61 -74
83 -115 42z m71 -10 c36 -20 23 -40 -26 -40 -42 0 -45 2 -35 19 8 16 21 26 38
30 2 1 12 -4 23 -9z"/>
<path d="M10989 2961 c-19 -15 -24 -29 -24 -66 0 -54 28 -85 76 -85 44 0 69
31 69 85 0 76 -65 112 -121 66z m81 -21 c11 -11 20 -31 20 -45 0 -26 -31 -65
-52 -65 -41 0 -61 66 -32 108 19 27 38 28 64 2z"/>
<path d="M11345 2955 c-68 -67 12 -179 96 -134 11 5 17 14 14 20 -4 6 -13 5
-25 -1 -26 -14 -46 -12 -64 6 -31 31 -20 44 39 44 52 0 55 1 55 25 0 32 -33
65 -65 65 -14 0 -37 -11 -50 -25z m77 -12 c28 -25 22 -33 -27 -33 -48 0 -55 9
-29 34 20 20 33 20 56 -1z"/>
<path d="M11734 2966 c-26 -19 -13 -30 19 -15 21 9 30 9 42 -1 25 -21 17 -37
-24 -44 -44 -7 -64 -26 -59 -57 5 -33 31 -46 68 -32 16 6 30 7 30 2 0 -5 5 -9
10 -9 6 0 10 32 10 75 0 63 -3 76 -19 85 -27 14 -54 13 -77 -4z m76 -96 c0
-27 -43 -48 -64 -31 -18 15 -11 38 12 44 38 10 52 7 52 -13z"/>
<path d="M11880 2895 c0 -69 3 -85 15 -85 12 0 15 14 15 64 0 67 15 94 45 82
11 -4 15 -22 15 -76 0 -56 3 -70 15 -70 12 0 15 13 15 59 0 41 5 65 16 75 34
35 54 8 54 -71 0 -49 3 -63 15 -63 21 0 21 117 -1 148 -18 25 -56 29 -74 7
-12 -14 -15 -14 -30 0 -20 18 -41 19 -59 3 -11 -10 -14 -10 -18 0 -13 35 -23
3 -23 -73z"/>
<path d="M12140 2865 c0 -96 3 -115 15 -115 10 0 15 10 15 34 0 34 1 35 34 29
39 -6 75 22 77 60 5 89 -33 128 -92 97 -13 -7 -19 -7 -19 0 0 5 -7 10 -15 10
-12 0 -15 -19 -15 -115z m109 64 c19 -34 7 -76 -24 -91 -36 -16 -55 4 -55 58
0 65 49 86 79 33z"/>
<path d="M12400 2960 c-14 -14 -20 -33 -20 -65 0 -54 25 -85 69 -85 48 0 76
31 76 85 0 37 -5 51 -24 66 -30 25 -76 24 -101 -1z m84 -22 c9 -12 16 -32 16
-43 0 -27 -27 -65 -46 -65 -22 0 -54 38 -54 65 0 27 32 65 54 65 8 0 22 -10
30 -22z"/>
<path d="M12560 2895 c0 -69 3 -85 15 -85 12 0 15 13 15 58 0 62 18 92 53 92
9 0 17 5 17 10 0 16 -37 12 -54 -6 -15 -14 -16 -14 -16 0 0 9 -7 16 -15 16
-12 0 -15 -16 -15 -85z"/>
<path d="M12707 2965 c-19 -18 -23 -60 -7 -70 7 -4 7 -12 0 -25 -5 -10 -7 -25
-4 -33 3 -8 1 -18 -5 -22 -18 -10 -13 -43 8 -55 52 -27 124 2 119 48 -3 24 -8
28 -47 32 -47 5 -71 30 -29 30 38 0 71 28 65 56 -3 16 0 24 9 24 8 0 14 5 14
10 0 6 -8 10 -17 10 -10 0 -34 3 -54 6 -26 4 -40 2 -52 -11z m57 -11 c24 -9
20 -51 -4 -59 -37 -12 -64 27 -38 53 14 14 20 14 42 6z m32 -146 c8 -13 -22
-38 -46 -38 -24 0 -54 25 -46 38 4 7 25 12 46 12 21 0 42 -5 46 -12z"/>
<path d="M10053 2811 c1 -31 4 -38 14 -29 18 15 17 68 -1 68 -11 0 -15 -11
-13 -39z"/>
<path d="M12314 2839 c-10 -17 13 -36 27 -22 12 12 4 33 -11 33 -5 0 -12 -5
-16 -11z"/>
<path d="M4860 2005 c0 -8 7 -15 15 -15 8 0 15 7 15 15 0 8 -7 15 -15 15 -8 0
-15 -7 -15 -15z"/>
<path d="M5310 1920 c0 -107 17 -140 22 -43 2 48 6 58 22 61 28 6 46 -25 46
-75 0 -24 5 -43 10 -43 6 0 10 24 10 54 0 66 -19 91 -62 82 -26 -5 -28 -4 -28
29 0 19 -4 35 -10 35 -6 0 -10 -40 -10 -100z"/>
<path d="M5457 2014 c-8 -8 1 -24 14 -24 5 0 9 7 9 15 0 15 -12 20 -23 9z"/>
<path d="M6160 2005 c0 -8 7 -15 15 -15 8 0 15 7 15 15 0 8 -7 15 -15 15 -8 0
-15 -7 -15 -15z"/>
<path d="M6253 2001 c-43 -47 -47 -55 -35 -59 8 -2 12 -25 12 -63 0 -46 3 -59
15 -59 12 0 15 13 15 60 l0 60 30 0 30 0 0 -60 c0 -33 4 -60 10 -60 6 0 10 30
10 70 l0 70 -45 0 c-43 0 -45 1 -35 20 6 11 20 20 30 20 11 0 20 5 20 10 0 17
-39 11 -57 -9z"/>
<path d="M6740 2005 c0 -8 7 -15 15 -15 8 0 15 7 15 15 0 8 -7 15 -15 15 -8 0
-15 -7 -15 -15z"/>
<path d="M7440 1920 c0 -81 3 -100 15 -100 10 0 15 15 17 58 3 53 5 57 28 57
23 0 25 -4 28 -57 4 -76 22 -75 22 1 0 66 -15 87 -55 77 -23 -6 -25 -4 -25 29
0 24 -5 35 -15 35 -12 0 -15 -18 -15 -100z"/>
<path d="M8162 1968 c-11 -29 -29 -77 -41 -106 -13 -32 -17 -52 -10 -50 6 2
29 49 50 103 44 114 42 105 30 105 -4 0 -17 -24 -29 -52z"/>
<path d="M8242 1968 c-11 -29 -29 -77 -41 -106 -13 -32 -17 -52 -10 -50 6 2
29 49 50 103 44 114 42 105 30 105 -4 0 -17 -24 -29 -52z"/>
<path d="M9130 1986 c0 -30 -2 -33 -25 -28 -39 7 -65 -22 -65 -75 0 -37 4 -45
26 -55 19 -9 30 -9 43 -1 14 9 21 9 30 0 8 -8 11 15 11 91 0 61 -4 102 -10
102 -5 0 -10 -15 -10 -34z m-5 -96 c0 -40 -3 -45 -24 -48 -27 -4 -41 12 -41
49 0 31 18 51 45 47 17 -3 20 -11 20 -48z"/>
<path d="M10463 2003 c-3 -10 -21 -56 -39 -102 -38 -96 -37 -91 -25 -91 4 0
17 24 29 53 11 28 29 76 41 105 11 28 16 52 11 52 -6 0 -13 -8 -17 -17z"/>
<path d="M10965 2011 c-7 -12 12 -24 25 -16 11 7 4 25 -10 25 -5 0 -11 -4 -15
-9z"/>
<path d="M11056 2004 c-9 -8 -16 -21 -16 -29 0 -7 -6 -16 -12 -19 -10 -5 -10
-7 0 -12 7 -4 12 -27 12 -65 0 -33 4 -59 10 -59 6 0 10 27 10 60 l0 60 30 0
30 0 0 -60 c0 -33 4 -60 10 -60 6 0 10 30 10 70 l0 70 -41 0 c-33 0 -40 3 -37
18 2 10 14 18 31 20 15 2 27 8 27 13 0 15 -47 10 -64 -7z"/>
<path d="M11547 2014 c-8 -8 1 -24 14 -24 5 0 9 7 9 15 0 15 -12 20 -23 9z"/>
<path d="M11963 2003 c-3 -10 -21 -56 -39 -102 -38 -96 -37 -91 -25 -91 4 0
17 24 29 53 11 28 29 76 41 105 11 28 16 52 11 52 -6 0 -13 -8 -17 -17z"/>
<path d="M13136 2011 c-15 -24 -76 -195 -71 -199 7 -8 8 -7 53 106 22 56 37
102 32 102 -5 0 -11 -4 -14 -9z"/>
<path d="M14085 2011 c-7 -12 12 -24 25 -16 11 7 4 25 -10 25 -5 0 -11 -4 -15
-9z"/>
<path d="M14860 1922 l0 -98 42 -1 c55 -3 78 18 78 68 0 48 -23 73 -62 65 -26
-5 -28 -4 -28 29 0 24 -5 35 -15 35 -12 0 -15 -18 -15 -98z m89 4 c28 -34 -5
-97 -43 -83 -16 6 -24 76 -9 90 11 12 40 8 52 -7z"/>
<path d="M15190 1985 c0 -33 -2 -34 -28 -29 -51 10 -86 -49 -60 -103 15 -31
50 -42 74 -23 10 9 14 9 14 1 0 -6 5 -11 10 -11 6 0 10 40 10 100 0 60 -4 100
-10 100 -5 0 -10 -16 -10 -35z m-2 -92 c3 -38 1 -43 -22 -49 -33 -8 -46 2 -46
36 0 47 10 61 39 58 23 -3 26 -8 29 -45z"/>
<path d="M15510 2005 c0 -9 5 -15 11 -13 6 2 11 8 11 13 0 5 -5 11 -11 13 -6
2 -11 -4 -11 -13z"/>
<path d="M4432 1999 c3 -8 21 -51 39 -96 17 -46 38 -83 45 -83 11 0 84 158 84
182 0 28 -26 -6 -49 -64 -14 -37 -29 -69 -32 -72 -3 -3 -19 27 -35 66 -16 39
-35 74 -43 76 -9 3 -12 0 -9 -9z"/>
<path d="M4948 1995 c-7 -9 -20 -23 -28 -32 -11 -12 -12 -17 -2 -21 8 -2 12
-25 12 -63 0 -46 3 -59 15 -59 12 0 15 13 15 60 0 47 3 60 15 60 8 0 15 5 15
10 0 6 -9 10 -20 10 -13 0 -18 5 -14 15 4 8 12 15 19 15 8 0 17 5 20 10 10 16
-33 11 -47 -5z"/>
<path d="M8312 1998 c-7 -7 -12 -17 -12 -24 0 -7 -6 -15 -12 -18 -10 -5 -10
-7 0 -12 7 -4 12 -27 12 -65 0 -33 4 -59 10 -59 6 0 10 27 10 60 0 53 2 60 20
60 11 0 20 5 20 10 0 6 -9 10 -20 10 -11 0 -20 5 -20 11 0 6 9 13 20 16 11 3
20 9 20 14 0 13 -34 11 -48 -3z"/>
<path d="M12043 2000 c-12 -5 -29 -23 -38 -41 -34 -64 10 -139 79 -139 36 0
76 23 58 34 -6 3 -13 2 -17 -4 -11 -17 -64 -11 -85 10 -27 27 -27 83 1 111 18
18 29 20 68 15 42 -5 44 -4 27 9 -22 17 -59 18 -93 5z"/>
<path d="M12190 1915 l0 -95 46 0 c77 0 113 30 113 95 0 65 -36 95 -113 95
l-46 0 0 -95z m119 49 c12 -15 21 -37 21 -49 0 -12 -9 -34 -21 -49 -16 -20
-29 -26 -60 -26 l-39 0 0 75 0 75 39 0 c31 0 44 -6 60 -26z"/>
<path d="M5220 1985 c0 -7 -8 -19 -17 -24 -13 -8 -15 -13 -6 -19 6 -4 13 -29
15 -56 3 -54 22 -75 54 -61 18 8 17 9 -3 12 -20 4 -23 10 -23 54 0 37 4 49 15
49 8 0 15 5 15 10 0 6 -7 10 -15 10 -8 0 -15 9 -15 20 0 11 -4 20 -10 20 -5 0
-10 -7 -10 -15z"/>
<path d="M6070 1981 c0 -11 -6 -22 -12 -25 -10 -5 -10 -7 0 -12 7 -3 12 -26
12 -60 0 -58 13 -73 48 -59 15 6 14 8 -5 16 -19 7 -23 16 -23 54 0 38 3 45 20
45 11 0 20 5 20 10 0 6 -9 10 -20 10 -13 0 -20 7 -20 20 0 11 -4 20 -10 20 -5
0 -10 -9 -10 -19z"/>
<path d="M6650 1981 c0 -11 -6 -22 -12 -25 -10 -5 -10 -7 0 -12 7 -3 12 -26
12 -60 0 -58 13 -73 48 -59 15 6 14 8 -5 16 -19 7 -23 16 -23 54 0 38 3 45 20
45 11 0 20 5 20 10 0 6 -9 10 -20 10 -13 0 -20 7 -20 20 0 11 -4 20 -10 20 -5
0 -10 -9 -10 -19z"/>
<path d="M7300 1981 c0 -11 -6 -22 -12 -25 -10 -5 -10 -7 0 -12 7 -3 12 -26
12 -60 0 -58 13 -73 48 -59 15 6 14 8 -5 16 -19 7 -23 16 -23 54 0 38 3 45 20
45 11 0 20 5 20 10 0 6 -9 10 -20 10 -13 0 -20 7 -20 20 0 11 -4 20 -10 20 -5
0 -10 -9 -10 -19z"/>
<path d="M7600 1981 c0 -11 -6 -22 -12 -25 -10 -5 -10 -7 0 -12 7 -3 12 -26
12 -60 0 -58 13 -73 48 -59 15 6 14 8 -5 16 -19 7 -23 16 -23 54 0 38 3 45 20
45 11 0 20 5 20 10 0 6 -9 10 -20 10 -13 0 -20 7 -20 20 0 11 -4 20 -10 20 -5
0 -10 -9 -10 -19z"/>
<path d="M7700 1981 c0 -11 -6 -22 -12 -25 -10 -5 -10 -7 0 -12 7 -3 12 -26
12 -60 0 -58 13 -73 48 -59 15 6 14 8 -5 16 -19 7 -23 16 -23 54 0 38 3 45 20
45 11 0 20 5 20 10 0 6 -9 10 -20 10 -13 0 -20 7 -20 20 0 11 -4 20 -10 20 -5
0 -10 -9 -10 -19z"/>
<path d="M10880 1985 c0 -7 -8 -19 -17 -24 -13 -8 -15 -13 -6 -19 6 -4 13 -29
15 -56 3 -54 22 -75 54 -61 18 8 17 9 -3 12 -20 4 -23 10 -23 54 0 37 4 49 15
49 8 0 15 5 15 10 0 6 -7 10 -15 10 -8 0 -15 9 -15 20 0 11 -4 20 -10 20 -5 0
-10 -7 -10 -15z"/>
<path d="M11455 1985 c-5 -11 -13 -24 -19 -28 -8 -6 -7 -10 2 -14 7 -3 12 -23
12 -48 0 -56 8 -75 30 -75 27 0 34 17 10 23 -16 4 -20 14 -20 51 0 39 3 46 20
46 11 0 20 5 20 10 0 6 -9 10 -19 10 -12 0 -21 8 -24 23 -3 21 -4 21 -12 2z"/>
<path d="M4626 1944 c-27 -27 -31 -63 -9 -92 24 -32 73 -41 93 -18 11 14 9 15
-19 10 -33 -7 -61 8 -61 32 0 10 13 14 45 14 38 0 45 3 45 19 0 45 -62 68 -94
35z m72 -21 c2 -9 -8 -13 -32 -13 -34 0 -44 8 -29 24 11 11 56 2 61 -11z"/>
<path d="M4750 1890 c0 -54 3 -70 15 -70 10 0 15 15 17 58 3 50 6 57 26 60 12
2 22 8 22 13 0 12 -17 11 -41 -1 -13 -7 -19 -7 -19 0 0 5 -4 10 -10 10 -6 0
-10 -30 -10 -70z"/>
<path d="M4860 1890 c0 -56 3 -70 15 -70 12 0 15 14 15 70 0 56 -3 70 -15 70
-12 0 -15 -14 -15 -70z"/>
<path d="M5016 1923 c33 -76 38 -101 26 -128 -9 -19 -9 -25 1 -25 10 0 38 59
84 178 3 6 0 12 -6 12 -6 0 -15 -10 -20 -22 -5 -13 -14 -36 -21 -53 l-12 -30
-20 53 c-12 28 -27 52 -34 52 -12 0 -11 -7 2 -37z"/>
<path d="M5460 1890 c0 -40 4 -70 10 -70 6 0 10 30 10 70 0 40 -4 70 -10 70
-6 0 -10 -30 -10 -70z"/>
<path d="M5533 1954 c-7 -3 -13 -17 -13 -31 0 -18 8 -28 30 -36 40 -15 42 -49
3 -47 -42 3 -50 1 -33 -10 23 -15 57 -12 74 6 25 25 19 44 -19 60 -45 18 -48
48 -5 42 19 -3 29 -1 27 6 -4 12 -45 18 -64 10z"/>
<path d="M5703 1945 c-29 -21 -32 -84 -5 -108 23 -21 65 -22 82 -2 10 12 6 13
-24 8 -31 -5 -37 -2 -47 21 -10 20 -10 32 0 52 9 22 17 25 42 22 18 -3 28 -1
26 6 -6 18 -50 18 -74 1z"/>
<path d="M5826 1944 c-27 -27 -31 -63 -9 -92 24 -32 73 -41 93 -18 11 14 9 15
-19 10 -33 -7 -61 8 -61 32 0 10 13 14 45 14 38 0 45 3 45 19 0 45 -62 68 -94
35z m72 -21 c2 -9 -8 -13 -32 -13 -34 0 -44 8 -29 24 11 11 56 2 61 -11z"/>
<path d="M5950 1890 c0 -54 3 -70 15 -70 10 0 15 15 17 58 3 50 6 57 26 60 12
2 22 8 22 13 0 12 -17 11 -41 -1 -13 -7 -19 -7 -19 0 0 5 -4 10 -10 10 -6 0
-10 -30 -10 -70z"/>
<path d="M6160 1890 c0 -56 3 -70 15 -70 12 0 15 14 15 70 0 56 -3 70 -15 70
-12 0 -15 -14 -15 -70z"/>
<path d="M6390 1940 c-41 -41 -12 -120 44 -120 13 0 29 7 36 15 10 12 6 13
-24 8 -32 -5 -37 -3 -46 21 -15 41 3 78 38 76 41 -3 49 -1 32 10 -24 16 -59
11 -80 -10z"/>
<path d="M6523 1953 c-24 -9 -13 -21 19 -19 23 1 33 -4 36 -16 2 -11 -3 -18
-12 -18 -33 0 -66 -23 -66 -46 0 -28 37 -41 68 -25 15 8 22 8 25 -2 3 -6 6 15
6 49 1 34 -4 65 -11 72 -12 12 -43 15 -65 5z m55 -90 c-4 -21 -36 -29 -51 -14
-9 9 -8 14 3 21 25 16 52 12 48 -7z"/>
<path d="M6740 1890 c0 -56 3 -70 15 -70 12 0 15 14 15 70 0 56 -3 70 -15 70
-12 0 -15 -14 -15 -70z"/>
<path d="M6822 1944 c-33 -23 -28 -92 9 -113 36 -20 74 -8 89 28 29 71 -37
128 -98 85z m73 -54 c0 -42 -2 -45 -27 -48 -22 -3 -30 2 -40 22 -17 39 3 78
40 74 25 -3 27 -6 27 -48z"/>
<path d="M6960 1888 c0 -83 18 -91 22 -11 2 48 6 58 22 61 28 6 46 -25 46 -75
0 -24 5 -43 10 -43 13 0 13 100 0 120 -6 10 -25 15 -55 15 l-45 0 0 -67z"/>
<path d="M7173 1953 c-24 -9 -13 -21 19 -19 23 1 33 -4 36 -16 2 -11 -3 -18
-12 -18 -33 0 -66 -23 -66 -46 0 -28 37 -41 68 -25 15 8 22 8 25 -2 3 -6 6 15
6 49 1 34 -4 65 -11 72 -12 12 -43 15 -65 5z m55 -90 c-4 -21 -36 -29 -51 -14
-9 9 -8 14 3 21 25 16 52 12 48 -7z"/>
<path d="M7790 1865 c0 -57 4 -95 10 -95 6 0 10 13 10 30 0 27 2 29 29 24 60
-12 98 79 50 121 -17 16 -25 17 -50 8 -16 -6 -29 -7 -29 -2 0 5 -4 9 -10 9 -6
0 -10 -38 -10 -95z m91 52 c15 -34 -4 -77 -35 -77 -25 0 -36 16 -36 54 0 46
52 64 71 23z"/>
<path d="M7942 1948 c-23 -23 -13 -48 24 -64 42 -18 40 -40 -5 -37 -36 1 -39
-20 -3 -25 63 -9 84 50 26 74 -39 16 -41 38 -3 41 42 2 44 3 29 13 -21 13 -54
12 -68 -2z"/>
<path d="M8057 1953 c-12 -11 -8 -23 8 -23 8 0 15 7 15 15 0 16 -12 20 -23 8z"/>
<path d="M8390 1891 c0 -41 4 -71 10 -71 6 0 10 20 10 44 0 57 8 76 30 76 11
0 22 5 25 10 3 6 -3 10 -14 10 -11 0 -23 -5 -26 -10 -5 -8 -11 -7 -21 1 -12
10 -14 0 -14 -60z"/>
<path d="M8506 1944 c-27 -27 -31 -63 -9 -92 24 -32 73 -41 93 -18 11 14 9 15
-19 10 -33 -7 -61 8 -61 32 0 10 13 14 45 14 38 0 45 3 45 19 0 45 -62 68 -94
35z m72 -21 c2 -9 -8 -13 -32 -13 -34 0 -44 8 -29 24 11 11 56 2 61 -11z"/>
<path d="M8646 1944 c-27 -27 -31 -63 -9 -92 24 -32 73 -41 93 -18 11 14 9 15
-19 10 -33 -7 -61 8 -61 32 0 10 13 14 45 14 38 0 45 3 45 19 0 45 -62 68 -94
35z m72 -21 c2 -9 -8 -13 -32 -13 -34 0 -44 8 -29 24 11 11 56 2 61 -11z"/>
<path d="M8786 1945 c-53 -54 -7 -143 63 -120 30 9 26 27 -4 19 -33 -8 -55 11
-55 46 0 35 22 54 55 46 27 -7 35 8 9 18 -26 10 -52 7 -68 -9z"/>
<path d="M8912 1944 c-33 -23 -28 -92 9 -113 36 -20 74 -8 89 28 29 71 -37
128 -98 85z m73 -54 c0 -42 -2 -45 -27 -48 -22 -3 -30 2 -40 22 -17 39 3 78
40 74 25 -3 27 -6 27 -48z"/>
<path d="M9207 1942 c-23 -25 -22 -85 1 -105 19 -18 48 -22 76 -11 28 11 17
24 -14 18 -32 -7 -60 8 -60 32 0 10 13 14 45 14 41 0 45 2 45 25 0 43 -63 61
-93 27z m71 -19 c2 -9 -8 -13 -32 -13 -34 0 -44 8 -29 24 11 11 56 2 61 -11z"/>
<path d="M9347 1942 c-23 -25 -22 -85 1 -105 19 -18 40 -21 66 -11 26 10 18
25 -9 18 -33 -8 -55 11 -55 46 0 35 22 54 55 46 27 -7 35 8 9 18 -28 11 -50 6
-67 -12z"/>
<path d="M9470 1945 c-10 -12 -6 -13 23 -8 26 4 36 1 41 -12 8 -21 10 -19 -33
-31 -45 -12 -61 -38 -38 -61 14 -15 22 -16 47 -6 17 6 30 7 30 2 0 -5 5 -9 10
-9 17 0 12 107 -6 124 -19 20 -58 21 -74 1z m70 -80 c0 -15 -46 -32 -57 -22
-3 4 -3 13 0 22 8 20 57 20 57 0z"/>
<path d="M9600 1888 c0 -83 18 -91 22 -11 2 47 6 58 22 61 26 5 36 -15 36 -70
0 -68 18 -60 22 9 2 47 6 58 22 61 26 5 36 -15 36 -70 0 -27 5 -48 10 -48 13
0 13 96 0 121 -12 21 -50 25 -67 8 -7 -7 -17 -8 -25 -3 -7 5 -28 9 -45 9 l-33
0 0 -67z"/>
<path d="M9810 1865 c0 -78 3 -95 15 -95 10 0 15 10 15 29 0 25 3 28 25 23 37
-7 65 23 65 69 0 58 -35 83 -81 59 -13 -7 -19 -7 -19 0 0 5 -4 10 -10 10 -6 0
-10 -38 -10 -95z m94 53 c17 -28 -4 -73 -34 -73 -21 0 -26 5 -28 33 -2 19 -1
41 2 49 8 19 46 13 60 -9z"/>
<path d="M10032 1944 c-33 -23 -28 -92 9 -113 36 -20 74 -8 89 28 29 71 -37
128 -98 85z m73 -54 c0 -42 -2 -45 -27 -48 -37 -4 -57 35 -40 74 10 20 18 25
40 22 25 -3 27 -6 27 -48z"/>
<path d="M10170 1891 c0 -41 4 -71 10 -71 6 0 10 20 10 44 0 57 8 76 30 76 11
0 22 5 25 10 3 6 -3 10 -14 10 -11 0 -23 -5 -26 -10 -5 -8 -11 -7 -21 1 -12
10 -14 0 -14 -60z"/>
<path d="M10282 1947 c-6 -7 -11 -35 -10 -63 1 -27 -2 -58 -7 -68 -16 -36 50
-60 96 -36 23 13 25 55 3 64 -9 3 -29 6 -45 6 -16 0 -29 5 -29 10 0 6 10 10
23 10 32 0 46 12 56 47 8 29 7 31 -21 37 -44 9 -54 8 -66 -7z m63 -32 c0 -22
-31 -33 -47 -17 -17 17 -1 44 24 40 15 -2 23 -10 23 -23z m10 -105 c0 -18 -52
-27 -67 -12 -17 17 2 33 35 30 20 -2 32 -8 32 -18z"/>
<path d="M10506 1945 c-53 -54 -7 -143 63 -120 30 9 26 27 -4 19 -33 -8 -55
11 -55 46 0 35 22 54 55 46 27 -7 35 8 9 18 -26 10 -52 7 -68 -9z"/>
<path d="M10632 1944 c-15 -11 -22 -25 -22 -50 0 -55 44 -87 94 -68 28 11 17
24 -16 17 -23 -5 -34 -2 -45 12 -21 30 -16 35 37 35 54 0 61 10 34 48 -18 26
-50 28 -82 6z m68 -19 c11 -13 7 -15 -30 -15 -37 0 -41 2 -30 15 7 8 20 15 30
15 10 0 23 -7 30 -15z"/>
<path d="M10760 1890 c0 -40 4 -70 10 -70 6 0 10 22 10 48 0 51 12 72 42 72
10 0 18 5 18 10 0 14 -33 13 -48 -2 -9 -9 -12 -9 -12 0 0 7 -4 12 -10 12 -6 0
-10 -30 -10 -70z"/>
<path d="M10970 1890 c0 -40 4 -70 10 -70 6 0 10 30 10 70 0 40 -4 70 -10 70
-6 0 -10 -30 -10 -70z"/>
<path d="M11197 1942 c-23 -25 -22 -85 1 -105 19 -18 40 -21 66 -11 26 10 18
25 -9 18 -33 -8 -55 11 -55 46 0 35 22 54 55 46 27 -7 35 8 9 18 -28 11 -50 6
-67 -12z"/>
<path d="M11323 1953 c-26 -10 -12 -22 21 -16 28 4 35 2 38 -13 3 -14 -5 -22
-31 -29 -46 -13 -61 -39 -38 -62 14 -15 22 -16 47 -6 17 6 30 7 30 2 0 -5 5
-9 10 -9 17 0 12 107 -6 124 -15 16 -46 20 -71 9z m65 -85 c-7 -19 -34 -32
-53 -24 -14 5 -15 9 -5 21 15 18 63 20 58 3z"/>
<path d="M11550 1890 c0 -40 4 -70 10 -70 6 0 10 30 10 70 0 40 -4 70 -10 70
-6 0 -10 -30 -10 -70z"/>
<path d="M11626 1945 c-23 -24 -29 -54 -16 -86 15 -36 53 -48 89 -28 37 21 42
90 9 113 -28 20 -62 20 -82 1z m76 -30 c17 -38 -4 -77 -40 -73 -23 2 -28 8
-30 36 -5 47 3 62 33 62 17 0 29 -8 37 -25z"/>
<path d="M11760 1890 c0 -81 17 -95 22 -19 3 55 21 78 52 66 12 -5 16 -20 16
-62 0 -30 5 -55 10 -55 6 0 10 26 10 59 0 71 -16 91 -61 74 -16 -6 -29 -7 -29
-2 0 5 -4 9 -10 9 -6 0 -10 -30 -10 -70z"/>
<path d="M12380 1950 c0 -5 16 -10 35 -10 l36 0 -41 -53 c-22 -30 -40 -57 -40
-60 0 -4 23 -7 50 -7 28 0 50 5 50 10 0 6 -16 10 -35 10 l-36 0 41 53 c22 30
40 57 40 60 0 4 -22 7 -50 7 -27 0 -50 -4 -50 -10z"/>
<path d="M12510 1901 c0 -71 16 -91 61 -74 16 6 29 7 29 2 0 -5 5 -9 10 -9 6
0 10 30 10 70 0 54 -3 70 -15 70 -10 0 -15 -15 -17 -57 -3 -54 -5 -58 -28 -58
-23 0 -25 4 -28 58 -4 75 -22 74 -22 -2z"/>
<path d="M12660 1888 c0 -83 18 -91 22 -11 2 48 6 58 22 61 28 6 46 -25 46
-75 0 -24 5 -43 10 -43 13 0 13 100 0 120 -6 10 -25 15 -55 15 l-45 0 0 -67z"/>
<path d="M12812 1947 c-6 -7 -11 -35 -10 -63 1 -27 -2 -58 -7 -68 -16 -36 50
-60 96 -36 23 13 25 55 3 64 -9 3 -29 6 -45 6 -16 0 -29 5 -29 10 0 6 10 10
23 10 32 0 46 12 56 47 8 29 7 31 -21 37 -44 9 -54 8 -66 -7z m63 -32 c0 -22
-31 -33 -47 -17 -17 17 -1 44 24 40 15 -2 23 -10 23 -23z m10 -105 c0 -18 -52
-27 -67 -12 -17 17 2 33 35 30 20 -2 32 -8 32 -18z"/>
<path d="M12950 1925 l22 -35 -22 -30 c-29 -41 -15 -54 16 -15 23 29 24 29 38
10 9 -11 16 -23 16 -27 0 -5 7 -8 15 -8 13 0 12 7 -7 38 l-22 39 23 31 c16 23
19 32 8 32 -7 0 -20 -11 -27 -25 -7 -14 -16 -25 -20 -25 -4 0 -13 11 -20 25
-7 14 -20 25 -28 25 -10 0 -8 -8 8 -35z"/>
<path d="M13160 1890 c0 -54 3 -70 15 -70 10 0 15 15 17 58 3 50 6 57 26 60
12 2 22 8 22 13 0 12 -17 11 -41 -1 -13 -7 -19 -7 -19 0 0 5 -4 10 -10 10 -6
0 -10 -30 -10 -70z"/>
<path d="M13280 1940 c-59 -59 20 -156 86 -105 18 14 16 15 -23 9 -35 -5 -43
-3 -52 14 -16 31 -15 32 39 32 42 0 50 3 50 18 0 25 -31 52 -58 52 -12 0 -31
-9 -42 -20z m78 -17 c2 -9 -8 -13 -32 -13 -34 0 -44 8 -29 24 11 11 56 2 61
-11z"/>
<path d="M13416 1945 c-23 -24 -20 -33 19 -56 19 -12 35 -28 35 -36 0 -12 -8
-14 -35 -10 -41 7 -48 -9 -8 -19 33 -9 57 6 61 38 3 21 -3 28 -27 36 -42 15
-43 46 -1 40 19 -3 29 -1 27 6 -6 18 -53 18 -71 1z"/>
<path d="M13530 1867 c0 -58 4 -97 10 -97 6 0 10 13 10 29 0 25 3 28 25 23 39
-7 65 22 65 75 0 37 -4 45 -26 55 -19 9 -30 9 -43 1 -14 -9 -21 -9 -30 0 -8 8
-11 -14 -11 -86z m86 49 c8 -33 2 -57 -17 -69 -29 -18 -49 -1 -49 41 0 45 5
52 36 52 17 0 25 -7 30 -24z"/>
<path d="M13686 1945 c-23 -24 -29 -54 -16 -86 15 -36 53 -48 89 -28 37 21 42
90 9 113 -28 20 -62 20 -82 1z m76 -30 c17 -38 -4 -77 -40 -73 -23 2 -28 8
-30 36 -5 47 3 62 33 62 17 0 29 -8 37 -25z"/>
<path d="M13820 1890 c0 -81 17 -95 22 -19 3 55 21 78 52 66 12 -5 16 -20 16
-62 0 -30 5 -55 10 -55 6 0 10 26 10 59 0 71 -16 91 -61 74 -16 -6 -29 -7 -29
-2 0 5 -4 9 -10 9 -6 0 -10 -30 -10 -70z"/>
<path d="M13972 1948 c-23 -23 -13 -48 24 -64 42 -18 40 -40 -5 -38 -38 2 -41
-13 -4 -22 61 -16 83 50 25 75 -37 17 -37 35 -1 38 42 2 44 3 29 13 -21 13
-54 12 -68 -2z"/>
<path d="M14090 1890 c0 -40 4 -70 10 -70 6 0 10 30 10 70 0 40 -4 70 -10 70
-6 0 -10 -30 -10 -70z"/>
<path d="M14144 1944 c22 -69 46 -119 57 -119 7 0 25 30 40 68 21 49 24 67 14
67 -7 0 -21 -23 -30 -51 -19 -55 -27 -54 -48 6 -14 39 -45 67 -33 29z"/>
<path d="M14297 1942 c-23 -25 -22 -85 1 -105 19 -18 48 -22 76 -11 28 11 17
24 -14 18 -32 -7 -60 8 -60 32 0 10 13 14 45 14 41 0 45 2 45 25 0 43 -63 61
-93 27z m71 -19 c2 -9 -8 -13 -32 -13 -34 0 -44 8 -29 24 11 11 56 2 61 -11z"/>
<path d="M14502 1949 c3 -8 14 -40 24 -71 10 -32 23 -58 30 -58 6 0 17 20 24
45 7 25 16 48 20 50 5 3 13 -18 20 -45 7 -30 18 -50 26 -50 13 0 59 128 49
138 -9 9 -21 -11 -35 -58 l-13 -45 -17 49 c-9 28 -21 51 -27 53 -6 2 -19 -20
-29 -49 l-17 -53 -17 49 c-9 28 -22 52 -30 54 -8 3 -11 -1 -8 -9z"/>
<path d="M14736 1944 c-27 -27 -31 -63 -9 -92 24 -32 73 -41 93 -18 11 14 9
15 -19 10 -33 -7 -61 8 -61 32 0 10 13 14 45 14 38 0 45 3 45 19 0 45 -62 68
-94 35z m72 -21 c2 -9 -8 -13 -32 -13 -34 0 -44 8 -29 24 11 11 56 2 61 -11z"/>
<path d="M15266 1944 c-27 -27 -31 -63 -9 -92 24 -32 73 -41 93 -18 11 14 9
15 -19 10 -33 -7 -61 8 -61 32 0 10 13 14 45 14 38 0 45 3 45 19 0 45 -62 68
-94 35z m72 -21 c2 -9 -8 -13 -32 -13 -34 0 -44 8 -29 24 11 11 56 2 61 -11z"/>
<path d="M15403 1954 c-7 -3 -13 -17 -13 -31 0 -18 8 -28 30 -36 40 -15 42
-49 3 -47 -42 3 -50 1 -33 -10 23 -15 57 -12 74 6 25 25 19 44 -19 60 -45 18
-48 48 -5 42 19 -3 29 -1 27 6 -4 12 -45 18 -64 10z"/>
<path d="M15510 1890 c0 -40 4 -70 10 -70 6 0 10 30 10 70 0 40 -4 70 -10 70
-6 0 -10 -30 -10 -70z"/>
<path d="M15588 1949 c-20 -11 -24 -54 -8 -64 8 -5 8 -11 1 -19 -6 -7 -8 -16
-4 -19 3 -4 1 -13 -6 -20 -28 -34 26 -69 78 -51 16 6 27 18 29 33 4 28 -12 41
-50 41 -16 0 -28 5 -28 10 0 6 10 10 23 10 29 0 47 18 47 47 0 13 6 24 13 24
13 1 -39 16 -63 18 -8 0 -23 -4 -32 -10z m57 -34 c0 -22 -31 -33 -47 -17 -17
17 -1 44 24 40 15 -2 23 -10 23 -23z m13 -102 c-4 -20 -54 -31 -70 -15 -17 17
1 32 38 32 28 0 35 -4 32 -17z"/>
<path d="M15710 1890 c0 -54 3 -70 15 -70 10 0 15 15 17 58 3 53 5 57 28 57
23 0 25 -4 28 -57 4 -76 22 -75 22 1 0 71 -16 91 -61 74 -16 -6 -29 -7 -29 -2
0 5 -4 9 -10 9 -6 0 -10 -30 -10 -70z"/>
<path d="M14420 1900 c0 -5 14 -10 30 -10 17 0 30 5 30 10 0 6 -13 10 -30 10
-16 0 -30 -4 -30 -10z"/>
<path d="M15000 1900 c0 -5 16 -10 35 -10 19 0 35 5 35 10 0 6 -16 10 -35 10
-19 0 -35 -4 -35 -10z"/>
<path d="M8057 1843 c-12 -11 -8 -23 8 -23 8 0 15 7 15 15 0 16 -12 20 -23 8z"/>
<path d="M9957 1844 c-8 -8 1 -24 14 -24 5 0 9 7 9 15 0 15 -12 20 -23 9z"/>
</g>
</svg>
