<svg xmlns="http://www.w3.org/2000/svg" width="512" height="512" fill="none"><rect width="512" height="512" fill="url(#a)" rx="120"/><g filter="url(#b)"><path fill="url(#c)" d="M305.5 274.5c9.569 1.993 116.683 156.904 125.183 169.215.392.568.589 1.171.207 1.746-1.873 2.817-14.249 9.79-95.199-6.726-.731-.149-1.399-.442-1.931-.965-14.279-14.043-77.006-110.623-105.03-155.899-.158-.255-.346-.473-.493-.734-1.584-2.83.454-13.229 1.784-19.076.517-2.273 2.776-3.659 5.051-3.149 14.064 3.146 60.285 13.475 70.428 15.588Z"/></g><g filter="url(#d)"><path fill="url(#e)" d="M193.5 83c12.703-5.0173 61.558-23.863 61.5-17.3617-.058 6.5013-11.868 64.0487-16.627 86.4617-27.824 131.041-42.734 223.3-52.718 231.857-9.984 8.557-88.7558 69.982-88.6772 61.183C97.0528 436.745 160 220.5 164 206s-66-53-62-58.5 32-41 91.5-64.5Z"/></g><g filter="url(#f)"><path fill="url(#g)" fill-rule="evenodd" d="M282.435 67.458c-6.984-1.3575-13.814 3.1898-15.255 10.1568L234.61 235.027c-1.442 6.967 3.051 13.715 10.035 15.073l85.667 16.652c50.557 9.827 100.001-23.092 110.437-73.527 10.435-50.435-22.09-99.2878-72.647-109.1151L282.435 67.458Zm62.674 53.032c-1.511-2.625-5.316-2.642-6.907-.03l-15.896 26.09c-.589.967-1.558 1.646-2.668 1.87l-30.289 6.107c-3.06.617-4.312 4.312-2.236 6.602l20.222 22.31c.77.85 1.131 1.993.989 3.137l-3.695 29.821c-.378 3.044 2.685 5.322 5.524 4.11l28.541-12.186c1.029-.439 2.19-.434 3.205.014l28.16 12.428c2.801 1.236 5.934-1.016 5.651-4.063l-2.773-29.848c-.106-1.145.29-2.285 1.086-3.128l20.91-22.135c2.146-2.272 1.009-5.978-2.032-6.62l-30.096-6.365c-1.103-.233-2.051-.92-2.61-1.892l-15.086-26.222Z" clip-rule="evenodd"/></g><defs><linearGradient id="a" x1="0" x2="512" y1="0" y2="512" gradientUnits="userSpaceOnUse"><stop stop-color="#FFFEF0"/><stop offset=".515" stop-color="#EFE9B1"/><stop offset="1" stop-color="#FFFBDB"/></linearGradient><linearGradient id="c" x1="329.467" x2="329.467" y1="255.602" y2="455.495" gradientUnits="userSpaceOnUse"><stop stop-color="#C34600"/><stop offset="1" stop-color="#9A002E"/></linearGradient><linearGradient id="e" x1="114.5" x2="251.171" y1="64" y2="447.365" gradientUnits="userSpaceOnUse"><stop stop-color="#5D1F1F"/><stop offset="1" stop-color="#E03600"/></linearGradient><linearGradient id="g" x1="266.5" x2="329.418" y1="58.5" y2="265.336" gradientUnits="userSpaceOnUse"><stop stop-color="#451313"/><stop offset="1" stop-color="#C63B00"/></linearGradient><filter id="b" width="225.436" height="212.542" x="207.66" y="256.806" color-interpolation-filters="sRGB" filterUnits="userSpaceOnUse"><feFlood flood-opacity="0" result="BackgroundImageFix"/><feColorMatrix in="SourceAlpha" result="hardAlpha" values="0 0 0 0 0 0 0 0 0 0 0 0 0 0 0 0 0 0 127 0"/><feOffset dx="-9" dy="9"/><feGaussianBlur stdDeviation="5.5"/><feComposite in2="hardAlpha" operator="out"/><feColorMatrix values="0 0 0 0 0 0 0 0 0 0 0 0 0 0 0 0 0 0 0.25 0"/><feBlend in2="BackgroundImageFix" result="effect1_dropShadow_8_21"/><feBlend in="SourceGraphic" in2="effect1_dropShadow_8_21" result="shape"/><feColorMatrix in="SourceAlpha" result="hardAlpha" values="0 0 0 0 0 0 0 0 0 0 0 0 0 0 0 0 0 0 127 0"/><feOffset dx="-6" dy="6"/><feGaussianBlur stdDeviation="5"/><feComposite in2="hardAlpha" k2="-1" k3="1" operator="arithmetic"/><feColorMatrix values="0 0 0 0 0 0 0 0 0 0 0 0 0 0 0 0 0 0 0.25 0"/><feBlend in2="shape" result="effect2_innerShadow_8_21"/></filter><filter id="d" width="180.022" height="403.71" x="76.978" y="62.289" color-interpolation-filters="sRGB" filterUnits="userSpaceOnUse"><feFlood flood-opacity="0" result="BackgroundImageFix"/><feColorMatrix in="SourceAlpha" result="hardAlpha" values="0 0 0 0 0 0 0 0 0 0 0 0 0 0 0 0 0 0 127 0"/><feOffset dx="-9" dy="9"/><feGaussianBlur stdDeviation="5.5"/><feComposite in2="hardAlpha" operator="out"/><feColorMatrix values="0 0 0 0 0 0 0 0 0 0 0 0 0 0 0 0 0 0 0.25 0"/><feBlend in2="BackgroundImageFix" result="effect1_dropShadow_8_21"/><feBlend in="SourceGraphic" in2="effect1_dropShadow_8_21" result="shape"/><feColorMatrix in="SourceAlpha" result="hardAlpha" values="0 0 0 0 0 0 0 0 0 0 0 0 0 0 0 0 0 0 127 0"/><feOffset dx="-6" dy="6"/><feGaussianBlur stdDeviation="5"/><feComposite in2="hardAlpha" k2="-1" k3="1" operator="arithmetic"/><feColorMatrix values="0 0 0 0 0 0 0 0 0 0 0 0 0 0 0 0 0 0 0.25 0"/><feBlend in2="shape" result="effect2_innerShadow_8_21"/></filter><filter id="f" width="230.356" height="223.268" x="214.341" y="65.218" color-interpolation-filters="sRGB" filterUnits="userSpaceOnUse"><feFlood flood-opacity="0" result="BackgroundImageFix"/><feColorMatrix in="SourceAlpha" result="hardAlpha" values="0 0 0 0 0 0 0 0 0 0 0 0 0 0 0 0 0 0 127 0"/><feOffset dx="-9" dy="9"/><feGaussianBlur stdDeviation="5.5"/><feComposite in2="hardAlpha" operator="out"/><feColorMatrix values="0 0 0 0 0 0 0 0 0 0 0 0 0 0 0 0 0 0 0.25 0"/><feBlend in2="BackgroundImageFix" result="effect1_dropShadow_8_21"/><feBlend in="SourceGraphic" in2="effect1_dropShadow_8_21" result="shape"/><feColorMatrix in="SourceAlpha" result="hardAlpha" values="0 0 0 0 0 0 0 0 0 0 0 0 0 0 0 0 0 0 127 0"/><feOffset dx="-4" dy="4"/><feGaussianBlur stdDeviation="5.5"/><feComposite in2="hardAlpha" k2="-1" k3="1" operator="arithmetic"/><feColorMatrix values="0 0 0 0 0 0 0 0 0 0 0 0 0 0 0 0 0 0 0.25 0"/><feBlend in2="shape" result="effect2_innerShadow_8_21"/></filter></defs></svg>