<svg xmlns="http://www.w3.org/2000/svg" width="128" height="128" fill="none">
  <defs>
    <radialGradient id="gradient-0" cx="64" cy="61.6" r="42.1" gradientUnits="userSpaceOnUse">
      <stop offset="0" stop-color="#ab0000"/>
      <stop offset="1" stop-color="#450000"/>
    </radialGradient>
    <radialGradient id="gradient-2" cx="64.036" cy="94.575" r="20.5" gradientUnits="userSpaceOnUse">
      <stop offset="0" stop-color="#cd0000"/>
      <stop offset="1" stop-color="#6c0000"/>
    </radialGradient>
  </defs>
  <path fill="url(#gradient-0)" d="M50.4 78.5c-9.861.405-19.546 2.75-28.5 6.9l24.2-65.7c.7-2 1.9-3.2 3.4-3.2h29c1.5 0 2.7 1.2 3.4 3.2l24.2 65.7s-11.6-7-28.5-7L67 45.5c-.4-1.7-1.6-2.8-2.9-2.8-1.3 0-2.5 1.1-2.9 2.7L50.4 78.5Zm-1.1 28.2Z" paint-order="fill"/>
  <path fill="url(#gradient-2)" stroke="#bada55" stroke-opacity="0" d="m65.419 75.858 4.599 10.489c.352.806 1.115 1.353 1.99 1.432l11.203 1.006c1.268.183 1.774 1.738.854 2.635l-8.439 7.09c-.684.574-.993 1.476-.807 2.346l2.454 11.484c.215 1.261-1.107 2.224-2.241 1.628l-9.78-5.728c-.75-.441-1.682-.441-2.432 0l-9.78 5.724c-1.13.594-2.457-.366-2.241-1.628l2.453-11.484c.185-.87-.123-1.772-.805-2.346l-8.443-7.084c-.917-.892-.41-2.451.854-2.634l11.202-1.006c.875-.078 1.638-.626 1.989-1.431l4.6-10.489c.57-1.148 2.203-1.148 2.77-.004Z"/>
</svg>